FiraMath-Regular.sfdir
StartChar: uni0023
Encoding: 35 35 3
Width: 518
Flags: W
HStem: 0 21G<58 136 58 58 290 368 290 290> 163 69<15 79 15 89 167 311 15 157 399 466> 447 70<52 117 52 126 52 195 204 349 436 503>
VStem: 15 488<163 447 232 447>
LayerCount: 2
Fore
SplineSet
503 447 m 1
 427 447 l 1
 399 232 l 1
 466 232 l 1
 466 163 l 1
 389 163 l 1
 368 0 l 1
 290 0 l 1
 311 163 l 1
 157 163 l 1
 136 0 l 1
 58 0 l 1
 79 163 l 1
 15 163 l 1
 15 232 l 1
 89 232 l 1
 117 447 l 1
 52 447 l 1
 52 517 l 1
 126 517 l 1
 146 669 l 1
 224 669 l 1
 204 517 l 1
 358 517 l 1
 378 669 l 1
 456 669 l 1
 436 517 l 1
 503 517 l 1
 503 447 l 1
321 232 m 1
 349 447 l 1
 195 447 l 1
 167 232 l 1
 321 232 l 1
EndSplineSet
Validated: 1
EndChar
StartChar: uni0031
Encoding: 49 49 17
Width: 560
Flags: W
HStem: 0 21G<276 368> 669 20G<254.656 368>
VStem: 276 92<0 591>
LayerCount: 2
Fore
SplineSet
276 0 m 1
 276 591 l 1
 120 496 l 1
 80 561 l 1
 287 689 l 1
 368 689 l 1
 368 0 l 1
 276 0 l 1
EndSplineSet
EndChar
StartChar: uni0033
Encoding: 51 51 19
Width: 560
Flags: W
HStem: -12 75<214 288.5 214 317.5> 327 71<204 245 245 251 193 245> 628 73<216.5 281.5>
VStem: 373 92<485 551.5> 391 96<157 247>
LayerCount: 2
Fore
SplineSet
251 701 m 0xf0
 383 701 465 622 465 528 c 0xf0
 465 442 405 385 328 368 c 1
 410 363 487 303 487 198 c 0
 487 79 390 -12 245 -12 c 0
 165 -12 83 17 30 81 c 1
 88 130 l 1
 130 85 186 63 242 63 c 0
 335 63 391 115 391 199 c 0xe8
 391 295 332 327 251 327 c 2
 193 327 l 1
 204 398 l 1
 245 398 l 2
 311 398 373 435 373 515 c 0
 373 588 317 628 246 628 c 0
 187 628 146 607 101 565 c 1
 51 620 l 1
 110 676 178 701 251 701 c 0xf0
EndSplineSet
EndChar
StartChar: uni0034
Encoding: 52 52 20
Width: 560
Flags: W
HStem: 0 21G<335 424 335 335> 165 73<146 335 424 511> 681 20G<250 250>
VStem: 335 89<0 165 0 165>
LayerCount: 2
Fore
SplineSet
511 238 m 1
 511 165 l 1
 424 165 l 1
 424 0 l 1
 335 0 l 1
 335 165 l 1
 49 165 l 1
 49 231 l 1
 250 701 l 1
 327 669 l 1
 146 238 l 1
 336 238 l 1
 344 430 l 1
 424 430 l 1
 424 238 l 1
 511 238 l 1
EndSplineSet
EndChar
StartChar: uni0035
Encoding: 53 53 21
Width: 560
Flags: W
HStem: -12 75<223 296.5 223 325> 365 71<281 307> 617 72<184 454 184 184>
VStem: 96 88<407 617 407 689 407 689> 394 96<169.5 275>
LayerCount: 2
Fore
SplineSet
467 689 m 1
 454 617 l 1
 184 617 l 1
 184 407 l 1
 225 429 261 436 301 436 c 0
 413 436 490 357 490 219 c 0
 490 81 397 -12 253 -12 c 0
 168 -12 103 20 50 73 c 1
 106 127 l 1
 147 84 194 63 252 63 c 0
 341 63 394 118 394 221 c 0
 394 329 341 365 273 365 c 0
 234 365 207 357 168 342 c 1
 96 342 l 1
 96 689 l 1
 467 689 l 1
EndSplineSet
EndChar
StartChar: uni0036
Encoding: 54 54 22
Width: 560
Flags: W
HStem: -12 73<246 332.5 246 352> 377 73<285.5 334.5> 628 73<270 338.5>
VStem: 63 93 415 94<177.5 284.5>
LayerCount: 2
Fore
SplineSet
317 450 m 0
 420 450 509 379 509 232 c 0
 509 81 412 -12 292 -12 c 0
 126 -12 63 122 63 324 c 0
 63 553 160 701 321 701 c 0
 375 701 420 686 459 660 c 1
 423 599 l 1
 392 618 357 628 320 628 c 0
 220 628 160 524 156 361 c 1
 200 423 254 450 317 450 c 0
292 61 m 0
 373 61 415 126 415 229 c 0
 415 340 368 377 301 377 c 0
 241 377 191 340 157 284 c 1
 160 131 200 61 292 61 c 0
EndSplineSet
EndChar
StartChar: uni0038
Encoding: 56 56 24
Width: 560
Flags: W
HStem: -12 73<237 321 237 346.5> 632 69<244.5 316>
VStem: 47 96<143 220 143 225> 75 90<485.5 557.5 483.5 581.5> 395 90<490.5 555> 416 96<146 220>
LayerCount: 2
Fore
SplineSet
370 369 m 1xd4
 460 333 512 275 512 184 c 0
 512 68 415 -12 278 -12 c 0
 140 -12 47 66 47 181 c 0xe4
 47 269 97 325 180 361 c 1
 107 397 75 450 75 521 c 0
 75 642 177 701 280 701 c 0
 381 701 485 646 485 525 c 0xd8
 485 456 447 408 370 369 c 1xd4
280 632 m 0
 209 632 165 595 165 520 c 0
 165 447 212 420 299 393 c 1
 307 391 l 1
 369 424 395 460 395 520 c 0xd8
 395 590 352 632 280 632 c 0
278 61 m 0
 364 61 416 111 416 181 c 0
 416 259 380 295 264 329 c 1
 242 337 l 1
 175 305 143 258 143 182 c 0xe4
 143 104 196 61 278 61 c 0
EndSplineSet
EndChar
StartChar: uni003D
Encoding: 61 61 29
Width: 500
Flags: W
HStem: 146 76<62 438> 338 76<62 438>
LayerCount: 2
Fore
SplineSet
62 338 m 1
 62 414 l 1
 438 414 l 1
 438 338 l 1
 62 338 l 1
62 146 m 1
 62 222 l 1
 438 222 l 1
 438 146 l 1
 62 146 l 1
EndSplineSet
EndChar
StartChar: uni005B
Encoding: 91 91 59
Width: 322
Flags: W
IsExtendedShape: 1
GlyphVariantsVertical: uni005B uni005B.size1 uni005B.size2 uni005B.size3 uni005B.size4 uni005B.size5 uni005B.size6 uni005B.size7 uni005B.size8 uni005B.size9 uni005B.size10 uni005B.size11 uni005B.size12 uni005B.size13 uni005B.size14 uni005B.size15
GlyphCompositionVertical: 3  uni23A3%0,0,150,2956 uni23A2%1,150,150,600 uni23A1%0,150,0,2956
HStem: -186 76<152 272> 669 77<152 272>
VStem: 65 207<-186 -110 669 746> 65 87<-110 669>
LayerCount: 2
Fore
SplineSet
272 746 m 1xe0
 272 669 l 1xe0
 152 669 l 1
 152 -110 l 1xd0
 272 -110 l 1
 272 -186 l 1
 65 -186 l 1
 65 746 l 1
 272 746 l 1xe0
EndSplineSet
EndChar
StartChar: uni007B
Encoding: 123 123 91
Width: 322
Flags: W
IsExtendedShape: 1
GlyphVariantsVertical: uni007B uni007B.size1 uni007B.size2 uni007B.size3 uni007B.size4 uni007B.size5 uni007B.size6 uni007B.size7 uni007B.size8 uni007B.size9 uni007B.size10 uni007B.size11 uni007B.size12 uni007B.size13 uni007B.size14 uni007B.size15
GlyphCompositionVertical: 5  uni23A9%0,0,150,1400 uni23AA%1,150,150,600 uni23A8%0,150,150,2000 uni23AA%1,150,150,600 uni23A7%0,150,0,1400
HStem: -206 71<200.61 277> 243 74<25 81.837> 695 71<200.61 277>
VStem: 95 87<-117.327 230.21 329.79 677.327>
CounterMasks: 1 e0
LayerCount: 2
Fore
SplineSet
277 766 m 1
 277 695 l 1
 210 695 182 677 182 627 c 2
 182 388 l 2
 182 315 154 296 107 280 c 1
 154 264 182 245 182 172 c 2
 182 -67 l 2
 182 -117 210 -135 277 -135 c 1
 277 -206 l 1
 142 -206 95 -162 95 -57 c 2
 95 165 l 2
 95 220 78 243 25 243 c 1
 25 317 l 1
 78 317 95 340 95 395 c 2
 95 617 l 2
 95 722 142 766 277 766 c 1
EndSplineSet
EndChar
StartChar: uni00AE
Encoding: 174 174 109
Width: 641
Flags: W
HStem: 238 49<262 378 262 391.5> 465 44<285 309 285 315> 591 44<285 285 285 306 306 313> 701 49<262 378>
VStem: 67 55<433 553 433 564> 228 57<359 465 359 509 509 591> 369 59<536 565> 519 55<433 553>
LayerCount: 2
Fore
SplineSet
319 750 m 0
 464 750 574 635 574 493 c 0
 574 351 464 238 319 238 c 0
 178 238 67 351 67 493 c 0
 67 635 178 750 319 750 c 0
319 287 m 0
 437 287 519 373 519 493 c 0
 519 613 437 701 319 701 c 0
 205 701 122 613 122 493 c 0
 122 373 205 287 319 287 c 0
428 551 m 0
 428 511 400 485 363 474 c 1
 437 359 l 1
 370 359 l 1
 309 465 l 1
 285 465 l 1
 285 359 l 1
 228 359 l 1
 228 635 l 1
 306 635 l 2
 388 635 428 607 428 551 c 0
285 591 m 1
 285 509 l 1
 315 509 l 2
 348 509 369 521 369 551 c 0
 369 579 351 591 313 591 c 2
 285 591 l 1
EndSplineSet
EndChar
StartChar: uni00D1
Encoding: 209 209 144
Width: 683
Flags: W
HStem: 0 21G<100 189 100 100 456 583 456 456> 0 103<507 507 507 583 456 507> 585 104<176 176> 669 20G<100 224 224 224 494 583 583 583> 782 70<392.5 421 392.5 433.5> 830 70<283.5 313>
VStem: 100 89<0 316 0 689> 494 89<313 689 0 689>
LayerCount: 2
Fore
SplineSet
411 782 m 0x9b
 358 782 331 830 295 830 c 0
 272 830 258 814 242 784 c 1
 186 812 l 1
 209 861 245 900 295 900 c 0x97
 351 900 374 852 411 852 c 0
 431 852 446 866 464 896 c 1
 520 868 l 1
 494 811 456 782 411 782 c 0x9b
583 689 m 1x57
 583 0 l 1
 456 0 l 1
 176 585 l 1xa7
 181 528 189 444 189 316 c 2
 189 0 l 1
 100 0 l 1
 100 689 l 1
 224 689 l 1
 507 103 l 1
 505 119 494 229 494 313 c 2
 494 689 l 1
 583 689 l 1x57
EndSplineSet
EndChar
StartChar: uni00DD
Encoding: 221 221 156
Width: 550
Flags: W
HStem: 0 21G<227 323 227 227> 669 20G<5 110 110 110 446 545 545 545>
VStem: 227 96<0 264 264 264>
LayerCount: 2
Fore
SplineSet
355 911 m 1
 395 834 l 1
 179 755 l 1
 155 804 l 1
 355 911 l 1
545 689 m 1
 323 265 l 1
 323 0 l 1
 227 0 l 1
 227 264 l 1
 5 689 l 1
 110 689 l 1
 278 348 l 1
 446 689 l 1
 545 689 l 1
EndSplineSet
EndChar
StartChar: uni0115
Encoding: 277 277 212
Width: 544
Flags: W
HStem: -12 75<259 323 259 326.5> 232 68<155 402 155 491 155 402> 466 73<243 319.5> 643 70<253.5 300.5 253.5 317.5>
VStem: 57 98<232 232 232 300 232 340> 402 91<300 306 306 357.5>
LayerCount: 2
Fore
SplineSet
277 643 m 0
 197 643 135 692 127 776 c 1
 188 789 l 1
 202 739 230 713 277 713 c 0
 324 713 355 739 369 789 c 1
 430 776 l 1
 422 692 358 643 277 643 c 0
493 279 m 0
 493 261 492 244 491 232 c 1
 155 232 l 1
 164 110 221 63 297 63 c 0
 349 63 388 77 434 109 c 1
 474 54 l 1
 422 13 363 -12 290 -12 c 0
 143 -12 57 91 57 258 c 0
 57 422 140 539 276 539 c 0
 418 539 493 440 493 279 c 0
402 300 m 1
 402 306 l 2
 402 409 361 466 278 466 c 0
 208 466 162 417 155 300 c 1
 402 300 l 1
EndSplineSet
EndChar
StartChar: uni0133
Encoding: 307 307 242
Width: 562
Flags: W
HStem: -212 21G<300 300> 0 21G<95 187 95 95> 507 20G<95 187 187 187 375 467 467 467> 655 125<121 159.5 402 440.5>
VStem: 76 129<699.5 735> 95 92<0 527 0 527> 357 129<699.5 735> 375 92<26 32 32 527>
LayerCount: 2
Fore
SplineSet
140 780 m 0xfa
 179 780 205 753 205 717 c 0
 205 682 179 655 140 655 c 0
 102 655 76 682 76 717 c 0
 76 753 102 780 140 780 c 0xfa
421 780 m 0
 460 780 486 753 486 717 c 0
 486 682 460 655 421 655 c 0
 383 655 357 682 357 717 c 0
 357 753 383 780 421 780 c 0
187 527 m 1xf5
 187 0 l 1
 95 0 l 1
 95 527 l 1
 187 527 l 1xf5
467 527 m 1
 467 32 l 2
 467 -117 412 -162 300 -212 c 1
 273 -145 l 1
 342 -113 375 -87 375 26 c 2
 375 527 l 1
 467 527 l 1
EndSplineSet
EndChar
StartChar: uni013C
Encoding: 316 316 251
Width: 294
Flags: W
HStem: -12 76<199 209.5> 719 20G<86 86> 730 20G<178 178>
VStem: 86 92<104 106 106 739 739 739> 119 115<-141.5 -117 -141.5 -117>
LayerCount: 2
Fore
SplineSet
196 -12 m 0xb0
 129 -12 86 29 86 104 c 2
 86 739 l 1xd0
 178 750 l 1
 178 106 l 2
 178 78 187 64 211 64 c 0
 224 64 235 66 245 70 c 1
 269 6 l 1
 249 -5 223 -12 196 -12 c 0xb0
177 -77 m 0xa8
 209 -77 234 -101 234 -133 c 0
 234 -150 229 -166 208 -210 c 2
 167 -296 l 1
 114 -296 l 1
 143 -180 l 1
 129 -168 119 -152 119 -133 c 0
 119 -101 145 -77 177 -77 c 0xa8
EndSplineSet
EndChar
StartChar: uni0144
Encoding: 324 324 259
Width: 579
Flags: W
HStem: 0 21G<92 184 92 92 401 493 401 401> 467 72<305.5 343.5> 507 20G<92 171 171 171>
VStem: 92 92<0 374 0 527> 401 92<0 365 365 378 0 404.5>
LayerCount: 2
Fore
SplineSet
415 724 m 1xd8
 203 638 l 1
 175 687 l 1
 374 801 l 1
 415 724 l 1xd8
340 539 m 0
 437 539 493 478 493 378 c 2
 493 0 l 1
 401 0 l 1
 401 365 l 2
 401 444 369 467 318 467 c 0
 259 467 219 430 184 374 c 1xd8
 184 0 l 1
 92 0 l 1
 92 527 l 1
 171 527 l 1xb8
 179 449 l 1
 215 503 271 539 340 539 c 0
EndSplineSet
EndChar
StartChar: uni0153
Encoding: 339 339 274
Width: 915
Flags: W
HStem: -12 74<248 335.5> 232 68<526 773 526 862 526 773> 465 74<249 336.5>
VStem: 57 99<194.5 332 194.5 344.5> 428 98<232 232 232 300 232 332.5> 773 91<300 306 306 357.5>
LayerCount: 2
Fore
SplineSet
864 279 m 0
 864 261 863 244 862 232 c 1
 526 232 l 1
 535 110 592 63 668 63 c 0
 720 63 759 77 805 109 c 1
 845 54 l 1
 793 13 734 -12 661 -12 c 0
 573 -12 514 28 476 97 c 1
 438 30 379 -12 292 -12 c 0
 142 -12 57 96 57 263 c 0
 57 426 143 539 293 539 c 0
 382 539 441 500 478 433 c 1
 515 499 571 539 652 539 c 0
 789 539 864 440 864 279 c 0
773 300 m 1
 773 306 l 2
 773 409 732 466 654 466 c 0
 579 466 533 417 526 300 c 1
 773 300 l 1
292 62 m 0
 380 62 428 126 428 264 c 0
 428 401 380 465 293 465 c 0
 205 465 156 401 156 263 c 0
 156 126 204 62 292 62 c 0
EndSplineSet
EndChar
StartChar: uni0157
Encoding: 343 343 278
Width: 383
Flags: W
HStem: 0 21G<92 184 92 92> 449 90<289 319.5> 507 20G<92 171 171 171> 513 20G<373 373>
VStem: 83 115<-141.5 -117 -141.5 -117> 92 92<0 301 0 527>
LayerCount: 2
Fore
SplineSet
321 539 m 0xc4
 338 539 357 537 373 533 c 1x94
 356 443 l 1
 340 447 329 449 310 449 c 0xc4
 244 449 206 402 184 301 c 1
 184 0 l 1
 92 0 l 1
 92 527 l 1
 171 527 l 1xa4
 180 420 l 1
 208 499 257 539 321 539 c 0xc4
141 -77 m 0xc8
 173 -77 198 -101 198 -133 c 0
 198 -150 193 -166 172 -210 c 2
 131 -296 l 1
 78 -296 l 1
 107 -180 l 1
 93 -168 83 -152 83 -133 c 0
 83 -101 109 -77 141 -77 c 0xc8
EndSplineSet
EndChar
StartChar: uni015C
Encoding: 348 348 283
Width: 545
Flags: W
HStem: -12 78<220.5 298.5 220.5 336.5> 623 78<239.5 302.5>
VStem: 53 97<496 558 496 574> 406 99<147.5 222.5>
LayerCount: 2
Fore
SplineSet
149 759 m 1
 109 804 l 1
 245 914 l 1
 306 914 l 1
 441 804 l 1
 402 759 l 1
 275 840 l 1
 149 759 l 1
270 701 m 0
 365 701 425 673 483 621 c 1
 431 563 l 1
 379 605 331 623 274 623 c 0
 205 623 150 591 150 525 c 0
 150 467 177 439 301 401 c 0
 411 367 505 324 505 192 c 0
 505 72 414 -12 259 -12 c 0
 160 -12 82 21 25 77 c 1
 77 135 l 1
 129 93 183 66 258 66 c 0
 339 66 406 106 406 189 c 0
 406 256 374 286 257 322 c 0
 123 363 53 414 53 521 c 0
 53 627 143 701 270 701 c 0
EndSplineSet
EndChar
StartChar: uni0161
Encoding: 353 353 288
Width: 467
Flags: W
HStem: -12 74<193.5 256.5 193.5 277.5> 466 73<211 265.5> 627 74<245 245 245 276 215 245> 681 20G<245 245> 720 20G<79 79 411 411>
VStem: 48 96<375.5 418 375.5 436> 335 97<117 168>
LayerCount: 2
Fore
SplineSet
372 785 m 1xde
 411 740 l 1
 276 627 l 1
 215 627 l 1xee
 79 740 l 1
 119 785 l 1
 245 701 l 1
 372 785 l 1xde
238 539 m 0
 312 539 367 517 417 479 c 1
 378 421 l 1
 331 451 290 466 241 466 c 0
 181 466 144 439 144 397 c 0
 144 354 172 334 257 312 c 0
 368 284 432 240 432 148 c 0
 432 38 331 -12 224 -12 c 0
 135 -12 71 17 25 57 c 1
 74 113 l 1
 116 81 165 62 222 62 c 0
 291 62 335 92 335 142 c 0
 335 194 309 214 207 241 c 0
 93 271 48 320 48 394 c 0
 48 478 129 539 238 539 c 0
EndSplineSet
EndChar
StartChar: uni0179
Encoding: 377 377 312
Width: 522
Flags: W
HStem: 0 81<136 466> 609 80<66 374 66 477>
VStem: 30 447<0 81 76 81>
LayerCount: 2
Fore
SplineSet
352 911 m 1
 392 834 l 1
 176 755 l 1
 152 804 l 1
 352 911 l 1
477 689 m 1
 477 612 l 1
 136 81 l 1
 477 81 l 1
 466 0 l 1
 30 0 l 1
 30 76 l 1
 374 609 l 1
 66 609 l 1
 66 689 l 1
 477 689 l 1
EndSplineSet
EndChar
StartChar: uni0180
Encoding: 384 384 319
Width: 592
Flags: W
HStem: -12 73<299 344.5 282.5 392> 0 21G<98 179 98 98> 466 73<307 350> 606 70<22 98 22 98 190 341> 719 20G<98 98> 730 20G<190 190>
VStem: 98 92<132 384 461 606 676 739 739 739> 436 99<192 339>
LayerCount: 2
Fore
SplineSet
339 539 m 0xb7
 458 539 535 440 535 264 c 0
 535 99 456 -12 328 -12 c 0
 270 -12 224 14 188 58 c 1xb7
 179 0 l 1
 98 0 l 1
 98 606 l 1
 22 606 l 1
 22 676 l 1
 98 676 l 1
 98 739 l 1x7b
 190 750 l 1
 190 676 l 1
 341 676 l 1
 341 606 l 1
 190 606 l 1
 190 461 l 1
 226 510 275 539 339 539 c 0xb7
306 61 m 0
 383 61 436 120 436 264 c 0
 436 414 387 466 313 466 c 0
 255 466 217 426 190 384 c 1
 190 132 l 1
 217 90 259 61 306 61 c 0
EndSplineSet
EndChar
StartChar: uni0187
Encoding: 391 391 326
Width: 560
Flags: W
HStem: -12 80<292.5 378.5 292.5 389.5> 623 78<295 360.5 263 371> 758 74<576.5 612.5>
VStem: 55 101<245.5 449 245.5 461.5> 440 92<683 683>
LayerCount: 2
Fore
SplineSet
591 832 m 0
 644 832 681 813 706 794 c 1
 670 735 l 1
 647 749 629 758 596 758 c 0
 557 758 532 737 532 684 c 2
 532 633 l 1
 488 581 l 1
 442 608 395 623 347 623 c 0
 243 623 156 553 156 345 c 0
 156 146 239 68 346 68 c 0
 411 68 453 97 492 126 c 1
 540 65 l 1
 503 26 436 -12 343 -12 c 0
 176 -12 55 113 55 345 c 0
 55 578 185 701 341 701 c 0
 380 701 413 694 440 683 c 1
 442 778 497 832 591 832 c 0
EndSplineSet
EndChar
StartChar: uni018F
Encoding: 399 399 334
Width: 649
Flags: W
HStem: -12 76<262 366 262 397> 310 76<139 495 139 139> 623 78<275 366.5>
VStem: 45 94<310 310 310 341.5> 495 99<310 310 386 386>
LayerCount: 2
Fore
SplineSet
315 701 m 0
 486 701 594 590 594 356 c 0
 594 103 476 -12 318 -12 c 0
 141 -12 45 111 45 335 c 0
 45 348 46 368 48 386 c 1
 495 386 l 1
 489 557 422 623 311 623 c 0
 239 623 181 595 132 558 c 1
 84 616 l 1
 149 672 222 701 315 701 c 0
314 64 m 0
 418 64 486 133 495 310 c 1
 139 310 l 1
 142 134 210 64 314 64 c 0
EndSplineSet
EndChar
StartChar: uni0192
Encoding: 402 402 337
Width: 341
Flags: W
HStem: -212 21G<35 35> 456 71<26 110 26 110 202 320> 676 74<251 293.5>
VStem: 110 92<26 32 32 456 527 599 599 600>
LayerCount: 2
Fore
SplineSet
280 676 m 0
 222 676 202 651 202 600 c 2
 202 527 l 1
 330 527 l 1
 320 456 l 1
 202 456 l 1
 202 32 l 2
 202 -117 147 -162 35 -212 c 1
 8 -145 l 1
 77 -113 110 -87 110 26 c 2
 110 456 l 1
 26 456 l 1
 26 527 l 1
 110 527 l 1
 110 599 l 2
 110 687 168 750 275 750 c 0
 325 750 359 741 401 723 c 1
 372 656 l 1
 338 671 307 676 280 676 c 0
EndSplineSet
EndChar
StartChar: uni019E
Encoding: 414 414 349
Width: 582
Flags: W
HStem: -213 21G<496 496> -202 21G<404 404> 0 21G<92 184 92 92 401 404 401 401> 467 72<305.5 343.5> 507 20G<92 171 171 171>
VStem: 92 92<0 374 0 527> 401 92<1 1 1 365 365 378>
LayerCount: 2
Fore
SplineSet
493 1 m 1x76
 496 1 l 1x76
 496 -213 l 1xb6
 404 -202 l 1
 404 0 l 1
 401 0 l 1
 401 365 l 2
 401 444 369 467 318 467 c 0
 259 467 219 430 184 374 c 1x76
 184 0 l 1
 92 0 l 1
 92 527 l 1
 171 527 l 1x6e
 179 449 l 1
 215 503 271 539 340 539 c 0
 437 539 493 478 493 378 c 2
 493 1 l 1x76
EndSplineSet
EndChar
StartChar: uni01AF
Encoding: 431 431 366
Width: 676
Flags: W
HStem: -12 80<281 379.5 281 407.5> 583 106<572 572>
VStem: 90 95<221 228 228 689> 476 96<228 583 636 689> 619 77<673 703>
LayerCount: 2
Fore
SplineSet
677 773 m 1
 688 754 696 727 696 691 c 0
 696 622 652 586 572 583 c 1
 572 221 l 2
 572 84 485 -12 330 -12 c 0
 173 -12 90 84 90 221 c 2
 90 689 l 1
 185 689 l 1
 185 228 l 2
 185 121 232 68 330 68 c 0
 429 68 476 121 476 228 c 2
 476 689 l 1
 572 689 l 1
 572 636 l 1
 604 642 619 660 619 686 c 0
 619 720 613 738 605 758 c 1
 677 773 l 1
EndSplineSet
EndChar
StartChar: uni01BD
Encoding: 445 445 380
Width: 452
Flags: W
HStem: -12 79<176.5 236 176.5 269> 271 75<225 247> 451 76<157 365 157 157>
VStem: 66 91<326 451 326 527 326 527> 313 99<138.5 209>
LayerCount: 2
Fore
SplineSet
381 527 m 1
 365 451 l 1
 157 451 l 1
 157 326 l 1
 178 336 202 346 248 346 c 0
 341 346 412 278 412 172 c 0
 412 63 332 -12 206 -12 c 0
 126 -12 75 16 30 59 c 1
 80 114 l 1
 120 83 148 67 205 67 c 0
 267 67 313 103 313 174 c 0
 313 244 272 271 222 271 c 0
 183 271 164 265 131 250 c 1
 66 250 l 1
 66 527 l 1
 381 527 l 1
EndSplineSet
EndChar
StartChar: uni01D8
Encoding: 472 472 407
Width: 575
Flags: W
HStem: -12 72<230.5 270.5> 0 21G<404 483 404 404> 507 20G<86 178 178 178 391 483 483 483> 624 114<163.5 196 373 405.5> 728 20G<249 249>
VStem: 86 92<149 159 159 527> 122 115<665 697> 332 115<665 697> 391 92<151 527 0 527>
LayerCount: 2
Fore
SplineSet
367 893 m 1xac80
 423 839 l 1
 287 713 l 1
 249 748 l 1
 367 893 l 1xac80
180 738 m 0xb3
 212 738 237 713 237 681 c 0
 237 649 212 624 180 624 c 0
 147 624 122 649 122 681 c 0
 122 713 147 738 180 738 c 0xb3
389 738 m 0
 422 738 447 713 447 681 c 0
 447 649 422 624 389 624 c 0
 357 624 332 649 332 681 c 0
 332 713 357 738 389 738 c 0
483 527 m 1xac80
 483 0 l 1
 404 0 l 1x6c80
 397 82 l 1
 357 18 308 -12 233 -12 c 0
 141 -12 86 46 86 149 c 2
 86 527 l 1
 178 527 l 1
 178 159 l 2
 178 87 202 60 259 60 c 0
 316 60 359 98 391 151 c 1
 391 527 l 1
 483 527 l 1xac80
EndSplineSet
EndChar
StartChar: uni0207
Encoding: 519 519 454
Width: 544
Flags: W
HStem: -12 75<259 323 259 326.5> 232 68<155 402 155 491 155 402> 466 73<243 319.5> 690 70<253.5 300.5>
VStem: 57 98<232 232 232 300 232 340> 402 91<300 306 306 357.5>
LayerCount: 2
Fore
SplineSet
277 690 m 0
 230 690 202 664 188 614 c 1
 127 627 l 1
 135 711 197 760 277 760 c 0
 358 760 422 711 430 627 c 1
 369 614 l 1
 355 664 324 690 277 690 c 0
493 279 m 0
 493 261 492 244 491 232 c 1
 155 232 l 1
 164 110 221 63 297 63 c 0
 349 63 388 77 434 109 c 1
 474 54 l 1
 422 13 363 -12 290 -12 c 0
 143 -12 57 91 57 258 c 0
 57 422 140 539 276 539 c 0
 418 539 493 440 493 279 c 0
402 300 m 1
 402 306 l 2
 402 409 361 466 278 466 c 0
 208 466 162 417 155 300 c 1
 402 300 l 1
EndSplineSet
EndChar
StartChar: uni020A
Encoding: 522 522 457
Width: 295
Flags: W
HStem: 0 21G<100 195 100 100> 669 20G<100 195 195 195> 852 70<121.5 168.5>
VStem: 100 95<0 689 0 689>
LayerCount: 2
Fore
SplineSet
145 922 m 0
 226 922 290 873 298 789 c 1
 237 776 l 1
 223 826 192 852 145 852 c 0
 98 852 70 826 56 776 c 1
 -5 789 l 1
 3 873 65 922 145 922 c 0
195 689 m 1
 195 0 l 1
 100 0 l 1
 100 689 l 1
 195 689 l 1
EndSplineSet
EndChar
StartChar: uni0211
Encoding: 529 529 464
Width: 383
Flags: W
HStem: 0 21G<92 184 92 92> 449 90<289 319.5> 507 20G<92 171 171 171> 513 20G<373 373>
VStem: 92 92<0 301 0 527>
LayerCount: 2
Fore
SplineSet
206 659 m 1xc8
 148 634 l 1
 42 791 l 1
 120 832 l 1
 206 659 l 1xc8
348 664 m 1
 290 639 l 1
 194 791 l 1
 272 832 l 1
 348 664 l 1
321 539 m 0
 338 539 357 537 373 533 c 1x98
 356 443 l 1
 340 447 329 449 310 449 c 0xc8
 244 449 206 402 184 301 c 1
 184 0 l 1
 92 0 l 1
 92 527 l 1
 171 527 l 1xa8
 180 420 l 1
 208 499 257 539 321 539 c 0
EndSplineSet
EndChar
StartChar: uni0229
Encoding: 553 553 488
Width: 544
Flags: W
HStem: -241 60<270 297 270 320> -99 43<244 317> -11 74<317 317> 232 68<155 402 155 491 155 402> 466 73<243 319.5>
VStem: 57 98<232 232 232 300 232 340> 249.5 67.5 333 77<-155.5 -127.5> 402 91<300 306 306 357.5>
LayerCount: 2
Fore
SplineSet
493 279 m 0xfe80
 493 261 492 244 491 232 c 1
 155 232 l 1
 164 110 221 63 297 63 c 0
 349 63 388 77 434 109 c 1
 474 54 l 1
 429 18 378 -5 317 -11 c 1
 317 -56 l 1xfe80
 385 -62 410 -100 410 -141 c 0
 410 -207 354 -241 286 -241 c 0
 248 -241 215 -232 195 -217 c 1
 220 -165 l 1
 239 -175 257 -181 283 -181 c 0
 311 -181 333 -170 333 -141 c 0xff
 333 -114 308 -99 244 -99 c 1
 255 -10 l 1
 129 5 57 105 57 258 c 0
 57 422 140 539 276 539 c 0
 418 539 493 440 493 279 c 0xfe80
402 300 m 1
 402 306 l 2
 402 409 361 466 278 466 c 0
 208 466 162 417 155 300 c 1
 402 300 l 1
EndSplineSet
EndChar
StartChar: uni0230
Encoding: 560 560 495
Width: 692
Flags: W
HStem: -12 78<290 404 290 432.5> 623 78<288.5 405> 741 125<329 367.5> 904 69<214 487 214 487>
VStem: 55 101<243.5 442.5 243.5 456.5> 214 273<904 973 904 973> 284 129<785.5 821> 536 101<244 443>
LayerCount: 2
Fore
SplineSet
487 904 m 1xdd
 214 904 l 1
 214 973 l 1
 487 973 l 1
 487 904 l 1xdd
348 866 m 0xfb
 387 866 413 839 413 803 c 0
 413 768 387 741 348 741 c 0
 310 741 284 768 284 803 c 0
 284 839 310 866 348 866 c 0xfb
346 701 m 0
 519 701 637 576 637 344 c 0
 637 116 519 -12 346 -12 c 0
 174 -12 55 112 55 343 c 0
 55 570 174 701 346 701 c 0
346 623 m 0
 231 623 156 542 156 343 c 0
 156 144 234 66 346 66 c 0
 462 66 536 144 536 344 c 0
 536 542 464 623 346 623 c 0
EndSplineSet
EndChar
StartChar: uni024F
Encoding: 591 591 526
Width: 502
Flags: W
HStem: -213 21G<66 66> 0 21G<192 223 192 192> 321 66<17 62 17 84 17 62 176 176 176 330 441 484> 321 206<17 84 17 17 15 176 15 330 419 484 419 419>
VStem: 15 472<527 527>
LayerCount: 2
Fore
SplineSet
487 527 m 1xd8
 441 387 l 1
 484 387 l 1
 484 321 l 1
 419 321 l 1
 311 -3 l 2
 274 -115 212 -197 66 -213 c 1
 56 -141 l 1
 163 -123 193 -82 223 0 c 1
 192 0 l 1
 84 321 l 1
 17 321 l 1
 17 387 l 1
 62 387 l 1xe8
 15 527 l 1
 113 527 l 1xd8
 156 387 l 1
 350 387 l 1xe8
 392 527 l 1
 487 527 l 1xd8
254 67 m 1
 330 321 l 1
 176 321 l 1
 254 67 l 1
EndSplineSet
EndChar
StartChar: uni0316
Encoding: 790 790 545
Width: 0
Flags: W
TopAccentHorizontal: -150
HStem: -205 21G<-54 -54>
VStem: -270 240<-156 -126>
LayerCount: 2
Fore
SplineSet
-231 -49 m 1
 -30 -156 l 1
 -54 -205 l 1
 -270 -126 l 1
 -231 -49 l 1
EndSplineSet
EndChar
StartChar: uni0335
Encoding: 821 821 573
Width: 0
Flags: W
TopAccentHorizontal: -202
HStem: 274 78<-343 -60 -343 -60>
VStem: -343 283<274 352 274 352>
LayerCount: 2
Fore
SplineSet
-343 274 m 1
 -343 352 l 1
 -60 352 l 1
 -60 274 l 1
 -343 274 l 1
EndSplineSet
EndChar
StartChar: uni0338
Encoding: 824 824 576
Width: 0
Flags: W
TopAccentHorizontal: -311
LayerCount: 2
Fore
SplineSet
-426 14 m 1
 -484 48 l 1
 -196 546 l 1
 -138 512 l 1
 -426 14 l 1
EndSplineSet
EndChar
StartChar: uni033A
Encoding: 826 826 578
Width: 0
Flags: W
TopAccentHorizontal: -170
HStem: -240 59<-247 -93 -247 -30>
VStem: -310 63<-181 -91 -181 -91 -181 -91> -93 63<-181 -91 -240 -91>
LayerCount: 2
Fore
SplineSet
-310 -91 m 1
 -247 -91 l 1
 -247 -181 l 1
 -93 -181 l 1
 -93 -91 l 1
 -30 -91 l 1
 -30 -240 l 1
 -310 -240 l 1
 -310 -91 l 1
EndSplineSet
EndChar
StartChar: uni033C
Encoding: 828 828 580
Width: 0
Flags: W
TopAccentHorizontal: -221
HStem: -196 59 -130 70<-328 -296.5 -148 -116.5>
VStem: -412 44<-196 -193> -255 67<-196 -196> -76 46<-196 -193>
LayerCount: 2
Fore
SplineSet
-132 -60 m 0
 -78 -60 -36 -109 -30 -193 c 1
 -76 -196 l 1
 -80 -156 -101 -130 -132 -130 c 0x78
 -164 -130 -182 -156 -188 -196 c 1xb8
 -255 -196 l 1
 -260 -156 -281 -130 -312 -130 c 0
 -344 -130 -362 -156 -368 -196 c 1
 -412 -193 l 1
 -407 -109 -366 -60 -312 -60 c 0
 -272 -60 -238 -87 -221 -137 c 1
 -205 -87 -172 -60 -132 -60 c 0
EndSplineSet
EndChar
StartChar: uni035C
Encoding: 860 860 584
Width: 0
Flags: W
TopAccentHorizontal: 0
HStem: -212 96<-57 57.5 -57 68.5>
VStem: -335 670<-81 -80>
LayerCount: 2
Fore
SplineSet
335 -81 m 1
 246 -154 137 -212 0 -212 c 0
 -137 -212 -246 -154 -335 -80 c 1
 -295 -27 l 1
 -202 -88 -114 -116 0 -116 c 0
 115 -116 202 -88 295 -27 c 1
 335 -81 l 1
EndSplineSet
EndChar
StartChar: uni0361
Encoding: 865 865 585
Width: 0
Flags: W
TopAccentHorizontal: -1
HStem: 698 96<-58 56.5>
VStem: -336 670<662 663>
LayerCount: 2
Fore
SplineSet
334 663 m 1
 294 609 l 1
 201 670 114 698 -1 698 c 0
 -115 698 -203 670 -296 609 c 1
 -336 662 l 1
 -247 736 -138 794 -1 794 c 0
 136 794 245 736 334 663 c 1
EndSplineSet
EndChar
StartChar: uni03B5
Encoding: 949 949 614
Width: 468
Flags: W
TopAccentHorizontal: 263
HStem: -12 74<232.5 297 232.5 300.5> 239 72<229 338 277 327> 467 72<240 296.5>
VStem: 57 99<125 182 125 190> 78 95<364.5 413.5 364.5 439.5>
LayerCount: 2
Fore
SplineSet
263 539 m 0xf0
 337 539 389 521 434 490 c 1
 390 435 l 1
 354 456 321 467 272 467 c 0
 208 467 173 439 173 388 c 0xe8
 173 341 213 311 277 311 c 2
 338 311 l 1
 327 239 l 1
 271 239 l 2
 187 239 156 213 156 151 c 0
 156 99 196 62 269 62 c 0
 325 62 368 79 410 108 c 1
 453 50 l 1
 404 11 337 -12 264 -12 c 0
 141 -12 57 45 57 147 c 0xf0
 57 233 110 271 189 281 c 1
 118 295 78 331 78 395 c 0xe8
 78 484 151 539 263 539 c 0xf0
EndSplineSet
EndChar
StartChar: uni200F
Encoding: 8207 8207 653
Width: 0
Flags: W
HStem: 730 20G<-128 -128> 742 16<-103 -8 -103 8>
VStem: -8 16<-150 742 742 742>
LayerCount: 2
Fore
SplineSet
-73 822 m 1xa0
 -60 813 l 1xa0
 -103 758 l 1
 8 758 l 1
 8 -150 l 1
 -8 -150 l 1
 -8 742 l 1
 -103 742 l 1
 -60 687 l 1
 -73 678 l 1x60
 -128 750 l 1
 -73 822 l 1xa0
EndSplineSet
EndChar
StartChar: uni2033
Encoding: 8243 8243 673
Width: 454
Flags: W
HStem: 427 262
LayerCount: 2
Fore
SplineSet
60 427 m 1
 145 689 l 1
 244 689 l 1
 129 427 l 1
 60 427 l 1
210 427 m 1
 295 689 l 1
 394 689 l 1
 279 427 l 1
 210 427 l 1
EndSplineSet
EndChar
StartChar: uni20D3
Encoding: 8403 8403 683
Width: 0
Flags: W
TopAccentHorizontal: -200
VStem: -232 63<-182 450>
LayerCount: 2
Fore
SplineSet
-169 450 m 1
 -169 -182 l 1
 -232 -182 l 1
 -232 450 l 1
 -169 450 l 1
EndSplineSet
EndChar
StartChar: uni20E8
Encoding: 8424 8424 690
Width: 0
Flags: W
TopAccentHorizontal: -288
HStem: -192 114<-533.312 -442.381 -332.928 -241.997 -133.003 -42.0719>
VStem: -545 115<-179.152 -90.8481> -345 115<-180.003 -89.9969> -145 115<-180.003 -89.9969>
CounterMasks: 1 70
LayerCount: 2
Fore
SplineSet
-488 -78 m 0
 -456 -78 -430 -103 -430 -135 c 0
 -430 -167 -456 -192 -488 -192 c 0
 -521 -192 -545 -167 -545 -135 c 0
 -545 -103 -521 -78 -488 -78 c 0
-287 -78 m 0
 -255 -78 -230 -103 -230 -135 c 0
 -230 -167 -255 -192 -287 -192 c 0
 -320 -192 -345 -167 -345 -135 c 0
 -345 -103 -320 -78 -287 -78 c 0
-88 -78 m 0
 -55 -78 -30 -103 -30 -135 c 0
 -30 -167 -55 -192 -88 -192 c 0
 -120 -192 -145 -167 -145 -135 c 0
 -145 -103 -120 -78 -88 -78 c 0
EndSplineSet
EndChar
StartChar: uni210A
Encoding: 8458 8458 698
Width: 598
Flags: W
TopAccentHorizontal: 282
HStem: -213 74<246 325.5 246 355> 8 73<243 293> 466 73<249.5 302 204.5 315> 507 20G<424 503 503 503>
VStem: 62 99<208.5 336.5 208.5 346.5> 411 92<-5 3 3 90 90 90 159 397 397 397>
LayerCount: 2
Fore
SplineSet
424 527 m 1xdc
 503 527 l 1xdc
 503 3 l 2
 503 -137 430 -213 280 -213 c 0
 198 -213 145 -189 115 -169 c 1
 146 -107 l 1
 177 -123 217 -139 275 -139 c 0
 376 -139 411 -98 411 -5 c 2
 411 90 l 1
 377 39 325 8 261 8 c 0
 133 8 62 117 62 271 c 0
 62 422 140 539 269 539 c 0
 335 539 382 507 418 467 c 1xec
 424 527 l 1xdc
281 81 m 0
 340 81 376 110 411 159 c 1
 411 397 l 1
 378 439 341 466 289 466 c 0xec
 210 466 161 400 161 273 c 0
 161 144 205 81 281 81 c 0
EndSplineSet
EndChar
StartChar: uni2138
Encoding: 8504 8504 718
Width: 483
Flags: W
HStem: 0 21G<246 338 246 246> 482 82<15 285 15 453 346 441 346 346>
VStem: 246 92<0 294 0 300 0 348>
LayerCount: 2
Fore
SplineSet
453 564 m 1
 441 482 l 1
 346 482 l 1
 340 445 338 394 338 294 c 2
 338 0 l 1
 246 0 l 1
 246 300 l 2
 246 396 260 441 285 482 c 1
 15 482 l 1
 15 564 l 1
 453 564 l 1
EndSplineSet
EndChar
StartChar: uni215A
Encoding: 8538 8538 726
Width: 932
Flags: W
HStem: -9 58<710 759 710 779> 221 57<741.5 761> 263 61<167.5 211 167.5 236.5> 367 57<729 769.5> 471 56<81 156> 486 56<212 216.5> 507 20G<156 156> 631 58<156 321 156 156> 730 20G<640 640>
VStem: 81 75<527 631 527 689 527 689> 268 80<380.5 437> 581 80 805 78<112.5 170>
LayerCount: 2
Fore
SplineSet
640 750 m 1xb3f8
 699 721 l 1
 293 -78 l 1
 233 -49 l 1
 640 750 l 1xb3f8
348 408 m 0
 348 322 285 263 188 263 c 0
 128 263 86 286 52 321 c 1
 98 364 l 1
 122 338 149 324 186 324 c 0
 236 324 268 353 268 408 c 0
 268 466 237 486 196 486 c 0xb5f8
 175 486 158 481 138 471 c 1
 81 471 l 1xb9f8
 81 689 l 1
 331 689 l 1
 321 631 l 1
 156 631 l 1
 156 527 l 1xb3f8
 178 537 201 542 223 542 c 0xb5f8
 296 542 348 492 348 408 c 0
761 278 m 0xd3f8
 828 278 883 231 883 142 c 0
 883 54 822 -9 736 -9 c 0
 625 -9 581 73 581 193 c 0
 581 332 647 424 757 424 c 0
 795 424 826 414 851 398 c 1
 822 349 l 1
 802 360 781 367 758 367 c 0
 700 367 665 315 660 231 c 1
 689 264 722 278 761 278 c 0xd3f8
736 49 m 0
 782 49 805 85 805 140 c 0
 805 200 780 221 742 221 c 0
 710 221 682 204 661 176 c 1
 663 87 684 49 736 49 c 0
EndSplineSet
EndChar
StartChar: uni219A
Encoding: 8602 8602 742
Width: 1040
Flags: W
HStem: 240 80<280 563.598 696.402 920>
LayerCount: 2
Fore
SplineSet
350 492 m 1
 404 432 l 1
 280 320 l 1
 608.888888889 320 l 1
 704 488 l 1
 770 450 l 1
 696.402116402 320 l 1
 920 320 l 1
 920 240 l 1
 651.111111111 240 l 1
 556 72 l 1
 490 110 l 1
 563.597883598 240 l 1
 280 240 l 1
 404 128 l 1
 350 68 l 1
 120 280 l 1
 350 492 l 1
EndSplineSet
EndChar
StartChar: uni219B
Encoding: 8603 8603 743
Width: 1040
Flags: W
HStem: 240 80<120 343.598 476.402 760>
LayerCount: 2
Fore
SplineSet
690 492 m 1
 920 280 l 1
 690 68 l 1
 636 128 l 1
 760 240 l 1
 431.111111111 240 l 1
 336 72 l 1
 270 110 l 1
 343.597883598 240 l 1
 120 240 l 1
 120 320 l 1
 388.888888889 320 l 1
 484 488 l 1
 550 450 l 1
 476.402116402 320 l 1
 760 320 l 1
 636 432 l 1
 690 492 l 1
EndSplineSet
EndChar
StartChar: uni21BE
Encoding: 8638 8638 755
Width: 664
Flags: W
LayerCount: 2
Fore
SplineSet
292 666 m 1
 292 -120 l 1
 372 -120 l 1
 372 520 l 1
 484 396 l 1
 544 450 l 1
 323 690 l 25
 292 666 l 1
EndSplineSet
EndChar
StartChar: uni21C1
Encoding: 8641 8641 758
Width: 1040
Flags: W
LayerCount: 2
Fore
SplineSet
906 320 m 1
 120 320 l 1
 120 240 l 1
 760 240 l 1
 636 128 l 1
 690 68 l 1
 930 289 l 25
 906 320 l 1
EndSplineSet
EndChar
StartChar: uni21C4
Encoding: 8644 8644 761
Width: 1060
Flags: W
HStem: 420 80<140 780>
LayerCount: 2
Fore
SplineSet
350 312 m 1
 120 100 l 1
 350 -112 l 1
 404 -52 l 1
 280 60 l 1
 920 60 l 1
 920 140 l 1
 280 140 l 1
 404 252 l 1
 350 312 l 1
710 672 m 1
 940 460 l 1
 710 248 l 1
 656 308 l 1
 780 420 l 1
 140 420 l 1
 140 500 l 1
 780 500 l 1
 656 612 l 1
 710 672 l 1
EndSplineSet
EndChar
StartChar: uni2202
Encoding: 8706 8706 788
Width: 510
Flags: W
TopAccentHorizontal: 245
HStem: -12 73<175.493 307.993> 355 72<171.185 301.748> 634 67<121.806 155.656>
VStem: 30 93<119.788 304.328> 366 94<132.214 297.036>
LayerCount: 2
Fore
SplineSet
124 701 m 1
 355 635 460 516 460 261 c 0
 460 100 377 -12 242 -12 c 0
 128 -12 30 66 30 211 c 0
 30 343 115 427 220 427 c 0
 284 427 333 393 364 349 c 1
 356 491 264 587 103 634 c 1
 124 701 l 1
243 61 m 0
 322 61 366 124 366 262 c 1
 338 321 294 355 234 355 c 0
 173 355 123 309 123 215 c 0
 123 115 171 61 243 61 c 0
EndSplineSet
EndChar
StartChar: uni2204
Encoding: 8708 8708 790
Width: 577
Flags: W
HStem: 0 76<88 179 260 413> 312 76<98 246 327 413> 614 76<88 311 392 413>
VStem: 413 76<76 312 388 614>
LayerCount: 2
Fore
SplineSet
88 0 m 1
 88 76 l 1
 196 76 l 1
 246 312 l 1
 98 312 l 1
 98 388 l 1
 262 388 l 1
 311 614 l 1
 88 614 l 1
 88 690 l 1
 327 690 l 1
 352 807 l 1
 414 795 l 1
 392 690 l 1
 489 690 l 1
 489 0 l 1
 244 0 l 1
 221 -107 l 1
 159 -95 l 1
 179 -0 l 1
 88 0 l 1
260 76 m 1
 413 76 l 1
 413 312 l 1
 311 312 l 1
 260 76 l 1
327 388 m 1
 413 388 l 1
 413 614 l 1
 375 614 l 1
 327 388 l 1
EndSplineSet
EndChar
StartChar: uni2206
Encoding: 8710 8710 791
Width: 583
Flags: W
TopAccentHorizontal: 292
HStem: 0 78<125 454 125 577> 609 80<290 290> 669 20G<232 352 352 352>
VStem: 6 571<0 0>
LayerCount: 2
Fore
SplineSet
352 689 m 1xb0
 577 0 l 1
 6 0 l 1
 232 689 l 1
 352 689 l 1xb0
290 609 m 1xd0
 125 78 l 1
 454 78 l 1
 290 609 l 1xd0
EndSplineSet
EndChar
StartChar: uni2208
Encoding: 8712 8712 794
Width: 656
Flags: W
HStem: 24 72<225.952 594> 244 72<137 594> 464 72<225.952 594>
CounterMasks: 1 e0
LayerCount: 2
Fore
SplineSet
62 280 m 0
 62 426 164 536 308 536 c 2
 594 536 l 1
 594 464 l 1
 308 464 l 2
 216 464 152 396 137 316 c 1
 594 316 l 1
 594 244 l 1
 137 244 l 1
 152 164 216 96 308 96 c 2
 594 96 l 1
 594 24 l 1
 308 24 l 2
 164 24 62 134 62 280 c 0
EndSplineSet
EndChar
StartChar: uni2209
Encoding: 8713 8713 795
Width: 656
Flags: W
HStem: 24 72<306.453 594> 244 72<137 300 404 594> 464 72<225.952 398 501 594>
CounterMasks: 1 e0
LayerCount: 2
Fore
SplineSet
62 280 m 0
 62 426 164 536 308 536 c 2
 430 536 l 1
 477 642 l 1
 536 614 l 1
 501 536 l 1
 594 536 l 1
 594 464 l 1
 469 464 l 1
 404 316 l 1
 594 316 l 1
 594 244 l 1
 372 244 l 1
 306 96 l 2
 307 96 307 96 308 96 c 2
 594 96 l 1
 594 24 l 1
 308 24 l 2
 297 24 286 25 275 26 c 1
 227 -82 l 1
 168 -54 l 1
 211 43 l 1
 120 80 62 170 62 280 c 0
137 244 m 1
 148 185 186 134 241 110 c 1
 300 244 l 1
 137 244 l 1
137 316 m 1
 332 316 l 1
 398 464 l 1
 308 464 l 2
 216 464 152 396 137 316 c 1
EndSplineSet
EndChar
StartChar: uni220B
Encoding: 8715 8715 797
Width: 656
Flags: W
HStem: 24 72<62 430.048> 244 72<62 519> 464 72<62 430.048>
CounterMasks: 1 e0
LayerCount: 2
Fore
SplineSet
62 24 m 1
 62 96 l 1
 348 96 l 2
 440 96 504 164 519 244 c 1
 62 244 l 1
 62 316 l 1
 519 316 l 1
 504 396 440 464 348 464 c 2
 62 464 l 1
 62 536 l 1
 348 536 l 2
 492 536 594 426 594 280 c 0
 594 134 492 24 348 24 c 2
 62 24 l 1
EndSplineSet
EndChar
StartChar: uni220C
Encoding: 8716 8716 1879
Width: 656
Flags: W
HStem: 24 72<62 156 259 430.048> 244 72<62 253 357 519> 464 72<62 350.795>
CounterMasks: 1 e0
LayerCount: 2
Fore
SplineSet
62 24 m 1
 62 96 l 1
 188 96 l 1
 253 244 l 1
 62 244 l 1
 62 316 l 1
 285 316 l 1
 351 464 l 2
 350 464 349 464 348 464 c 2
 62 464 l 1
 62 536 l 1
 348 536 l 2
 360 536 371 535 382 534 c 1
 430 642 l 1
 489 614 l 1
 446 517 l 1
 536 480 594 390 594 280 c 0
 594 134 492 24 348 24 c 2
 227 24 l 1
 180 -82 l 1
 121 -54 l 1
 156 24 l 1
 62 24 l 1
259 96 m 1
 348 96 l 2
 440 96 504 164 519 244 c 1
 325 244 l 1
 259 96 l 1
357 316 m 1
 519 316 l 1
 508 374 471 426 416 450 c 1
 357 316 l 1
EndSplineSet
EndChar
StartChar: uni220D
Encoding: 8717 8717 796
Width: 496
Flags: W
HStem: 80 72<62 306.594> 244 72<62 357> 408 72<62 306.594>
CounterMasks: 1 e0
LayerCount: 2
Fore
SplineSet
62 80 m 1
 62 152 l 1
 218 152 l 2
 290 152 343 178 357 244 c 1
 62 244 l 1
 62 316 l 1
 357 316 l 1
 343 382 290 408 218 408 c 2
 62 408 l 1
 62 480 l 1
 218 480 l 2
 348 480 434 416 434 280 c 0
 434 144 348 80 218 80 c 2
 62 80 l 1
EndSplineSet
EndChar
StartChar: uni2210
Encoding: 8720 8720 802
Width: 738
Flags: W
IsExtendedShape: 1
GlyphVariantsVertical: uni2210.display
HStem: -153 76<57 129 219 524 614 681>
VStem: 129 90<-77 709> 524 90<-77 709>
LayerCount: 2
Fore
SplineSet
57 -77 m 1
 129 -77 l 1
 129 709 l 1
 219 709 l 1
 219 -77 l 1
 524 -77 l 1
 524 709 l 1
 614 709 l 1
 614 -77 l 1
 681 -77 l 1
 681 -153 l 1
 57 -153 l 1
 57 -77 l 1
EndSplineSet
EndChar
StartChar: uni2211
Encoding: 8721 8721 803
Width: 687
VWidth: 1002
Flags: W
IsExtendedShape: 1
GlyphVariantsVertical: uni2211 uni2211.display
LayerCount: 2
Fore
SplineSet
57 -75 m 1
 57 -151 l 1
 630 -151 l 1
 630 -75 l 1
 164 -75 l 1
 418 251 l 1
 418 309 l 1
 164 635 l 1
 630 635 l 1
 630 711 l 1
 57 711 l 1
 57 635 l 1
 331 280 l 1
 57 -75 l 1
EndSplineSet
EndChar
StartChar: uni2213
Encoding: 8723 8723 805
Width: 500
Flags: W
HStem: 172 76<62 208 292 438> 462 76<62 438>
VStem: 208 84<22 172 248 397>
LayerCount: 2
Fore
SplineSet
62 172 m 1
 62 248 l 1
 208 248 l 1
 208 397 l 1
 292 397 l 1
 292 248 l 1
 438 248 l 1
 438 172 l 1
 292 172 l 1
 292 22 l 1
 208 22 l 1
 208 172 l 1
 62 172 l 1
62 462 m 1
 62 538 l 1
 438 538 l 1
 438 462 l 1
 62 462 l 1
EndSplineSet
EndChar
StartChar: uni2214
Encoding: 8724 8724 806
Width: 500
Flags: W
HStem: 172 76<62 208 292 438> 437 138<199.092 298.908>
VStem: 180 138<456.092 555.908> 208 84<22 172 248 397>
LayerCount: 2
Fore
SplineSet
62 172 m 1xd0
 62 248 l 1
 208 248 l 1
 208 397 l 1
 292 397 l 1
 292 248 l 1
 438 248 l 1
 438 172 l 1
 292 172 l 1
 292 22 l 1
 208 22 l 1
 208 172 l 1
 62 172 l 1xd0
180 506 m 0xe0
 180 544 211 575 249 575 c 0
 287 575 318 544 318 506 c 0
 318 468 287 437 249 437 c 0
 211 437 180 468 180 506 c 0xe0
EndSplineSet
EndChar
StartChar: uni2215
Encoding: 8725 8725 807
Width: 132
Flags: W
HStem: 730 20G<229.812 280.69>
LayerCount: 2
Fore
SplineSet
-167 -49 m 1
 240 750 l 1
 299 721 l 1
 -107 -78 l 1
 -167 -49 l 1
EndSplineSet
EndChar
StartChar: uni2217
Encoding: 8727 8727 808
Width: 511
VWidth: 731
Flags: W
LayerCount: 2
Fore
SplineSet
455 292 m 1
 302 259 l 1
 406 143 l 1
 334 90 l 1
 255 224 l 1
 177 90 l 1
 105 142 l 1
 208 259 l 1
 56 292 l 1
 83 374 l 1
 225 313 l 1
 210 470 l 1
 300 470 l 1
 285 312 l 1
 427 375 l 1
 455 292 l 1
EndSplineSet
EndChar
StartChar: uni2219
Encoding: 8729 8729 809
Width: 240
VWidth: 969
Flags: W
HStem: 210 140<69.2058 170.794>
VStem: 50 140<229.206 330.794>
LayerCount: 2
Fore
SplineSet
50 280 m 0
 50 319 81 350 120 350 c 0
 159 350 190 319 190 280 c 0
 190 241 159 210 120 210 c 0
 81 210 50 241 50 280 c 0
EndSplineSet
EndChar
StartChar: uni221A
Encoding: 8730 8730 810
Width: 649
Flags: W
IsExtendedShape: 1
GlyphVariantsVertical: uni221A uni221A.size1 uni221A.size2 uni221A.size3 uni221A.size4 uni221A.size5 uni221A.size6 uni221A.size7 uni221A.size8 uni221A.size9 uni221A.size10 uni221A.size11 uni221A.size12 uni221A.size13 uni221A.size14 uni221A.size15
GlyphCompositionVertical: 3  uni221A.bot%0,0,150,3800 uni221A.ext%1,150,150,600 uni221A.top%0,150,0,1600
HStem: 875 77<637 664>
LayerCount: 2
Fore
SplineSet
16 258 m 1
 143 284 l 1
 278 -105 l 1
 572 952 l 1
 664 952 l 1
 664 875 l 1
 637 875 l 1
 333 -200 l 1
 229 -200 l 1
 85 194 l 1
 31 182 l 1
 16 258 l 1
EndSplineSet
EndChar
StartChar: uni221B
Encoding: 8731 8731 811
Width: 693
Flags: W
IsExtendedShape: 1
GlyphVariantsVertical: uni221B uni221B.size1 uni221B.size2 uni221B.size3 uni221B.size4 uni221B.size5 uni221B.size6 uni221B.size7 uni221B.size8 uni221B.size9 uni221B.size10 uni221B.size11 uni221B.size12 uni221B.size13 uni221B.size14 uni221B.size15
GlyphCompositionVertical: 3  uni221B.bot%0,0,150,3800 uni221B.ext%1,150,150,600 uni221B.top%0,150,0,1600
HStem: 499 61<173.057 300.814> 698 56<216 295.719> 873 59<176.953 298.253> 875 77<681 708>
VStem: 311 77<769.444 860.505> 321 81<579.469 682.913>
LayerCount: 2
Fore
SplineSet
60 258 m 1xd0
 187 284 l 1
 322 -105 l 1
 616 952 l 1
 708 952 l 1
 708 875 l 1
 681 875 l 1
 377 -200 l 1
 273 -200 l 1
 129 194 l 1
 75 182 l 1
 60 258 l 1xd0
106 559 m 1
 151 601 l 1
 178 572 207 560 241 560 c 0
 290 560 321 587 321 631 c 0xe4
 321 681 291 698 241 698 c 2
 207 698 l 1
 216 754 l 1
 239 754 l 2
 280 754 311 776 311 817 c 0
 311 852 285 873 245 873 c 0
 211 873 185 861 157 836 c 1
 117 880 l 1
 156 915 200 932 251 932 c 0
 340 932 388 884 388 827 c 0xe8
 388 775 353 742 302 729 c 1
 357 724 402 692 402 627 c 0xe4
 402 556 343 499 245 499 c 0
 187 499 140 520 106 559 c 1
EndSplineSet
EndChar
StartChar: uni2220
Encoding: 8736 8736 1895
Width: 692
Flags: W
HStem: 0 80<200 620>
LayerCount: 2
Fore
SplineSet
12 0 m 1
 512 547 l 1
 574 490 l 1
 200 80 l 1
 620 80 l 1
 620 0 l 1
 12 0 l 1
EndSplineSet
EndChar
StartChar: uni2221
Encoding: 8737 8737 817
Width: 692
Flags: W
HStem: 0 80<200 437 524 620>
VStem: 444 80<-69.9211 0>
LayerCount: 2
Fore
SplineSet
12 0 m 1
 303 319 l 1
 286 335 268 349 248 362 c 1
 292 429 l 1
 315 414 337 397 358 378 c 1
 512 547 l 1
 574 490 l 1
 415 316 l 1
 468 249 504 168 518 80 c 1
 620 80 l 1
 620 0 l 1
 524 0 l 1
 524 -29 522 -57 517 -84 c 1
 438 -71 l 1
 442 -48 444 -24 444 0 c 1
 12 0 l 1
200 80 m 1
 437 80 l 1
 425 145 398 204 360 255 c 1
 200 80 l 1
EndSplineSet
EndChar
StartChar: uni2222
Encoding: 8738 8738 818
Width: 703
Flags: W
HStem: -7 21G<406.667 445.5> 509 20G<552.653 608.493>
VStem: 444 80<188.756 371.244>
LayerCount: 2
Fore
SplineSet
12 280 m 1
 410 448 l 1
 399 474 386 499 370 522 c 1
 436 567 l 1
 455 540 471 511 484 480 c 1
 600 529 l 1
 631 456 l 1
 509 404 l 1
 519 364 524 323 524 280 c 0
 524 237 519 196 509 156 c 1
 631 104 l 1
 600 31 l 1
 484 80 l 1
 471 49 455 20 436 -7 c 1
 370 38 l 1
 386 61 399 86 410 112 c 1
 12 280 l 1
216 280 m 1
 434 188 l 1
 441 218 444 248 444 280 c 0
 444 312 441 342 434 372 c 1
 216 280 l 1
EndSplineSet
EndChar
StartChar: uni2223
Encoding: 8739 8739 812
Width: 403
Flags: W
VStem: 160 83<-186 746>
LayerCount: 2
Fore
SplineSet
160 -186 m 1
 160 746 l 1
 243 746 l 1
 243 -186 l 1
 160 -186 l 1
EndSplineSet
EndChar
StartChar: uni2224
Encoding: 8740 8740 1904
Width: 511
Flags: W
VStem: 214 83<-186 188 372 746>
LayerCount: 2
Fore
SplineSet
88 164 m 1
 214 290 l 1
 214 746 l 1
 297 746 l 1
 297 372 l 1
 372 447 l 1
 423 396 l 1
 297 270 l 1
 297 -186 l 1
 214 -186 l 1
 214 188 l 1
 139 113 l 1
 88 164 l 1
EndSplineSet
EndChar
StartChar: uni2225
Encoding: 8741 8741 813
Width: 617
Flags: W
VStem: 160 83<-186 746> 374 83<-186 746>
LayerCount: 2
Fore
SplineSet
160 -186 m 1
 160 746 l 1
 243 746 l 1
 243 -186 l 1
 160 -186 l 1
374 -186 m 1
 374 746 l 1
 457 746 l 1
 457 -186 l 1
 374 -186 l 1
EndSplineSet
EndChar
StartChar: uni2227
Encoding: 8743 8743 823
Width: 592
Flags: W
LayerCount: 2
Fore
SplineSet
36 6 m 1
 241 546 l 1
 351 546 l 1
 556 6 l 1
 471 6 l 1
 296 466 l 1
 121 6 l 1
 36 6 l 1
EndSplineSet
EndChar
StartChar: uni2229
Encoding: 8745 8745 825
Width: 576
Flags: W
HStem: 474 72<211.016 364.984>
VStem: 62 72<14 396.187> 442 72<14 396.187>
LayerCount: 2
Fore
SplineSet
288 546 m 0
 413 546 514 446 514 320 c 2
 514 14 l 1
 442 14 l 1
 442 320 l 2
 442 404 372 474 288 474 c 0
 204 474 134 404 134 320 c 2
 134 14 l 1
 62 14 l 1
 62 320 l 2
 62 446 163 546 288 546 c 0
EndSplineSet
EndChar
StartChar: uni222E
Encoding: 8750 8750 830
Width: 639
Flags: W
ItalicCorrection: 240
IsExtendedShape: 1
GlyphVariantsVertical: uni222E.display
HStem: -211 69<-3.10938 120.093> 76.0766 72.7844<289.598 351.654> 466.209 73.4204<194.352 249.121> 759 69<418.962 542.109>
VStem: 41 72<228.083 386.103> 433 72<229.661 386.89>
LayerCount: 2
Fore
SplineSet
194.289513257 89.7258502569 m 1
 104.956709354 122.004249682 41 207.622504531 41 308 c 0
 41 431.570378392 137.926415727 532.773122386 259.800678264 539.629663066 c 1
 260 541 l 2
 295 779 372 828 459 828 c 0
 505 828 544 814 575 791 c 1
 543 732 l 1
 519 747 494 759 468 759 c 0
 421.989751583 759 375.021176793 720.666945055 344.919038518 528.608949092 c 1
 437.78400506 498.295365067 505 410.903374258 505 308 c 0
 505 182.009733972 404.240179326 79.2717342528 279.011142615 76.0766054808 c 1
 279 76 l 2
 244 -162 167 -211 80 -211 c 0
 34 -211 -5 -197 -36 -174 c 1
 -4 -115 l 1
 20 -130 45 -142 71 -142 c 0
 117.116641497 -142 164.196046517 -103.489459068 194.289513257 89.7258502569 c 1
289.597961545 148.860985622 m 1
 369.875616649 157.23227527 433 225.602317263 433 308 c 0
 433 374.340260166 392.081331539 431.587482896 334.236274642 455.749388166 c 1
 289.597961545 148.860985622 l 1
205.05271381 163.237407441 m 1
 249.121346295 466.209255778 l 1
 172.340523276 454.593102491 113 387.889942721 113 308 c 0
 113 244.255543647 150.779133721 188.906450343 205.05271381 163.237407441 c 1
EndSplineSet
EndChar
StartChar: uni2234
Encoding: 8756 8756 833
Width: 730
Flags: W
HStem: 0 140<83.2058 184.794 545.206 646.794> 400 140<314.206 415.794>
VStem: 64 140<19.2058 120.794> 295 140<419.206 520.794> 526 140<19.2058 120.794>
CounterMasks: 1 38
LayerCount: 2
Fore
SplineSet
64 70 m 0
 64 109 95 140 134 140 c 0
 173 140 204 109 204 70 c 0
 204 31 173 0 134 0 c 0
 95 0 64 31 64 70 c 0
295 470 m 0
 295 509 326 540 365 540 c 0
 404 540 435 509 435 470 c 0
 435 431 404 400 365 400 c 0
 326 400 295 431 295 470 c 0
526 70 m 0
 526 109 557 140 596 140 c 0
 635 140 666 109 666 70 c 0
 666 31 635 0 596 0 c 0
 557 0 526 31 526 70 c 0
EndSplineSet
EndChar
StartChar: uni2235
Encoding: 8757 8757 834
Width: 730
Flags: W
HStem: 0 140<314.206 415.794> 400 140<83.2058 184.794 545.206 646.794>
VStem: 64 140<419.206 520.794> 295 140<19.2058 120.794> 526 140<419.206 520.794>
CounterMasks: 1 38
LayerCount: 2
Fore
SplineSet
64 470 m 0
 64 509 95 540 134 540 c 0
 173 540 204 509 204 470 c 0
 204 431 173 400 134 400 c 0
 95 400 64 431 64 470 c 0
295 70 m 0
 295 109 326 140 365 140 c 0
 404 140 435 109 435 70 c 0
 435 31 404 0 365 0 c 0
 326 0 295 31 295 70 c 0
526 470 m 0
 526 509 557 540 596 540 c 0
 635 540 666 509 666 470 c 0
 666 431 635 400 596 400 c 0
 557 400 526 431 526 470 c 0
EndSplineSet
EndChar
StartChar: uni2236
Encoding: 8758 8758 822
Width: 428
Flags: W
HStem: 0 140<163.206 264.794> 400 140<163.206 264.794>
VStem: 144 140<19.2058 120.794 419.206 520.794>
LayerCount: 2
Fore
SplineSet
144 70 m 0
 144 109 175 140 214 140 c 0
 253 140 284 109 284 70 c 0
 284 31 253 0 214 0 c 0
 175 0 144 31 144 70 c 0
144 470 m 0
 144 509 175 540 214 540 c 0
 253 540 284 509 284 470 c 0
 284 431 253 400 214 400 c 0
 175 400 144 431 144 470 c 0
EndSplineSet
EndChar
StartChar: uni2237
Encoding: 8759 8759 836
Width: 724
Flags: W
HStem: 0 140<115.206 216.794 507.206 608.794> 400 140<115.206 216.794 507.206 608.794>
VStem: 96 140<19.2058 120.794 419.206 520.794> 488 140<19.2058 120.794 419.206 520.794>
LayerCount: 2
Fore
SplineSet
96 70 m 0
 96 109 127 140 166 140 c 0
 205 140 236 109 236 70 c 0
 236 31 205 0 166 0 c 0
 127 0 96 31 96 70 c 0
96 470 m 0
 96 509 127 540 166 540 c 0
 205 540 236 509 236 470 c 0
 236 431 205 400 166 400 c 0
 127 400 96 431 96 470 c 0
488 70 m 0
 488 109 519 140 558 140 c 0
 597 140 628 109 628 70 c 0
 628 31 597 0 558 0 c 0
 519 0 488 31 488 70 c 0
488 470 m 0
 488 509 519 540 558 540 c 0
 597 540 628 509 628 470 c 0
 628 431 597 400 558 400 c 0
 519 400 488 431 488 470 c 0
EndSplineSet
EndChar
StartChar: uni223B
Encoding: 8763 8763 840
Width: 500
Flags: W
HStem: 28 128<202.747 297.253> 210 72<283.769 377.627> 278 72<122.373 216.231> 404 128<202.747 297.253>
VStem: 186 128<44.7473 139.253 420.747 515.253>
LayerCount: 2
Fore
SplineSet
41 253 m 1xb8
 62 294 103 350 178 350 c 0xb8
 253 350 289 282 331 282 c 0
 364 282 387 310 403 336 c 1
 459 307 l 1
 438 266 397 210 322 210 c 0xd8
 247 210 211 278 169 278 c 0
 136 278 113 250 97 224 c 1
 41 253 l 1xb8
186 92 m 0
 186 127 215 156 250 156 c 0
 285 156 314 127 314 92 c 0
 314 57 285 28 250 28 c 0
 215 28 186 57 186 92 c 0
186 468 m 0
 186 503 215 532 250 532 c 0
 285 532 314 503 314 468 c 0
 314 433 285 404 250 404 c 0
 215 404 186 433 186 468 c 0
EndSplineSet
EndChar
StartChar: uni223C
Encoding: 8764 8764 823
Width: 500
Flags: W
HStem: 210 72<283.769 377.627> 278 72<122.373 216.231>
LayerCount: 2
Fore
SplineSet
41 253 m 1x40
 62 294 103 350 178 350 c 0x40
 253 350 289 282 331 282 c 0
 364 282 387 310 403 336 c 1
 459 307 l 1
 438 266 397 210 322 210 c 0x80
 247 210 211 278 169 278 c 0
 136 278 113 250 97 224 c 1
 41 253 l 1x40
EndSplineSet
EndChar
StartChar: uni223D
Encoding: 8765 8765 842
Width: 500
Flags: W
HStem: 210 72<122.373 216.231> 278 72<283.769 377.627>
LayerCount: 2
Fore
SplineSet
41 307 m 1x80
 97 336 l 1
 113 310 136 282 169 282 c 0x80
 211 282 247 350 322 350 c 0
 397 350 438 294 459 253 c 1
 403 224 l 1
 387 250 364 278 331 278 c 0x40
 289 278 253 210 178 210 c 0
 103 210 62 266 41 307 c 1x80
EndSplineSet
EndChar
StartChar: uni2240
Encoding: 8768 8768 843
Width: 396
Flags: W
VStem: 128 72<152.373 246.231> 196 72<313.769 407.627>
LayerCount: 2
Fore
SplineSet
128 208 m 0x80
 128 283 196 319 196 361 c 0
 196 394 168 417 142 433 c 1
 171 489 l 1
 212 468 268 427 268 352 c 0x40
 268 277 200 241 200 199 c 0
 200 166 228 143 254 127 c 1
 225 71 l 1
 184 92 128 133 128 208 c 0x80
EndSplineSet
EndChar
StartChar: uni2242
Encoding: 8770 8770 845
Width: 500
Flags: W
HStem: 114 72<283.769 377.627> 182 72<122.373 216.231> 338 76<62 438>
LayerCount: 2
Fore
SplineSet
41 157 m 1x60
 62 198 103 254 178 254 c 0x60
 253 254 289 186 331 186 c 0
 364 186 387 214 403 240 c 1
 459 211 l 1
 438 170 397 114 322 114 c 0xa0
 247 114 211 182 169 182 c 0
 136 182 113 154 97 128 c 1
 41 157 l 1x60
62 338 m 1
 62 414 l 1
 438 414 l 1
 438 338 l 1
 62 338 l 1
EndSplineSet
EndChar
StartChar: uni2243
Encoding: 8771 8771 846
Width: 500
Flags: W
HStem: 146 76<62 438> 306 72<283.769 377.627> 374 72<122.373 216.231>
LayerCount: 2
Fore
SplineSet
41 349 m 1xa0
 62 390 103 446 178 446 c 0xa0
 253 446 289 378 331 378 c 0
 364 378 387 406 403 432 c 1
 459 403 l 1
 438 362 397 306 322 306 c 0xc0
 247 306 211 374 169 374 c 0
 136 374 113 346 97 320 c 1
 41 349 l 1xa0
62 146 m 1
 62 222 l 1
 438 222 l 1
 438 146 l 1
 62 146 l 1
EndSplineSet
EndChar
StartChar: uni2244
Encoding: 8772 8772 1929
Width: 500
Flags: W
HStem: 146 76<62 150 261 438> 306 72<333 377.524> 374 72<122.373 215.271>
LayerCount: 2
Fore
SplineSet
41 349 m 1xa0
 62 390 103 446 178 446 c 0xa0
 218 446 247 427 272 409 c 1
 337 550 l 1
 400 522 l 1
 333 378 l 1
 365 379 387 407 403 432 c 1
 459 403 l 1
 438 362 397 306 322 306 c 0xc0
 315 306 308 307 301 308 c 1
 261 222 l 1
 438 222 l 1
 438 146 l 1
 226 146 l 1
 163 10 l 1
 100 38 l 1
 150 146 l 1
 62 146 l 1
 62 222 l 1
 185 222 l 1
 238 336 l 1
 212 354 191 374 169 374 c 0
 136 374 113 346 97 320 c 1
 41 349 l 1xa0
EndSplineSet
EndChar
StartChar: uni2245
Encoding: 8773 8773 1924
Width: 500
Flags: W
HStem: 66 76<62 438> 242 76<62 438> 402 72<283.769 377.627> 470 72<122.373 216.231> 508 20G<395 441.621>
LayerCount: 2
Fore
SplineSet
41 445 m 1xd0
 62 486 103 542 178 542 c 0xd0
 253 542 289 474 331 474 c 0
 364 474 387 502 403 528 c 1
 459 499 l 1
 438 458 397 402 322 402 c 0xe8
 247 402 211 470 169 470 c 0
 136 470 113 442 97 416 c 1
 41 445 l 1xd0
62 66 m 1
 62 142 l 1
 438 142 l 1
 438 66 l 1
 62 66 l 1
62 242 m 1
 62 318 l 1
 438 318 l 1
 438 242 l 1
 62 242 l 1
EndSplineSet
EndChar
StartChar: uni2248
Encoding: 8776 8776 825
Width: 500
Flags: W
HStem: 114 72<283.769 377.627> 182 72<122.373 216.231> 306 72<283.769 377.627> 374 72<122.373 216.231>
LayerCount: 2
Fore
SplineSet
41 157 m 1x40
 62 198 103 254 178 254 c 0x40
 253 254 289 186 331 186 c 0
 364 186 387 214 403 240 c 1
 459 211 l 1
 438 170 397 114 322 114 c 0x80
 247 114 211 182 169 182 c 0
 136 182 113 154 97 128 c 1
 41 157 l 1x40
41 349 m 1
 62 390 103 446 178 446 c 0x10
 253 446 289 378 331 378 c 0
 364 378 387 406 403 432 c 1
 459 403 l 1
 438 362 397 306 322 306 c 0x20
 247 306 211 374 169 374 c 0x10
 136 374 113 346 97 320 c 1
 41 349 l 1
EndSplineSet
EndChar
StartChar: uni224A
Encoding: 8778 8778 853
Width: 500
Flags: W
HStem: 64 76<62 438> 210 72<283.769 377.627> 278 72<122.373 216.231> 388 72<283.769 377.627> 456 72<122.373 216.231>
LayerCount: 2
Fore
SplineSet
41 253 m 1xa0
 62 294 103 350 178 350 c 0xa0
 253 350 289 282 331 282 c 0
 364 282 387 310 403 336 c 1
 459 307 l 1
 438 266 397 210 322 210 c 0xc0
 247 210 211 278 169 278 c 0
 136 278 113 250 97 224 c 1
 41 253 l 1xa0
41 431 m 1
 62 472 103 528 178 528 c 0x88
 253 528 289 460 331 460 c 0
 364 460 387 488 403 514 c 1
 459 485 l 1
 438 444 397 388 322 388 c 0x90
 247 388 211 456 169 456 c 0x88
 136 456 113 428 97 402 c 1
 41 431 l 1
62 64 m 1
 62 140 l 1
 438 140 l 1
 438 64 l 1
 62 64 l 1
EndSplineSet
EndChar
StartChar: uni224B
Encoding: 8779 8779 854
Width: 500
Flags: W
HStem: 32 72<283.769 377.627> 100 72<122.373 216.231> 210 72<283.769 377.627> 278 72<122.373 216.231> 388 72<283.769 377.627> 456 72<122.373 216.231>
LayerCount: 2
Fore
SplineSet
41 75 m 1x40
 62 116 103 172 178 172 c 0x40
 253 172 289 104 331 104 c 0
 364 104 387 132 403 158 c 1
 459 129 l 1
 438 88 397 32 322 32 c 0x80
 247 32 211 100 169 100 c 0
 136 100 113 72 97 46 c 1
 41 75 l 1x40
41 253 m 1
 62 294 103 350 178 350 c 0x10
 253 350 289 282 331 282 c 0
 364 282 387 310 403 336 c 1
 459 307 l 1
 438 266 397 210 322 210 c 0x20
 247 210 211 278 169 278 c 0x10
 136 278 113 250 97 224 c 1
 41 253 l 1
41 431 m 1
 62 472 103 528 178 528 c 0x04
 253 528 289 460 331 460 c 0
 364 460 387 488 403 514 c 1
 459 485 l 1
 438 444 397 388 322 388 c 0x08
 247 388 211 456 169 456 c 0x04
 136 456 113 428 97 402 c 1
 41 431 l 1
EndSplineSet
EndChar
StartChar: uni2250
Encoding: 8784 8784 1933
Width: 500
Flags: W
HStem: 146 76<62 438> 338 76<62 438> 500 128<202.747 297.253>
VStem: 186 128<516.747 611.253>
LayerCount: 2
Fore
SplineSet
62 146 m 1
 62 222 l 1
 438 222 l 1
 438 146 l 1
 62 146 l 1
62 338 m 1
 62 414 l 1
 438 414 l 1
 438 338 l 1
 62 338 l 1
186 564 m 0
 186 599 215 628 250 628 c 0
 285 628 314 599 314 564 c 0
 314 529 285 500 250 500 c 0
 215 500 186 529 186 564 c 0
EndSplineSet
EndChar
StartChar: uni2251
Encoding: 8785 8785 857
Width: 500
Flags: W
HStem: -68 128<202.747 297.253> 146 76<62 438> 338 76<62 438> 500 128<202.747 297.253>
VStem: 186 128<-51.2527 43.2527 516.747 611.253>
LayerCount: 2
Fore
SplineSet
62 146 m 1
 62 222 l 1
 438 222 l 1
 438 146 l 1
 62 146 l 1
62 338 m 1
 62 414 l 1
 438 414 l 1
 438 338 l 1
 62 338 l 1
186 -4 m 0
 186 31 215 60 250 60 c 0
 285 60 314 31 314 -4 c 0
 314 -39 285 -68 250 -68 c 0
 215 -68 186 -39 186 -4 c 0
186 564 m 0
 186 599 215 628 250 628 c 0
 285 628 314 599 314 564 c 0
 314 529 285 500 250 500 c 0
 215 500 186 529 186 564 c 0
EndSplineSet
EndChar
StartChar: uni2252
Encoding: 8786 8786 858
Width: 500
Flags: W
HStem: -68 128<338.747 433.253> 146 76<62 438> 338 76<62 438> 500 128<66.7473 161.253>
VStem: 50 128<516.747 611.253> 322 128<-51.2527 43.2527>
LayerCount: 2
Fore
SplineSet
50 564 m 0
 50 599 79 628 114 628 c 0
 149 628 178 599 178 564 c 0
 178 529 149 500 114 500 c 0
 79 500 50 529 50 564 c 0
62 146 m 1
 62 222 l 1
 438 222 l 1
 438 146 l 1
 62 146 l 1
62 338 m 1
 62 414 l 1
 438 414 l 1
 438 338 l 1
 62 338 l 1
322 -4 m 0
 322 31 351 60 386 60 c 0
 421 60 450 31 450 -4 c 0
 450 -39 421 -68 386 -68 c 0
 351 -68 322 -39 322 -4 c 0
EndSplineSet
EndChar
StartChar: uni2255
Encoding: 8789 8789 827
Width: 692
Flags: W
HStem: 120 128<522.747 617.253> 146 76<58 434> 312 128<522.747 617.253> 338 76<58 434>
VStem: 506 128<136.747 231.253 328.747 423.253>
LayerCount: 2
Fore
SplineSet
58 146 m 1x48
 58 222 l 1
 434 222 l 1
 434 146 l 1
 58 146 l 1x48
58 338 m 1x18
 58 414 l 1
 434 414 l 1
 434 338 l 1
 58 338 l 1x18
506 184 m 0
 506 219 535 248 570 248 c 0
 605 248 634 219 634 184 c 0
 634 149 605 120 570 120 c 0x88
 535 120 506 149 506 184 c 0
506 376 m 0
 506 411 535 440 570 440 c 0
 605 440 634 411 634 376 c 0
 634 341 605 312 570 312 c 0x28
 535 312 506 341 506 376 c 0
EndSplineSet
EndChar
StartChar: uni2260
Encoding: 8800 8800 828
Width: 500
Flags: W
HStem: 146 76<62 134 255 438> 338 76<62 245 366 438>
LayerCount: 2
Fore
SplineSet
62 146 m 1
 62 222 l 1
 178 222 l 1
 245 338 l 1
 62 338 l 1
 62 414 l 1
 289 414 l 1
 365 546 l 1
 423 512 l 1
 366 414 l 1
 438 414 l 1
 438 338 l 1
 322 338 l 1
 255 222 l 1
 438 222 l 1
 438 146 l 1
 211 146 l 1
 135 14 l 1
 77 48 l 1
 134 146 l 1
 62 146 l 1
EndSplineSet
EndChar
StartChar: uni2261
Encoding: 8801 8801 829
Width: 500
Flags: W
HStem: 66 76<62 438> 242 76<62 438> 418 76<62 438>
CounterMasks: 1 e0
LayerCount: 2
Fore
SplineSet
62 66 m 1
 62 142 l 1
 438 142 l 1
 438 66 l 1
 62 66 l 1
62 242 m 1
 62 318 l 1
 438 318 l 1
 438 242 l 1
 62 242 l 1
62 418 m 1
 62 494 l 1
 438 494 l 1
 438 418 l 1
 62 418 l 1
EndSplineSet
EndChar
StartChar: uni2262
Encoding: 8802 8802 1920
Width: 500
Flags: W
HStem: 66 76<62 119 226 438> 242 76<62 196 304 438> 418 76<62 274 381 438>
CounterMasks: 1 e0
LayerCount: 2
Fore
SplineSet
62 66 m 1
 62 142 l 1
 152 142 l 1
 196 242 l 1
 62 242 l 1
 62 318 l 1
 230 318 l 1
 274 418 l 1
 62 418 l 1
 62 494 l 1
 307 494 l 1
 368 632 l 1
 430 605 l 1
 381 494 l 1
 438 494 l 1
 438 418 l 1
 348 418 l 1
 304 318 l 1
 438 318 l 1
 438 242 l 1
 270 242 l 1
 226 142 l 1
 438 142 l 1
 438 66 l 1
 193 66 l 1
 132 -72 l 1
 70 -45 l 1
 119 66 l 1
 62 66 l 1
EndSplineSet
EndChar
StartChar: uni2264
Encoding: 8804 8804 830
Width: 500
Flags: W
HStem: 0 76<62 438>
LayerCount: 2
Fore
SplineSet
50 316 m 1
 50 410 l 1
 417 581 l 1
 450 505 l 1
 123 363 l 1
 450 219 l 1
 417 145 l 1
 50 316 l 1
62 0 m 1
 62 76 l 1
 438 76 l 1
 438 0 l 1
 62 0 l 1
EndSplineSet
EndChar
StartChar: uni2265
Encoding: 8805 8805 867
Width: 500
Flags: W
HStem: 0 76<62 438>
LayerCount: 2
Fore
SplineSet
50 219 m 1
 377 363 l 1
 50 505 l 1
 83 581 l 1
 450 410 l 1
 450 316 l 1
 83 145 l 1
 50 219 l 1
62 0 m 1
 62 76 l 1
 438 76 l 1
 438 0 l 1
 62 0 l 1
EndSplineSet
EndChar
StartChar: uni2267
Encoding: 8807 8807 869
Width: 500
Flags: W
HStem: -80 76<62 438> 80 76<62 438>
LayerCount: 2
Fore
SplineSet
50 294 m 1
 377 438 l 1
 50 580 l 1
 83 656 l 1
 450 485 l 1
 450 391 l 1
 83 220 l 1
 50 294 l 1
62 -4 m 1
 438 -4 l 1
 438 -80 l 1
 62 -80 l 1
 62 -4 l 1
62 80 m 1
 62 156 l 1
 438 156 l 1
 438 80 l 1
 62 80 l 1
EndSplineSet
EndChar
StartChar: uni2268
Encoding: 8808 8808 1936
Width: 500
Flags: W
HStem: -80 76<62 140 266 438> 80 76<62 234 360 438>
LayerCount: 2
Fore
SplineSet
50 391 m 1
 50 485 l 1
 417 656 l 1
 450 580 l 1
 123 438 l 1
 450 294 l 1
 417 220 l 1
 50 391 l 1
62 -4 m 1
 185 -4 l 1
 234 80 l 1
 62 80 l 1
 62 156 l 1
 279 156 l 1
 326 235 l 1
 386 200 l 1
 360 156 l 1
 438 156 l 1
 438 80 l 1
 315 80 l 1
 266 -4 l 1
 438 -4 l 1
 438 -80 l 1
 221 -80 l 1
 174 -159 l 1
 114 -124 l 1
 140 -80 l 1
 62 -80 l 1
 62 -4 l 1
EndSplineSet
EndChar
StartChar: uni226B
Encoding: 8811 8811 873
Width: 800
Flags: W
LayerCount: 2
Fore
SplineSet
50 136 m 1
 377 280 l 1
 50 422 l 1
 83 498 l 1
 450 327 l 1
 450 233 l 1
 83 62 l 1
 50 136 l 1
350 136 m 1
 677 280 l 1
 350 422 l 1
 383 498 l 1
 750 327 l 1
 750 233 l 1
 383 62 l 1
 350 136 l 1
EndSplineSet
EndChar
StartChar: uni226E
Encoding: 8814 8814 874
Width: 500
Flags: W
LayerCount: 2
Fore
SplineSet
50 233 m 1
 50 327 l 1
 255 422 l 1
 306 568 l 1
 370 546 l 1
 341 462 l 1
 417 498 l 1
 450 422 l 1
 304 359 l 1
 256 222 l 1
 450 136 l 1
 417 62 l 1
 230 149 l 1
 186 24 l 1
 122 46 l 1
 168 178 l 1
 50 233 l 1
123 280 m 1
 194 249 l 1
 219 322 l 1
 123 280 l 1
EndSplineSet
EndChar
StartChar: uni2270
Encoding: 8816 8816 876
Width: 500
Flags: W
HStem: -0 76<62 125 218 438>
LayerCount: 2
Fore
SplineSet
50 316 m 1
 50 410 l 1
 281 517 l 1
 318 642 l 1
 382 623 l 1
 362 555 l 1
 417 581 l 1
 450 505 l 1
 331 453 l 1
 283 293 l 1
 450 219 l 1
 417 145 l 1
 260 218 l 1
 218 76 l 1
 438 76 l 1
 438 0 l 1
 195 -0 l 1
 170 -82 l 1
 106 -63 l 1
 125 0 l 1
 62 0 l 1
 62 76 l 1
 148 76 l 1
 199 247 l 1
 50 316 l 1
123 363 m 1
 221 320 l 1
 251 418 l 1
 123 363 l 1
EndSplineSet
EndChar
StartChar: uni2274
Encoding: 8820 8820 1946
Width: 500
Flags: W
HStem: -22 72<284.25 377.627> -8 21G<58.3793 102>
LayerCount: 2
Fore
SplineSet
41 21 m 1x40
 60 59 96 109 160 117 c 1
 199 247 l 1
 50 316 l 1
 50 410 l 1
 281 517 l 1
 318 642 l 1
 382 623 l 1
 362 555 l 1
 417 581 l 1
 450 505 l 1
 331 453 l 1
 283 293 l 1
 450 219 l 1
 417 145 l 1
 260 218 l 1
 227 108 l 1
 271 89 299 50 331 50 c 0
 364 50 387 78 403 104 c 1
 459 75 l 1
 438 34 397 -22 322 -22 c 0x80
 268 -22 234 13 204 33 c 1
 170 -82 l 1
 106 -63 l 1
 136 36 l 1
 120 25 107 8 97 -8 c 1
 41 21 l 1x40
123 363 m 1
 221 320 l 1
 251 418 l 1
 123 363 l 1
EndSplineSet
EndChar
StartChar: uni2275
Encoding: 8821 8821 881
Width: 500
Flags: W
HStem: -22 72<284.25 377.627> -8 21G<58.3793 102>
LayerCount: 2
Fore
SplineSet
41 21 m 1x40
 60 59 96 109 160 117 c 1
 182 191 l 1
 83 145 l 1
 50 219 l 1
 212 290 l 1
 251 418 l 1
 50 505 l 1
 83 581 l 1
 273 492 l 1
 318 642 l 1
 382 623 l 1
 334 464 l 1
 450 410 l 1
 450 316 l 1
 264 229 l 1
 227 108 l 1
 271 89 299 50 331 50 c 0
 364 50 387 78 403 104 c 1
 459 75 l 1
 438 34 397 -22 322 -22 c 0x80
 268 -22 234 13 204 33 c 1
 170 -82 l 1
 106 -63 l 1
 136 36 l 1
 120 25 107 8 97 -8 c 1
 41 21 l 1x40
293 326 m 1
 377 363 l 1
 312 391 l 1
 293 326 l 1
EndSplineSet
EndChar
StartChar: uni2277
Encoding: 8823 8823 1949
Width: 500
Flags: W
LayerCount: 2
Fore
SplineSet
50 51 m 1
 50 145 l 1
 417 316 l 1
 450 240 l 1
 123 98 l 1
 450 -46 l 1
 417 -120 l 1
 50 51 l 1
50 318 m 1
 377 462 l 1
 50 604 l 1
 83 680 l 1
 450 509 l 1
 450 415 l 1
 83 244 l 1
 50 318 l 1
EndSplineSet
EndChar
StartChar: uni2278
Encoding: 8824 8824 1950
Width: 500
Flags: W
HStem: 730 20G<311.692 382>
LayerCount: 2
Fore
SplineSet
50 -46 m 1
 156 1 l 1
 194 178 l 1
 50 240 l 1
 83 316 l 1
 210 257 l 1
 227 333 l 1
 50 415 l 1
 50 509 l 1
 288 620 l 1
 316 750 l 1
 382 736 l 1
 365 656 l 1
 417 680 l 1
 450 604 l 1
 344 558 l 1
 306 381 l 1
 450 318 l 1
 417 244 l 1
 290 303 l 1
 273 227 l 1
 450 145 l 1
 450 51 l 1
 212 -60 l 1
 184 -190 l 1
 118 -176 l 1
 135 -96 l 1
 83 -120 l 1
 50 -46 l 1
123 462 m 1
 243 409 l 1
 268 525 l 1
 123 462 l 1
232 34 m 1
 377 98 l 1
 257 150 l 1
 232 34 l 1
EndSplineSet
EndChar
StartChar: uni2279
Encoding: 8825 8825 885
Width: 500
Flags: W
HStem: 730 20G<311.679 382>
LayerCount: 2
Fore
SplineSet
50 51 m 1
 50 145 l 1
 202 216 l 1
 222 309 l 1
 83 244 l 1
 50 318 l 1
 242 402 l 1
 265 511 l 1
 50 604 l 1
 83 680 l 1
 281 588 l 1
 316 750 l 1
 382 736 l 1
 344 558 l 1
 450 509 l 1
 450 415 l 1
 298 344 l 1
 278 251 l 1
 417 316 l 1
 450 240 l 1
 258 157 l 1
 235 49 l 1
 450 -46 l 1
 417 -120 l 1
 219 -28 l 1
 184 -190 l 1
 118 -176 l 1
 156 2 l 1
 50 51 l 1
123 98 m 1
 172 76 l 1
 182 124 l 1
 123 98 l 1
318 436 m 1
 377 462 l 1
 328 483 l 1
 318 436 l 1
EndSplineSet
EndChar
StartChar: uni227B
Encoding: 8827 8827 1963
Width: 500
Flags: W
LayerCount: 2
Fore
SplineSet
26 94 m 1
 120 202 242 254 376 280 c 1
 242 306 120 358 26 466 c 1
 78 518 l 1
 176 414 311 354 474 330 c 1
 474 230 l 1
 311 206 176 146 78 42 c 1
 26 94 l 1
EndSplineSet
EndChar
StartChar: uni227C
Encoding: 8828 8828 888
Width: 500
Flags: W
HStem: 179 65<35.3846 107.502>
LayerCount: 2
Fore
SplineSet
22 179 m 1
 37 244 l 1
 233 220 365 110 434 -2 c 1
 375 -40 l 1
 308 76 208 145 22 179 c 1
26 312 m 1
 26 412 l 1
 189 436 324 496 422 600 c 1
 474 548 l 1
 380 440 258 388 124 362 c 1
 258 336 380 284 474 176 c 1
 422 124 l 1
 324 228 189 288 26 312 c 1
EndSplineSet
EndChar
StartChar: uni227E
Encoding: 8830 8830 890
Width: 500
Flags: W
HStem: -26 72<284.951 380.806> -12 21G<53.3793 100> 42 72<119.194 215.049>
LayerCount: 2
Fore
SplineSet
26 318 m 1x00
 26 418 l 1
 189 442 324 502 422 606 c 1
 474 554 l 1
 380 446 258 394 124 368 c 1
 258 342 380 290 474 182 c 1
 422 130 l 1
 324 234 189 294 26 318 c 1x00
36 17 m 1
 57 58 101 114 176 114 c 0x60
 251 114 291 46 333 46 c 0
 366 46 392 74 408 100 c 1
 464 71 l 1
 443 30 399 -26 324 -26 c 0x80
 249 -26 209 42 167 42 c 0
 134 42 108 14 92 -12 c 1x60
 36 17 l 1
EndSplineSet
EndChar
StartChar: uni227F
Encoding: 8831 8831 891
Width: 500
Flags: W
HStem: -26 72<284.951 380.806> -12 21G<53.3793 100> 42 72<119.194 215.049>
LayerCount: 2
Fore
SplineSet
26 182 m 1x00
 120 290 242 342 376 368 c 1
 242 394 120 446 26 554 c 1
 78 606 l 1
 176 502 311 442 474 418 c 1
 474 318 l 1
 311 294 176 234 78 130 c 1
 26 182 l 1x00
36 17 m 1
 57 58 101 114 176 114 c 0x60
 251 114 291 46 333 46 c 0
 366 46 392 74 408 100 c 1
 464 71 l 1
 443 30 399 -26 324 -26 c 0x80
 249 -26 209 42 167 42 c 0
 134 42 108 14 92 -12 c 1x60
 36 17 l 1
EndSplineSet
EndChar
StartChar: uni2280
Encoding: 8832 8832 892
Width: 500
Flags: W
HStem: 191 69<125.973 186>
LayerCount: 2
Fore
SplineSet
26 230 m 1
 26 330 l 1
 107 342 181 362 247 393 c 1
 298 565 l 1
 364 546 l 1
 333 442 l 1
 365 464 395 489 422 518 c 1
 474 466 l 1
 424 408 365 366 301 336 c 1
 272 237 l 1
 348 206 416 161 474 94 c 1
 422 42 l 1
 373 94 316 134 250 165 c 1
 205 15 l 1
 139 34 l 1
 186 191 l 1
 136 208 83 222 26 230 c 1
124 280 m 1
 152 275 180 268 207 260 c 1
 220 304 l 1
 189 294 157 286 124 280 c 1
EndSplineSet
EndChar
StartChar: uni2282
Encoding: 8834 8834 832
Width: 652
VWidth: 1116
Flags: W
HStem: 24 72<223.952 592> 464 72<223.952 592>
VStem: 60 72<190.965 369.035>
LayerCount: 2
Fore
SplineSet
60 280 m 0
 60 426 162 536 306 536 c 2
 592 536 l 1
 592 464 l 1
 306 464 l 2
 200 464 132 374 132 280 c 0
 132 186 200 96 306 96 c 2
 592 96 l 1
 592 24 l 1
 306 24 l 2
 162 24 60 134 60 280 c 0
EndSplineSet
EndChar
StartChar: uni2289
Encoding: 8841 8841 1883
Width: 652
VWidth: 1198
Flags: W
HStem: -58 72<60 144 241 582> 106 72<60 204 301 428.048> 546 72<60 363>
VStem: 520 72<272.965 451.272>
LayerCount: 2
Fore
SplineSet
60 106 m 1
 60 178 l 1
 230 178 l 1
 363 545 l 1
 357 546 352 546 346 546 c 2
 60 546 l 1
 60 618 l 1
 346 618 l 2
 361 618 375 617 389 615 c 1
 429 726 l 1
 492 704 l 1
 453 595 l 1
 538 556 592 468 592 362 c 0
 592 216 490 106 346 106 c 2
 275 106 l 1
 241 14 l 1
 582 14 l 1
 582 -58 l 1
 215 -58 l 1
 176 -166 l 1
 113 -144 l 1
 144 -58 l 1
 60 -58 l 1
 60 14 l 1
 170 14 l 1
 204 106 l 1
 60 106 l 1
427 526 m 1
 301 178 l 1
 346 178 l 2
 452 178 520 268 520 362 c 0
 520 429 485 494 427 526 c 1
EndSplineSet
EndChar
StartChar: uni228A
Encoding: 8842 8842 902
Width: 652
VWidth: 1198
Flags: W
HStem: -58 72<70 277 385 592> 106 72<223.952 592> 546 72<223.952 592>
VStem: 60 72<272.965 451.035>
LayerCount: 2
Fore
SplineSet
60 362 m 0
 60 508 162 618 306 618 c 2
 592 618 l 1
 592 546 l 1
 306 546 l 2
 200 546 132 456 132 362 c 0
 132 268 200 178 306 178 c 2
 592 178 l 1
 592 106 l 1
 306 106 l 2
 162 106 60 216 60 362 c 0
277 -58 m 1
 70 -58 l 1
 70 14 l 1
 318 14 l 1
 363 92 l 1
 413 63 l 1
 385 14 l 1
 592 14 l 1
 592 -58 l 1
 344 -58 l 1
 299 -136 l 1
 249 -107 l 1
 277 -58 l 1
EndSplineSet
EndChar
StartChar: uni2290
Encoding: 8848 8848 908
Width: 652
VWidth: 1116
Flags: W
LayerCount: 2
Fore
SplineSet
592 536 m 25
 60 536 l 1
 60 464 l 1
 520 464 l 9
 520 96 l 25
 60 96 l 1
 60 24 l 1
 592 24 l 25
 592 536 l 25
EndSplineSet
EndChar
StartChar: uni2295
Encoding: 8853 8853 913
Width: 600
Flags: W
HStem: 242 76<119 258 342 481> 515 20G<229.5 370.5>
VStem: 258 84<100 242 318 460>
LayerCount: 2
Fore
SplineSet
45 280 m 0
 45 421 159 535 300 535 c 0
 441 535 555 421 555 280 c 0
 555 139 441 25 300 25 c 0
 159 25 45 139 45 280 c 0
119 242 m 1
 134 172 188 116 258 100 c 1
 258 242 l 1
 119 242 l 1
119 318 m 1
 258 318 l 1
 258 460 l 1
 188 444 134 388 119 318 c 1
342 100 m 1
 412 116 466 172 481 242 c 1
 342 242 l 1
 342 100 l 1
342 318 m 1
 481 318 l 1
 466 388 412 444 342 460 c 1
 342 318 l 1
EndSplineSet
EndChar
StartChar: uni2296
Encoding: 8854 8854 914
Width: 600
Flags: W
HStem: 25 70<216.675 383.325> 242 76<119 481> 465 70<216.675 383.325>
CounterMasks: 1 e0
LayerCount: 2
Fore
SplineSet
45 280 m 0
 45 421 159 535 300 535 c 0
 441 535 555 421 555 280 c 0
 555 139 441 25 300 25 c 0
 159 25 45 139 45 280 c 0
119 242 m 1
 137 158 211 95 300 95 c 0
 389 95 463 158 481 242 c 1
 119 242 l 1
119 318 m 1
 481 318 l 1
 463 402 389 465 300 465 c 0
 211 465 137 402 119 318 c 1
EndSplineSet
EndChar
StartChar: uni2297
Encoding: 8855 8855 915
Width: 600
Flags: W
HStem: 25 70<212.39 387.61> 465 70<212.39 387.61>
VStem: 45 70<192.39 367.61> 485 70<192.39 367.61>
LayerCount: 2
Fore
SplineSet
45 280 m 0
 45 421 159 535 300 535 c 0
 441 535 555 421 555 280 c 0
 555 139 441 25 300 25 c 0
 159 25 45 139 45 280 c 0
115 280 m 0
 115 243 125 209 144 180 c 1
 244 280 l 1
 144 380 l 1
 125 351 115 317 115 280 c 0
200 124 m 1
 229 105 263 95 300 95 c 0
 337 95 371 105 400 124 c 1
 300 224 l 1
 200 124 l 1
200 436 m 1
 300 336 l 1
 400 436 l 1
 371 455 337 465 300 465 c 0
 263 465 229 455 200 436 c 1
356 280 m 1
 456 180 l 1
 475 209 485 243 485 280 c 0
 485 317 475 351 456 380 c 1
 356 280 l 1
EndSplineSet
EndChar
StartChar: uni22CE
Encoding: 8910 8910 920
Width: 524
Flags: W
VStem: 212 100<68 185.359>
LayerCount: 2
Fore
SplineSet
22 442 m 1
 76 492 l 1
 184 398 236 324 262 190 c 1
 288 324 340 398 448 492 c 1
 502 442 l 1
 394 351 323 238 312 68 c 1
 212 68 l 1
 201 238 130 351 22 442 c 1
EndSplineSet
EndChar
StartChar: uni22CF
Encoding: 8911 8911 1977
Width: 524
Flags: W
VStem: 212 100<374.641 492>
LayerCount: 2
Fore
SplineSet
22 118 m 1
 130 209 201 322 212 492 c 1
 312 492 l 1
 323 322 394 209 502 118 c 1
 448 68 l 1
 340 162 288 236 262 370 c 1
 236 236 184 162 76 68 c 1
 22 118 l 1
EndSplineSet
EndChar
StartChar: uni22DC
Encoding: 8924 8924 1958
Width: 500
Flags: W
HStem: 0 21G<374.076 425.684> 505 76<62 438>
LayerCount: 2
Fore
SplineSet
50 171 m 1
 50 265 l 1
 417 436 l 1
 450 362 l 1
 123 218 l 1
 450 76 l 1
 417 0 l 1
 50 171 l 1
62 505 m 1
 62 581 l 1
 438 581 l 1
 438 505 l 1
 62 505 l 1
EndSplineSet
EndChar
StartChar: uni22E1
Encoding: 8929 8929 933
Width: 500
Flags: W
HStem: 179 65<383.941 460.615>
LayerCount: 2
Fore
SplineSet
22 176 m 1
 82 245 153 291 232 322 c 1
 248 396 l 1
 163 427 86 475 22 548 c 1
 74 600 l 1
 127 544 190 501 263 469 c 1
 296 630 l 1
 362 617 l 1
 326 445 l 1
 371 430 419 419 470 412 c 1
 470 312 l 1
 405 302 344 287 289 266 c 1
 274 189 l 1
 328 216 389 235 459 244 c 1
 474 179 l 1
 383 162 312 137 256 102 c 1
 216 -90 l 1
 150 -77 l 1
 173 32 l 1
 154 10 136 -14 121 -40 c 1
 62 -2 l 1
 93 49 138 100 195 142 c 1
 214 231 l 1
 162 203 114 167 74 124 c 1
 22 176 l 1
306 347 m 1
 328 353 350 358 372 362 c 1
 352 366 332 371 312 376 c 1
 306 347 l 1
EndSplineSet
EndChar
StartChar: uni22E3
Encoding: 8931 8931 935
Width: 652
VWidth: 1198
Flags: W
HStem: -58 72<60 164 261 592> 106 72<60 224 321 520> 546 72<60 384 481 520>
VStem: 520 72<178 546>
LayerCount: 2
Fore
SplineSet
60 14 m 1
 190 14 l 1
 224 106 l 1
 60 106 l 1
 60 178 l 1
 250 178 l 1
 384 546 l 1
 60 546 l 1
 60 618 l 1
 410 618 l 1
 449 726 l 1
 512 704 l 1
 481 618 l 1
 592 618 l 1
 592 106 l 1
 295 106 l 1
 261 14 l 1
 592 14 l 1
 592 -58 l 1
 235 -58 l 1
 196 -166 l 1
 133 -144 l 1
 164 -58 l 1
 60 -58 l 1
 60 14 l 1
321 178 m 1
 520 178 l 1
 520 546 l 1
 455 546 l 1
 321 178 l 1
EndSplineSet
EndChar
StartChar: uni22E4
Encoding: 8932 8932 936
Width: 652
VWidth: 1198
Flags: W
HStem: -58 72<60 272 380 592> 106 72<132 592> 546 72<132 592>
VStem: 60 72<178 546>
LayerCount: 2
Fore
SplineSet
60 14 m 1
 313 14 l 1
 358 92 l 1
 408 63 l 1
 380 14 l 1
 592 14 l 1
 592 -58 l 1
 339 -58 l 1
 294 -136 l 1
 244 -107 l 1
 272 -58 l 1
 60 -58 l 1
 60 14 l 1
60 106 m 1
 60 618 l 1
 592 618 l 1
 592 546 l 1
 132 546 l 1
 132 178 l 1
 592 178 l 1
 592 106 l 1
 60 106 l 1
EndSplineSet
EndChar
StartChar: uni22E6
Encoding: 8934 8934 1960
Width: 500
Flags: W
HStem: -22 72<295.541 377.627> -8 21G<58.3793 105> 46 72<122.373 204.459>
LayerCount: 2
Fore
SplineSet
41 21 m 1x60
 62 62 103 118 178 118 c 0x60
 204 118 226 110 244 99 c 1
 280 163 l 1
 334 132 l 1
 295 64 l 1
 307 56 319 50 331 50 c 0
 364 50 387 78 403 104 c 1
 459 75 l 1
 438 34 397 -22 322 -22 c 0x80
 296 -22 274 -14 256 -3 c 1
 220 -67 l 1
 166 -36 l 1
 205 32 l 1
 193 40 181 46 169 46 c 0
 136 46 113 18 97 -8 c 1
 41 21 l 1x60
50 316 m 1
 50 410 l 1
 417 581 l 1
 450 505 l 1
 123 363 l 1
 450 219 l 1
 417 145 l 1
 50 316 l 1
EndSplineSet
EndChar
StartChar: uni22E8
Encoding: 8936 8936 940
Width: 500
Flags: W
HStem: -26 72<295.541 377.627> -12 21G<58.3793 105> 42 72<122.373 204.459> 317 100<50 146.798>
LayerCount: 2
Fore
SplineSet
41 17 m 1x70
 62 58 103 114 178 114 c 0x70
 204 114 226 106 244 95 c 1
 280 159 l 1
 334 128 l 1
 295 60 l 1
 307 52 319 46 331 46 c 0
 364 46 387 74 403 100 c 1
 459 71 l 1
 438 30 397 -26 322 -26 c 0x90
 296 -26 274 -18 256 -7 c 1
 220 -71 l 1
 166 -40 l 1
 205 28 l 1
 193 36 181 42 169 42 c 0
 136 42 113 14 97 -12 c 1
 41 17 l 1x70
50 317 m 1
 50 417 l 1
 210 431 309 499 400 607 c 1
 450 553 l 1
 356 445 282 393 148 367 c 1
 282 341 356 289 450 181 c 1
 400 127 l 1
 309 235 210 303 50 317 c 1
EndSplineSet
EndChar
StartChar: uni2308
Encoding: 8968 8968 853
Width: 322
Flags: W
IsExtendedShape: 1
GlyphVariantsVertical: uni2308 uni2308.size1 uni2308.size2 uni2308.size3 uni2308.size4 uni2308.size5 uni2308.size6 uni2308.size7 uni2308.size8 uni2308.size9 uni2308.size10 uni2308.size11 uni2308.size12 uni2308.size13 uni2308.size14 uni2308.size15
GlyphCompositionVertical: 2  uni2308.ext%1,0,150,600 uni2308.top%0,150,150,1600
HStem: 669 77<152 272>
VStem: 65 87<-186 669>
LayerCount: 2
Fore
SplineSet
272 746 m 1
 272 669 l 1
 152 669 l 1
 152 669 152 -186 152 -186 c 1
 65 -186 l 1
 65 746 l 1
 272 746 l 1
EndSplineSet
EndChar
StartChar: uni239D
Encoding: 9117 9117 860
Width: 599
Flags: W
HStem: 0 21G<314 528.182>
VStem: 72 120<2701.46 2956>
LayerCount: 2
Fore
SplineSet
72 2956 m 9
 192 2956 l 17
 192 1934 253 987 535 22 c 1
 460 0 l 1
 168 940 72 1856 72 2956 c 9
EndSplineSet
EndChar
StartChar: uni239E
Encoding: 9118 9118 952
Width: 599
Flags: W
HStem: 0 21G<407 527>
VStem: 407 120<0 254.543>
LayerCount: 2
Fore
SplineSet
64 2934 m 1
 139 2956 l 1
 431 2016 527 1100 527 0 c 9
 407 0 l 17
 407 1022 346 1969 64 2934 c 1
EndSplineSet
EndChar
StartChar: uni23A2
Encoding: 9122 9122 956
Width: 521
Flags: W
HStem: 0 21G<105 215>
VStem: 105 110<0 600>
LayerCount: 2
Fore
SplineSet
105 0 m 1
 105 600 l 1
 215 600 l 1
 215 0 l 1
 105 0 l 1
EndSplineSet
EndChar
StartChar: uni23A4
Encoding: 9124 9124 958
Width: 521
Flags: W
HStem: 0 21G<306 416> 2867 89<64 306>
VStem: 306 110<0 2867>
LayerCount: 2
Fore
SplineSet
64 2867 m 1
 64 2956 l 1
 416 2956 l 1
 416 0 l 1
 306 0 l 1
 306 2867 l 1
 64 2867 l 1
EndSplineSet
EndChar
StartChar: uni23A5
Encoding: 9125 9125 868
Width: 521
Flags: W
HStem: 0 21G<306 416>
VStem: 306 110<0 600>
LayerCount: 2
Fore
SplineSet
306 0 m 1
 306 600 l 1
 416 600 l 1
 416 0 l 1
 306 0 l 1
EndSplineSet
EndChar
StartChar: uni23A6
Encoding: 9126 9126 960
Width: 521
Flags: W
HStem: 0 89<64 306>
VStem: 306 110<89 2956>
LayerCount: 2
Fore
SplineSet
64 0 m 1
 64 89 l 1
 306 89 l 1
 306 2956 l 1
 416 2956 l 1
 416 0 l 1
 64 0 l 1
EndSplineSet
EndChar
StartChar: uni23A8
Encoding: 9128 9128 962
Width: 670
Flags: W
HStem: 0 21G<280 390> 957 86<90 165.878>
VStem: 280 110<0 771.61 1228.39 2000>
LayerCount: 2
Fore
SplineSet
90 957 m 1
 90 1043 l 1
 210 1043 280 1173 280 1437 c 2
 280 2000 l 25
 390 2000 l 25
 390 1414 l 2
 390 1158 316 1034 232 1000 c 1
 316 966 390 842 390 586 c 2
 390 0 l 25
 280 0 l 25
 280 563 l 2
 280 827 210 957 90 957 c 1
EndSplineSet
EndChar
StartChar: uni23B5
Encoding: 9141 9141 969
Width: 802
Flags: W
GlyphVariantsHorizontal: uni23B5 uni23B5.size1 uni23B5.size2 uni23B5.size3 uni23B5.size4 uni23B5.size5 uni23B5.size6 uni23B5.size7 uni23B5.size8 uni23B5.size9 uni23B5.size10 uni23B5.size11 uni23B5.size12 uni23B5.size13 uni23B5.size14 uni23B5.size15
GlyphCompositionHorizontal: 3  uni23B5.left%0,0,150,2956 uni23B5.ext%1,150,150,700 uni23B5.right%0,150,0,2956
HStem: -360 200<32 104 698 770> -360 80<104 698>
VStem: 32 72<-280 -160> 698 72<-280 -160>
LayerCount: 2
Fore
SplineSet
32 -160 m 1xb0
 104 -160 l 1xb0
 104 -280 l 1
 698 -280 l 1x70
 698 -160 l 1
 770 -160 l 1
 770 -360 l 1
 32 -360 l 1
 32 -160 l 1xb0
EndSplineSet
EndChar
StartChar: uni23DE
Encoding: 9182 9182 972
Width: 802
Flags: W
GlyphVariantsHorizontal: uni23DE uni23DE.size1 uni23DE.size2 uni23DE.size3 uni23DE.size4 uni23DE.size5 uni23DE.size6 uni23DE.size7 uni23DE.size8 uni23DE.size9 uni23DE.size10 uni23DE.size11 uni23DE.size12 uni23DE.size13 uni23DE.size14 uni23DE.size15
GlyphCompositionHorizontal: 5  uni23DE.left%0,0,150,1400 uni23DE.ext%1,150,150,600 uni23DE.mid%0,150,150,2000 uni23DE.ext%1,150,150,600 uni23DE.right%0,150,0,1400
HStem: 733 80<113.046 350.762 451.238 688.954>
VStem: 32 66<640 718.5> 370 62<832.934 876> 704 66<640 718.5>
CounterMasks: 1 70
LayerCount: 2
Fore
SplineSet
32 640 m 1
 32 762 69 813 157 813 c 2
 270 813 l 2
 332 813 370 834 370 876 c 1
 432 876 l 1
 432 834 470 813 532 813 c 2
 645 813 l 2
 733 813 770 762 770 640 c 1
 704 640 l 1
 704 700 688 733 646 733 c 2
 512 733 l 2
 451 733 424 749 401 791 c 1
 378 749 351 733 290 733 c 2
 156 733 l 2
 114 733 98 700 98 640 c 1
 32 640 l 1
EndSplineSet
EndChar
StartChar: uni2582
Encoding: 9602 9602 885
Width: 600
Flags: W
HStem: -500 375<0 600 0 600>
VStem: 0 600<-500 -125 -500 -125>
LayerCount: 2
Fore
SplineSet
600 -125 m 1
 600 -500 l 1
 0 -500 l 1
 0 -125 l 1
 600 -125 l 1
EndSplineSet
EndChar
StartChar: uni2588
Encoding: 9608 9608 982
Width: 600
Flags: W
HStem: -500 1500<0 600 0 600>
VStem: 0 600<-500 1000 -500 1000>
LayerCount: 2
Fore
SplineSet
600 1000 m 1
 600 -500 l 1
 0 -500 l 1
 0 1000 l 1
 600 1000 l 1
EndSplineSet
EndChar
StartChar: uni258D
Encoding: 9613 9613 987
Width: 600
Flags: W
HStem: -500 1500<0 225 0 225>
VStem: 0 225<-500 1000 -500 1000>
LayerCount: 2
Fore
SplineSet
225 1000 m 1
 225 -500 l 1
 0 -500 l 1
 0 1000 l 1
 225 1000 l 1
EndSplineSet
EndChar
StartChar: uni2595
Encoding: 9621 9621 992
Width: 600
Flags: W
HStem: -500 1500<525 600 525 600>
VStem: 525 75<-500 1000 -500 1000>
LayerCount: 2
Fore
SplineSet
600 1000 m 1
 600 -500 l 1
 525 -500 l 1
 525 1000 l 1
 600 1000 l 1
EndSplineSet
EndChar
StartChar: uni259A
Encoding: 9626 9626 997
Width: 600
Flags: W
HStem: -500 1500<0 600 0 300>
VStem: 0 300<251 1000> 300 300<-500 250 250 250 -500 1000 -500 251>
LayerCount: 2
Fore
SplineSet
300 1000 m 1xc0
 300 251 l 1xc0
 600 251 l 1
 600 -500 l 1
 300 -500 l 1
 300 250 l 1xa0
 0 250 l 1
 0 1000 l 1
 300 1000 l 1xc0
EndSplineSet
EndChar
StartChar: uni25A2
Encoding: 9634 9634 1005
Width: 740
Flags: W
HStem: 0 92<220.588 519.412> 472 92<220.588 519.412>
VStem: 88 92<132.588 431.412> 560 92<132.588 431.412>
LayerCount: 2
Fore
SplineSet
320 564 m 2
 420 564 l 2
 600 564 652 512 652 332 c 2
 652 232 l 2
 652 52 600 -0 420 0 c 2
 321 0 l 2
 141 0 88 52 88 232 c 2
 88 332 l 2
 88 512 140 564 320 564 c 2
320 472 m 2
 212 472 180 440 180 332 c 2
 180 232 l 2
 180 124 212 92 320 92 c 2
 420 92 l 2
 528 92 560 124 560 232 c 2
 560 332 l 2
 560 440 528 472 420 472 c 2
 320 472 l 2
EndSplineSet
EndChar
StartChar: uni25AA
Encoding: 9642 9642 1007
Width: 503
Flags: W
HStem: 0 384<60 443>
VStem: 60 383<0 384>
LayerCount: 2
Fore
SplineSet
443 384 m 1
 443 0 l 1
 60 0 l 1
 60 384 l 1
 443 384 l 1
EndSplineSet
EndChar
StartChar: uni25B2
Encoding: 9650 9650 1013
Width: 600
Flags: W
HStem: 0 21G<30 570 30 30> 520 20G<300 300>
VStem: 30 540<0 0>
LayerCount: 2
Fore
SplineSet
300 540 m 1
 570 0 l 1
 30 0 l 1
 300 540 l 1
EndSplineSet
EndChar
StartChar: uni25C4
Encoding: 9668 9668 1018
Width: 600
Flags: W
HStem: 0 21G<570 570> 520 20G<570 570>
VStem: 30 540<270 270>
LayerCount: 2
Fore
SplineSet
570 540 m 1
 570 0 l 1
 30 270 l 1
 570 540 l 1
EndSplineSet
EndChar
StartChar: uni25C9
Encoding: 9673 9673 930
Width: 600
Flags: W
HStem: 0 80<247.5 352 247.5 374.5> 160 220<269.5 330> 460 80<247.5 352>
VStem: 30 80<217.5 322 217.5 344.5> 190 220<239.5 300> 490 80<217.5 322>
LayerCount: 2
Fore
SplineSet
300 540 m 0
 449 540 570 419 570 270 c 0
 570 120 449 0 300 0 c 0
 150 0 30 120 30 270 c 0
 30 419 150 540 300 540 c 0
300 460 m 0
 195 460 110 374 110 270 c 0
 110 165 195 80 300 80 c 0
 404 80 490 165 490 270 c 0
 490 374 404 460 300 460 c 0
300 380 m 0
 360 380 410 330 410 270 c 0
 410 209 360 160 300 160 c 0
 239 160 190 209 190 270 c 0
 190 330 239 380 300 380 c 0
EndSplineSet
EndChar
StartChar: uni25D0
Encoding: 9680 9680 1026
Width: 600
Flags: W
HStem: 0 80<300 352 300 374.5> 460 80<300 352>
VStem: 30 270<195 344.5> 490 80<217.5 322>
LayerCount: 2
Fore
SplineSet
300 540 m 0
 449 540 570 419 570 270 c 0
 570 120 449 0 300 0 c 0
 150 0 30 120 30 270 c 0
 30 419 150 540 300 540 c 0
300 460 m 1
 300 80 l 1
 404 80 490 165 490 270 c 0
 490 374 404 460 300 460 c 1
EndSplineSet
EndChar
StartChar: uni25D6
Encoding: 9686 9686 940
Width: 600
Flags: W
HStem: 0 21G<225 300> 520 20G<225 300>
VStem: 30 270<195 344.5>
LayerCount: 2
Fore
SplineSet
300 540 m 1
 300 0 l 1
 150 0 30 120 30 270 c 0
 30 419 150 540 300 540 c 1
EndSplineSet
EndChar
StartChar: uni25DA
Encoding: 9690 9690 943
Width: 600
Flags: W
HStem: 270 150<150 341 258.5 341 258.5 450> 270 270<30 70 30 570 150 150 150 450 530 570 530 530> 500 40<236.5 363>
VStem: 30 40<270 333 270 540> 530 40<270 333>
LayerCount: 2
Fore
SplineSet
570 540 m 1xb8
 570 270 l 1
 530 270 l 1x58
 530 396 426 500 300 500 c 0xb8
 173 500 70 396 70 270 c 1
 30 270 l 1x58
 30 540 l 1
 570 540 l 1xb8
300 420 m 0xb8
 382 420 450 352 450 270 c 1
 150 270 l 1
 150 352 217 420 300 420 c 0xb8
EndSplineSet
EndChar
StartChar: uni25DD
Encoding: 9693 9693 946
Width: 600
Flags: W
HStem: 460 80<300 352>
VStem: 490 80<270 322>
LayerCount: 2
Fore
SplineSet
300 540 m 1
 449 540 570 419 570 270 c 1
 490 270 l 1
 490 374 404 460 300 460 c 1
 300 540 l 1
EndSplineSet
EndChar
StartChar: uni25E1
Encoding: 9697 9697 1041
Width: 600
Flags: W
HStem: 0 80<247.5 352 247.5 374.5>
VStem: 30 80<217.5 270 217.5 270> 490 80<217.5 270>
LayerCount: 2
Fore
SplineSet
570 270 m 1
 570 120 449 0 300 0 c 0
 150 0 30 120 30 270 c 1
 110 270 l 1
 110 165 195 80 300 80 c 0
 404 80 490 165 490 270 c 1
 570 270 l 1
EndSplineSet
EndChar
StartChar: uni25E8
Encoding: 9704 9704 1047
Width: 600
Flags: W
HStem: 0 80<110 300 110 570> 460 80<110 300 110 110>
VStem: 30 80<80 460 80 540> 300 270<80 460 460 460>
LayerCount: 2
Fore
SplineSet
570 540 m 1
 570 0 l 1
 30 0 l 1
 30 540 l 1
 570 540 l 1
300 460 m 1
 110 460 l 1
 110 80 l 1
 300 80 l 1
 300 460 l 1
EndSplineSet
EndChar
StartChar: uni25EA
Encoding: 9706 9706 1049
Width: 600
Flags: W
HStem: 0 80<110 110 110 570> 460 80<110 490 110 110>
VStem: 30 80<80 460 80 540> 490 80<460 460>
LayerCount: 2
Fore
SplineSet
570 540 m 1
 570 0 l 1
 30 0 l 1
 30 540 l 1
 570 540 l 1
490 460 m 1
 110 460 l 1
 110 80 l 1
 490 460 l 1
EndSplineSet
EndChar
StartChar: uni2642
Encoding: 9794 9794 1066
Width: 600
Flags: W
HStem: 0 44<188 252 188 264.5> 267 46<188 236 175.5 252> 441 40.5
VStem: 60 51<123 187 123 199.5> 330 51<123 174.5 110.5 187> 493.5 41
LayerCount: 2
Fore
SplineSet
315 487 m 1
 529 476 l 1
 540 262 l 1
 496 260 l 1
 491 359 l 2
 490 376 491 391 494 407 c 1
 492 408 l 1
 344 257 l 1
 367 229 381 194 381 155 c 0
 381 66 309 0 220 0 c 0
 131 0 60 66 60 155 c 0
 60 244 131 313 220 313 c 0
 252 313 282 303 307 288 c 1
 459 439 l 1
 458 441 l 1
 442 440 429 440 411 441 c 2
 311 445 l 1
 315 487 l 1
220 267 m 0
 156 267 111 219 111 155 c 0
 111 91 156 44 220 44 c 0
 284 44 330 91 330 155 c 0
 330 219 284 267 220 267 c 0
EndSplineSet
EndChar
StartChar: uni27C2
Encoding: 10178 10178 1073
Width: 719
Flags: W
HStem: 0 72<72 318 401 647>
VStem: 318 83<72 620>
LayerCount: 2
Fore
SplineSet
72 0 m 1
 72 72 l 1
 318 72 l 1
 318 620 l 1
 401 620 l 1
 401 72 l 1
 647 72 l 1
 647 0 l 1
 72 0 l 1
EndSplineSet
EndChar
StartChar: uni27E9
Encoding: 10217 10217 1075
Width: 336
Flags: W
IsExtendedShape: 1
GlyphVariantsVertical: uni27E9 uni27E9.size1 uni27E9.size2 uni27E9.size3 uni27E9.size4 uni27E9.size5 uni27E9.size6 uni27E9.size7 uni27E9.size8 uni27E9.size9 uni27E9.size10 uni27E9.size11 uni27E9.size12 uni27E9.size13 uni27E9.size14 uni27E9.size15
LayerCount: 2
Fore
SplineSet
110 760 m 1
 40 732 l 1
 210 280 l 1
 40 -172 l 1
 110 -200 l 1
 296 280 l 1
 110 760 l 1
EndSplineSet
EndChar
StartChar: uni27EF
Encoding: 10223 10223 1079
Width: 287
Flags: W
IsExtendedShape: 1
GlyphVariantsVertical: uni27EF uni27EF.size1 uni27EF.size2 uni27EF.size3 uni27EF.size4 uni27EF.size5 uni27EF.size6 uni27EF.size7 uni27EF.size8 uni27EF.size9 uni27EF.size10 uni27EF.size11 uni27EF.size12 uni27EF.size13 uni27EF.size14 uni27EF.size15
GlyphCompositionVertical: 3  uni27EF.bot%0,0,150,2956 uni27EF.ext%1,150,150,600 uni27EF.top%0,150,0,2956
VStem: 143 88<29.2918 530.708>
LayerCount: 2
Fore
SplineSet
50 -175 m 1
 138 -3 143 105 143 241 c 2
 143 319 l 2
 143 455 138 563 50 735 c 1
 108 775 l 1
 204 597 231 497 231 339 c 2
 231 221 l 2
 231 63 204 -37 108 -215 c 1
 50 -175 l 1
EndSplineSet
EndChar
StartChar: uni27F5
Encoding: 10229 10229 988
Width: 1640
Flags: W
LayerCount: 2
Fore
SplineSet
330 492 m 1
 100 280 l 1
 330 68 l 1
 384 128 l 1
 260 240 l 1
 1540 240 l 1
 1540 320 l 1
 260 320 l 1
 384 432 l 1
 330 492 l 1
EndSplineSet
EndChar
StartChar: uni27F9
Encoding: 10233 10233 1084
Width: 1640
Flags: W
HStem: 144 78<100 1290> 338 78<100 1290>
LayerCount: 2
Fore
SplineSet
100 144 m 1
 100 222 l 1
 1370 222 l 1
 1432 280 l 1
 1370 338 l 1
 100 338 l 1
 100 416 l 1
 1290 416 l 1
 1208 492 l 1
 1260 548 l 1
 1540 280 l 1
 1260 12 l 1
 1208 68 l 1
 1290 144 l 1
 100 144 l 1
EndSplineSet
EndChar
StartChar: uni27FE
Encoding: 10238 10238 1089
Width: 1640
Flags: W
HStem: 144 78<180 1290> 338 78<180 1290> 508 20G<100 180>
VStem: 100 80<32 144 222 338 416 528>
LayerCount: 2
Fore
SplineSet
180 222 m 1
 1370 222 l 1
 1432 280 l 1
 1370 338 l 1
 180 338 l 1
 180 222 l 1
100 528 m 1
 180 528 l 1
 180 416 l 1
 1290 416 l 1
 1208 492 l 1
 1260 548 l 1
 1540 280 l 1
 1260 12 l 1
 1208 68 l 1
 1290 144 l 1
 180 144 l 1
 180 32 l 1
 100 32 l 1
 100 528 l 1
EndSplineSet
EndChar
StartChar: uni299F
Encoding: 10655 10655 1897
Width: 772
Flags: W
HStem: 0 80<260 700>
LayerCount: 2
Fore
SplineSet
12 0 m 1
 649 469 l 1
 700 404 l 1
 260 80 l 1
 700 80 l 1
 700 0 l 1
 12 0 l 1
EndSplineSet
EndChar
StartChar: uni29A0
Encoding: 10656 10656 1906
Width: 703
Flags: W
HStem: -7 21G<257.5 296.333> 509 20G<94.5068 150.347>
VStem: 179 80<188.756 371.244>
LayerCount: 2
Fore
SplineSet
72 104 m 1
 194 156 l 1
 184 196 179 237 179 280 c 0
 179 323 184 364 194 404 c 1
 72 456 l 1
 103 529 l 1
 219 480 l 1
 232 511 248 540 267 567 c 1
 333 522 l 1
 317 499 304 474 293 448 c 1
 691 280 l 1
 293 112 l 1
 304 86 317 61 333 38 c 1
 267 -7 l 1
 248 20 232 49 219 80 c 1
 103 31 l 1
 72 104 l 1
259 280 m 0
 259 248 262 218 269 188 c 1
 487 280 l 1
 269 372 l 1
 262 342 259 312 259 280 c 0
EndSplineSet
EndChar
StartChar: uni29A3
Encoding: 10659 10659 1899
Width: 692
Flags: W
HStem: 0 80<72 492>
LayerCount: 2
Fore
SplineSet
72 0 m 1
 72 80 l 1
 492 80 l 1
 118 490 l 1
 180 547 l 1
 680 0 l 1
 72 0 l 1
EndSplineSet
EndChar
StartChar: uni29A6
Encoding: 10662 10662 1900
Width: 1215
Flags: W
HStem: 0 80<589 1155>
LayerCount: 2
Fore
SplineSet
54 540 m 1
 116 597 l 1
 589 80 l 1
 1155 80 l 1
 1155 0 l 1
 547 0 l 1
 54 540 l 1
EndSplineSet
EndChar
StartChar: uni29A7
Encoding: 10663 10663 1901
Width: 1215
Flags: W
HStem: 0 21G<94.2456 134.298> 517 80<589 1155>
LayerCount: 2
Fore
SplineSet
54 57 m 1
 547 597 l 1
 1155 597 l 1
 1155 517 l 1
 589 517 l 1
 116 0 l 1
 54 57 l 1
EndSplineSet
EndChar
StartChar: uni29B0
Encoding: 10672 10672 1890
Width: 900
Flags: W
HStem: -16 78<342.817 559.576> 638 78<340.424 557.183>
VStem: 84 78<242.817 459.913> 738 78<240.087 457.183>
LayerCount: 2
Fore
SplineSet
84 350 m 0
 84 456 129 551 201 618 c 1
 128 716 l 1
 222 716 l 1
 261 664 l 1
 316 697 381 716 450 716 c 0
 652 716 816 552 816 350 c 0
 816 244 771 149 699 82 c 1
 772 -16 l 1
 678 -16 l 1
 639 36 l 1
 584 3 519 -16 450 -16 c 0
 248 -16 84 148 84 350 c 0
162 350 m 0
 162 191 291 62 450 62 c 0
 501 62 549 75 591 99 c 1
 248 556 l 1
 195 504 162 431 162 350 c 0
309 601 m 1
 652 144 l 1
 705 196 738 269 738 350 c 0
 738 509 609 638 450 638 c 0
 399 638 351 625 309 601 c 1
EndSplineSet
EndChar
StartChar: uni2A0C
Encoding: 10764 10764 1103
Width: 1479
Flags: W
ItalicCorrection: 240
IsExtendedShape: 1
GlyphVariantsVertical: uni2A0C.display
HStem: -211 69<-3.10938 120.552 276.891 400.552 556.891 680.552 836.891 960.552> 759 69<418.448 542.109 698.448 822.109 978.448 1102.11 1258.45 1382.11>
LayerCount: 2
Fore
SplineSet
1036 101 m 2
 1100 541 l 2
 1135 779 1212 828 1299 828 c 3
 1345 828 1384 814 1415 791 c 1
 1383 732 l 1
 1359 747 1334 759 1308 759 c 3
 1261 759 1213 719 1183 516 c 2
 1119 76 l 2
 1084 -162 1007 -211 920 -211 c 3
 874 -211 835 -197 804 -174 c 1
 836 -115 l 1
 860 -130 885 -142 911 -142 c 3
 958 -142 1006 -102 1036 101 c 2
756 101 m 2
 820 541 l 2
 855 779 932 828 1019 828 c 3
 1065 828 1104 814 1135 791 c 1
 1103 732 l 1
 1079 747 1054 759 1028 759 c 3
 981 759 933 719 903 516 c 2
 839 76 l 2
 804 -162 727 -211 640 -211 c 3
 594 -211 555 -197 524 -174 c 1
 556 -115 l 1
 580 -130 605 -142 631 -142 c 3
 678 -142 726 -102 756 101 c 2
476 101 m 2
 540 541 l 2
 575 779 652 828 739 828 c 3
 785 828 824 814 855 791 c 1
 823 732 l 1
 799 747 774 759 748 759 c 3
 701 759 653 719 623 516 c 2
 559 76 l 2
 524 -162 447 -211 360 -211 c 3
 314 -211 275 -197 244 -174 c 1
 276 -115 l 1
 300 -130 325 -142 351 -142 c 3
 398 -142 446 -102 476 101 c 2
196 101 m 2
 260 541 l 2
 295 779 372 828 459 828 c 3
 505 828 544 814 575 791 c 1
 543 732 l 1
 519 747 494 759 468 759 c 3
 421 759 373 719 343 516 c 2
 279 76 l 2
 244 -162 167 -211 80 -211 c 3
 34 -211 -5 -197 -36 -174 c 1
 -4 -115 l 1
 20 -130 45 -142 71 -142 c 3
 118 -142 166 -102 196 101 c 2
EndSplineSet
EndChar
StartChar: uni2B31
Encoding: 11057 11057 1106
Width: 1040
VWidth: 1440
Flags: W
HStem: -190 80<280 920> 240 80<280 920> 670 80<280 920>
CounterMasks: 1 e0
LayerCount: 2
Fore
SplineSet
350 -362 m 1
 120 -150 l 1
 350 62 l 1
 404 2 l 1
 280 -110 l 1
 920 -110 l 1
 920 -190 l 1
 280 -190 l 1
 404 -302 l 1
 350 -362 l 1
350 498 m 1
 120 710 l 1
 350 922 l 1
 404 862 l 1
 280 750 l 1
 920 750 l 1
 920 670 l 1
 280 670 l 1
 404 558 l 1
 350 498 l 1
350 68 m 1
 120 280 l 1
 350 492 l 1
 404 432 l 1
 280 320 l 1
 920 320 l 1
 920 240 l 1
 280 240 l 1
 404 128 l 1
 350 68 l 1
EndSplineSet
EndChar
StartChar: uniFB04
Encoding: 64260 64260 1112
Width: 877
Flags: W
HStem: -12 76<787 792.5> 0 21G<94 186 94 94 379 471 379 379> 456 71<10 94 10 94 186 379 471 589> 666 74<240.5 294> 676 74<525.5 577 523 581>
VStem: 94 92<0 456 0 456 527 589 589 590> 379 92<0 456 0 456 527 599 599 600> 674 92<104 106 106 659 659 659>
LayerCount: 2
Fore
SplineSet
833 70 m 1xb7
 857 6 l 1
 832 -6 806 -12 779 -12 c 0
 712 -12 674 28 674 104 c 2
 674 659 l 1
 634 671 603 676 559 676 c 0
 492 676 471 651 471 600 c 2xaf
 471 527 l 1
 599 527 l 1
 589 456 l 1
 471 456 l 1
 471 0 l 1
 379 0 l 1
 379 456 l 1
 186 456 l 1
 186 0 l 1
 94 0 l 1
 94 456 l 1
 10 456 l 1
 10 527 l 1
 94 527 l 1
 94 589 l 2
 94 677 151 740 268 740 c 0x77
 323 740 363 731 420 705 c 1
 449 733 493 750 553 750 c 0
 601 750 634 743 675 730 c 1x6f
 766 742 l 1
 766 106 l 2
 766 78 775 64 799 64 c 0
 812 64 823 66 833 70 c 1xb7
379 527 m 1
 379 599 l 2
 379 615 381 631 385 645 c 1
 345 660 314 666 274 666 c 0
 207 666 186 641 186 590 c 2x77
 186 527 l 1
 379 527 l 1
EndSplineSet
EndChar
StartChar: u1D409
Encoding: 119817 119817 1123
Width: 317
Flags: W
TopAccentHorizontal: 174
HStem: 673 20G<92 256 256 256>
VStem: 92 164<111 693>
LayerCount: 2
Fore
SplineSet
256 693 m 1
 256 105 l 2
 256 -70 150 -131 33 -169 c 1
 -11 -53 l 1
 79 -18 92 29 92 111 c 2
 92 693 l 1
 256 693 l 1
EndSplineSet
Validated: 1
EndChar
StartChar: u1D41F
Encoding: 119839 119839 1145
Width: 356
Flags: W
ItalicCorrection: 100
TopAccentHorizontal: 286
HStem: 0 21G<83 241 83 83> 421 110<3 83 3 83 241 349> 642 117<282 313.5 218 316.5>
VStem: 83 158<0 421 0 421 531 572 0 578 0 629>
LayerCount: 2
Fore
SplineSet
305 642 m 0
 259 642 241 622 241 572 c 2
 241 531 l 1
 366 531 l 1
 349 421 l 1
 241 421 l 1
 241 0 l 1
 83 0 l 1
 83 421 l 1
 3 421 l 1
 3 531 l 1
 83 531 l 1
 83 578 l 2
 83 680 150 759 286 759 c 0
 341 759 392 745 431 725 c 1
 388 622 l 1
 358 637 328 642 305 642 c 0
EndSplineSet
Validated: 1
EndChar
StartChar: u1D438
Encoding: 119864 119864 1069
Width: 529
Flags: W
ItalicCorrection: 60
TopAccentHorizontal: 343
HStem: 0 76<167 439> 312 76<210 430 200 440> 613 76<242 507 242 242>
VStem: 62 466
LayerCount: 2
Fore
SplineSet
528 689 m 1
 507 613 l 1
 242 613 l 1
 210 388 l 1
 440 388 l 1
 430 312 l 1
 200 312 l 1
 167 76 l 1
 450 76 l 1
 439 0 l 1
 62 0 l 1
 159 689 l 1
 528 689 l 1
EndSplineSet
Validated: 1
EndChar
StartChar: u1D44F
Encoding: 119887 119887 1092
Width: 579
Flags: W
TopAccentHorizontal: 227
HStem: -12 73<234.5 318.5 234.5 350> 466 73<338.5 367.5> 730 20G<253 253>
VStem: 433 95<280 386>
LayerCount: 2
Fore
SplineSet
367 539 m 0
 465 539 528 465 528 332 c 0
 528 184 454 -12 246 -12 c 0
 186 -12 136 -2 60 23 c 1
 161 739 l 1
 253 750 l 1
 215 475 l 1
 262 516 310 539 367 539 c 0
341 466 m 0
 284 466 241 430 203 390 c 1
 160 77 l 1
 193 65 216 61 253 61 c 0
 384 61 433 221 433 339 c 0
 433 433 394 466 341 466 c 0
EndSplineSet
Validated: 1
EndChar
StartChar: u1D452
Encoding: 119890 119890 1196
Width: 517
Flags: W
TopAccentHorizontal: 323
HStem: -12 77<228.5 286.5 228.5 288> 466 73<267 350.5>
VStem: 52 96 394 96<357 414.5>
LayerCount: 2
Fore
SplineSet
490 405 m 0
 490 257 332 216 148 196 c 1
 150 100 195 65 262 65 c 0
 311 65 355 80 403 114 c 1
 442 52 l 1
 385 11 323 -12 253 -12 c 0
 124 -12 52 69 52 202 c 0
 52 346 123 539 323 539 c 0
 435 539 490 475 490 405 c 0
153 266 m 1
 304 283 394 312 394 402 c 0
 394 427 379 466 322 466 c 0
 212 466 166 362 153 266 c 1
EndSplineSet
Validated: 1
EndChar
StartChar: u1D454
Encoding: 119892 119892 1198
Width: 580
Flags: W
ItalicCorrection: 20
TopAccentHorizontal: 352
HStem: -216 79<177.5 239 176.5 271> 0 73<212 249> 466 73<270 355>
VStem: 51 98<153.5 261 153.5 276.5>
LayerCount: 2
Fore
SplineSet
337 539 m 0
 406 539 463 523 523 494 c 1
 450 12 l 2
 425 -158 333 -216 209 -216 c 0
 146 -216 77 -196 27 -165 c 1
 62 -95 l 1
 94 -114 149 -137 204 -137 c 0
 274 -137 343 -116 361 13 c 2
 370 80 l 1
 331 33 278 0 220 0 c 0
 114 0 51 78 51 198 c 0
 51 355 130 539 337 539 c 0
337 466 m 0
 203 466 149 325 149 197 c 0
 149 110 185 73 239 73 c 0
 297 73 342 117 383 172 c 1
 426 449 l 1
 396 461 373 466 337 466 c 0
EndSplineSet
Validated: 1
EndChar
StartChar: u1D456
Encoding: 119894 119894 1098
Width: 319
Flags: W
ItalicCorrection: 15
TopAccentHorizontal: 208
HStem: 0 21G<57 150.808> 507 20G<128.192 222> 655 125<156.974 249.026>
VStem: 139 128<673.253 761.747>
LayerCount: 2
Fore
SplineSet
198 655 m 0
 162 655 139 680 139 712 c 0
 139 751 169 780 208 780 c 0
 244 780 267 755 267 723 c 0
 267 684 237 655 198 655 c 0
222 527 m 1
 148 0 l 1
 57 0 l 1
 131 527 l 1
 222 527 l 1
EndSplineSet
EndChar
StartChar: u1D478
Encoding: 119928 119928 1233
Width: 680
Flags: W
ItalicCorrection: 30
TopAccentHorizontal: 419
HStem: -17 60 -17 120<279.5 367.5> 590 120<313.5 425>
VStem: 39 166<197 309 197 359.5> 499 166<385.5 497>
LayerCount: 2
Fore
SplineSet
665 426 m 0x78
 665 287 617 115 469 43 c 1
 562 39 614 15 659 -22 c 1xb8
 546 -148 l 1
 493 -76 431 -17 304 -17 c 0
 135 -17 39 87 39 267 c 0
 39 452 125 710 401 710 c 0
 569 710 665 607 665 426 c 0x78
205 249 m 0
 205 145 244 103 315 103 c 0
 466 103 499 324 499 447 c 0
 499 547 461 590 389 590 c 0
 238 590 205 369 205 249 c 0
EndSplineSet
Validated: 1
EndChar
StartChar: u1D47E
Encoding: 119934 119934 1138
Width: 837
Flags: W
ItalicCorrection: 90
TopAccentHorizontal: 498
HStem: 0 124<218 218 218 290> 529 164<455 455> 673 20G<71 229 229 229 393 563 563 563 731 886 886 886>
VStem: 78.5 145 460.5 107
LayerCount: 2
Fore
SplineSet
886 693 m 1xb8
 675 0 l 1
 466 0 l 1
 455 529 l 1xd8
 290 0 l 1
 86 0 l 1
 71 693 l 1
 229 693 l 1
 218 124 l 1
 393 693 l 1
 563 693 l 1
 572 124 l 1
 731 693 l 1
 886 693 l 1xb8
EndSplineSet
Validated: 1
EndChar
StartChar: u1D481
Encoding: 119937 119937 1242
Width: 534
Flags: W
ItalicCorrection: 60
TopAccentHorizontal: 335
HStem: 0 130.5 566 127<108 360 90 563>
VStem: -20 583
LayerCount: 2
Fore
SplineSet
-20 0 m 1
 -4 123 l 1
 360 566 l 1
 90 566 l 1
 108 693 l 1
 563 693 l 1
 546 569 l 1
 186 130 l 1
 489 131 l 1
 455 0 l 1
 -20 0 l 1
EndSplineSet
Validated: 1
EndChar
StartChar: u1D485
Encoding: 119941 119941 1246
Width: 586
Flags: W
ItalicCorrection: 60
TopAccentHorizontal: 535
HStem: -17 116<228 229> 0 21G<350 488 350 350> 433 115<264.5 307 189.5 330> 722 20G<592 592> 738 20G<438 438>
VStem: 26 161<158.5 240 158.5 269.5>
LayerCount: 2
Fore
SplineSet
438 758 m 1x6c
 592 742 l 1
 488 0 l 1
 350 0 l 1x74
 351 76 l 1
 317 25 265 -17 193 -17 c 0xac
 82 -17 26 64 26 197 c 0
 26 342 99 548 280 548 c 0
 334 548 375 527 402 497 c 1
 438 758 l 1x6c
314 433 m 0
 215 433 187 284 187 196 c 0
 187 121 211 99 245 99 c 0
 290 99 327 144 360 197 c 1xac
 388 395 l 1
 368 420 346 433 314 433 c 0
EndSplineSet
Validated: 1
EndChar
StartChar: u1D486
Encoding: 119942 119942 1146
Width: 533
Flags: W
ItalicCorrection: 20
TopAccentHorizontal: 328
HStem: -17 116<252 299> 443 105<278 335.5>
VStem: 27 156 367 157<371 407>
LayerCount: 2
Fore
SplineSet
524 403 m 0
 524 254 350 210 183 193 c 1
 187 122 226 99 278 99 c 0
 323 99 364 115 413 148 c 1
 469 54 l 1
 411 12 340 -17 258 -17 c 0
 103 -17 27 73 27 208 c 0
 27 352 105 548 328 548 c 0
 457 548 524 483 524 403 c 0
190 289 m 1
 323 298 367 346 367 396 c 0
 367 418 355 443 316 443 c 0
 240 443 204 365 190 289 c 1
EndSplineSet
Validated: 1
EndChar
StartChar: u1D487
Encoding: 119943 119943 1147
Width: 536
Flags: W
ItalicCorrection: 100
TopAccentHorizontal: 452
HStem: 421 110<148 212 383 474> 642 117<409.493 550.979>
LayerCount: 2
Fore
SplineSet
465 642 m 0
 419 642 395 621 388 570 c 2
 383 531 l 1
 506 531 l 1
 474 421 l 1
 367 421 l 1
 316 58 l 2
 292 -115 197 -176 69 -222 c 1
 30 -108 l 1
 105 -79 147 -45 160 52 c 2
 212 421 l 1
 133 421 l 1
 148 531 l 1
 227 531 l 1
 234 580 l 2
 248 682 323 759 452 759 c 0
 515 759 564 739 600 715 c 1
 545 621 l 1
 518 638 488 642 465 642 c 0
EndSplineSet
EndChar
StartChar: u1D48A
Encoding: 119946 119946 1251
Width: 317
Flags: W
ItalicCorrection: 30
TopAccentHorizontal: 212
HStem: 0 21G<24 181.787> 511 20G<95.2128 253> 631 179<147.114 256.062>
VStem: 109 186<668.71 773.017>
LayerCount: 2
Fore
SplineSet
192 631 m 0
 142 631 109 665 109 711 c 0
 109 768 154 810 212 810 c 0
 262 810 295 777 295 731 c 0
 295 674 250 631 192 631 c 0
253 531 m 1
 179 0 l 1
 24 0 l 1
 98 531 l 1
 253 531 l 1
EndSplineSet
EndChar
StartChar: u1D48D
Encoding: 119949 119949 1254
Width: 288
Flags: W
ItalicCorrection: 25
TopAccentHorizontal: 221
HStem: -17 21G<114.5 176> 739 20G<279 279>
VStem: 35.23 157.77 35.23 243.77
LayerCount: 2
Fore
SplineSet
279 759 m 1xd0
 193 143 l 2
 190 117 198 108 214 108 c 0
 223 108 231 110 240 113 c 1
 259 3 l 1
 230 -10 193 -17 159 -17 c 0xe0
 70 -17 23 37 38 139 c 2
 123 742 l 1
 279 759 l 1xd0
EndSplineSet
Validated: 33
EndChar
StartChar: u1D49B
Encoding: 119963 119963 1268
Width: 449
Flags: W
ItalicCorrection: 30
TopAccentHorizontal: 267
HStem: 0 120<184 382> 412 119<69 256 52 465>
VStem: -26 491
LayerCount: 2
Fore
SplineSet
465 531 m 1
 450 420 l 1
 184 120 l 1
 413 120 l 1
 382 0 l 1
 -26 0 l 1
 -11 112 l 1
 256 412 l 1
 52 412 l 1
 69 531 l 1
 465 531 l 1
EndSplineSet
Validated: 1
EndChar
StartChar: u1D538
Encoding: 120120 120120 1168
Width: 679
Flags: W
HStem: 0 46<533 585> 187 51<154 409> 636 49<336 388>
LayerCount: 2
Fore
SplineSet
388 636 m 1
 336 636 l 1
 533 46 l 1
 585 46 l 1
 388 636 l 1
485 0 m 1
 425 187 l 1
 137 187 l 1
 77 0 l 1
 16 0 l 1
 245 685 l 1
 431 685 l 1
 662 0 l 1
 485 0 l 1
154 238 m 1
 409 238 l 1
 282 636 l 1
 154 238 l 1
EndSplineSet
EndChar
StartChar: u1D53D
Encoding: 120125 120125 1273
Width: 541
Flags: W
HStem: 0 50<171 222> 318 50<282 468> 635 50<171 222 282 506>
VStem: 111 60<50 635> 222 60<50 318 368 635>
LayerCount: 2
Fore
SplineSet
222 635 m 1
 171 635 l 1
 171 50 l 1
 222 50 l 1
 222 635 l 1
111 0 m 1
 111 685 l 1
 513 685 l 1
 506 635 l 1
 282 635 l 1
 282 368 l 1
 468 368 l 1
 468 318 l 1
 282 318 l 1
 282 0 l 1
 111 0 l 1
EndSplineSet
EndChar
StartChar: u1D546
Encoding: 120134 120134 1280
Width: 691
Flags: W
HStem: -11 51<250.483 441.815> 645 51<250.588 441.235>
VStem: 66 63<189.834 493.52> 190 54<113 573> 447 54<110 574> 562 63<189.847 495.651>
LayerCount: 2
Fore
SplineSet
501 110 m 1
 540 160 562 237 562 342 c 0
 562 448 540 524 501 574 c 1
 501 110 l 1
244 620 m 1
 244 65 l 1
 274 48 308 40 345 40 c 0
 383 40 418 48 447 64 c 1
 447 621 l 1
 418 637 383 645 345 645 c 0
 307 645 273 637 244 620 c 1
190 573 m 1
 151 523 129 446 129 341 c 0
 129 238 151 163 190 113 c 1
 190 573 l 1
345 696 m 0
 512 696 625 573 625 342 c 0
 625 117 515 -11 345 -11 c 0
 180 -11 66 113 66 341 c 0
 66 567 181 696 345 696 c 0
EndSplineSet
EndChar
StartChar: u1D550
Encoding: 120144 120144 1287
Width: 647
Flags: W
HStem: 0 49<306 356> 636 49<106 164>
VStem: 246 60<49 254> 356 60<49 287>
LayerCount: 2
Fore
SplineSet
164 636 m 1
 106 636 l 1
 306 264 l 1
 306 49 l 1
 356 49 l 1
 356 287 l 1
 164 636 l 1
633 685 m 1
 416 288 l 1
 416 0 l 1
 246 0 l 1
 246 254 l 1
 13 685 l 1
 204 685 l 1
 388 341 l 1
 569 685 l 1
 633 685 l 1
EndSplineSet
EndChar
StartChar: u1D557
Encoding: 120151 120151 1192
Width: 407
Flags: W
HStem: 0 48<170 221> 476 47<21 112 279 376>
VStem: 112 58<48 476 523 670.16> 221 58<48 476 523 689>
LayerCount: 2
Fore
SplineSet
279 523 m 1
 384 523 l 1
 376 476 l 1
 279 476 l 1
 279 0 l 1
 112 0 l 1
 112 476 l 1
 21 476 l 1
 21 523 l 1
 112 523 l 1
 112 609 l 2
 112 697 169 743 267 743 c 0
 312 743 360 724 399 706 c 1
 379 663 l 1
 348 677 310 692 279 695 c 1
 279 523 l 1
221 689 m 1
 190 680 170 657 170 607 c 2
 170 48 l 1
 221 48 l 1
 221 689 l 1
EndSplineSet
EndChar
StartChar: u1D558
Encoding: 120152 120152 1193
Width: 526
Flags: W
HStem: -205 48<133.071 329.811> 29 50<153.444 333> 183 42<222.779 292.83> 489 45<226.443 293.484>
VStem: 33 54<-117.351 -55> 56 60<282.091 432.779> 87 55<91.7891 178.849> 164 58<254 461> 294 58<252 462> 333 58<-133 16> 400 59<280.346 433.89> 439 59<-112.363 -3.25788>
LayerCount: 2
Fore
SplineSet
497 568 m 1xf5
 515 512 l 1
 479 502 433 498 370 497 c 1
 425 471 459 427 459 355 c 0
 459 253 378 183 260 183 c 0
 235 183 202 186 182 193 c 1
 157 179 142 157 142 133 c 0xf320
 142 102 162 79 225 79 c 2
 330 79 l 2
 434 79 498 23 498 -55 c 0
 498 -149 414 -205 261 -205 c 0
 103 -205 33 -159 33 -55 c 1
 87 -55 l 1xf910
 88 -128 136 -157 261 -157 c 0
 288 -157 312 -156 333 -152 c 1
 333 29 l 1
 216 29 l 2
 129 29 87 71 87 121 c 0xf340
 87 156 108 187 144 210 c 1
 84 241 56 287 56 357 c 0
 56 462 143 534 258 534 c 0
 398 534 446 547 497 568 c 1xf5
391 16 m 1xf150
 391 -133 l 1
 423 -116 439 -91 439 -58 c 0
 439 -23 422 2 391 16 c 1xf150
294 486 m 1xf180
 283 488 271 489 258 489 c 0
 245 489 233 488 222 486 c 1
 222 228 l 1
 233 226 246 225 258 225 c 0
 271 225 283 226 294 228 c 1
 294 486 l 1xf180
352 462 m 1
 352 252 l 1
 382 274 400 310 400 356 c 0xf1a0
 400 402 383 439 352 462 c 1
164 254 m 1
 164 461 l 1
 133 438 116 401 116 357 c 0xf5
 116 311 134 276 164 254 c 1
EndSplineSet
EndChar
StartChar: u1D560
Encoding: 120160 120160 1302
Width: 587
Flags: W
HStem: -11 49<241.025 348.781> 485 49<238.874 349.411>
VStem: 64 62<138.638 386.98> 180 58<85 438> 350 58<86 438> 462 61<139.775 385.578>
LayerCount: 2
Fore
SplineSet
294 534 m 0
 433 534 523 434 523 263 c 0
 523 94 431 -11 293 -11 c 0
 154 -11 64 93 64 261 c 0
 64 429 157 534 294 534 c 0
238 476 m 1
 238 47 l 1
 255 41 273 38 293 38 c 0
 313 38 333 41 350 47 c 1
 350 476 l 1
 333 482 314 485 294 485 c 0
 274 485 255 482 238 476 c 1
180 438 m 1
 146 401 126 342 126 261 c 0
 126 181 146 122 180 85 c 1
 180 438 l 1
408 86 m 1
 442 123 462 182 462 263 c 0
 462 343 442 401 408 438 c 1
 408 86 l 1
EndSplineSet
EndChar
StartChar: u1D562
Encoding: 120162 120162 1304
Width: 682
Flags: W
HStem: -205 48<474 519> -11 48<241.816 349.118> 475 48<474 519> 486 48<240.67 358.363>
VStem: 64 62<127.568 389.094> 182 58<72 445> 416 58<-157 76 101.489 433.374> 519 58<-157 475>
LayerCount: 2
Fore
SplineSet
270 37 m 0xdf
 339 37 381 72 416 133 c 1
 416 408 l 1
 385 452 343 486 280 486 c 0
 266 486 253 485 240 481 c 1
 240 40 l 1
 250 38 260 37 270 37 c 0xdf
182 445 m 1
 147 408 126 345 126 260 c 0
 126 171 146 108 182 72 c 1
 182 445 l 1
416 -205 m 1
 416 76 l 1
 385 26 334 -11 260 -11 c 0
 138 -11 64 93 64 259 c 0
 64 420 141 534 270 534 c 0xdf
 344 534 389 498 420 460 c 1
 424 523 l 1
 577 523 l 1xef
 577 -205 l 1
 416 -205 l 1
519 -157 m 1
 519 475 l 1
 474 475 l 1xef
 474 -157 l 1
 519 -157 l 1
EndSplineSet
EndChar
StartChar: u1D565
Encoding: 120165 120165 1307
Width: 376
Flags: W
HStem: -11 21G<202 266> 476 47<18 106 273 363> 607 48<164 215>
VStem: 106 58<59.9862 476 523 607> 215 58<43 476 523 607>
LayerCount: 2
Fore
SplineSet
273 523 m 1
 370 523 l 1
 363 476 l 1
 273 476 l 1
 273 42 l 1
 298 48 323 63 344 76 c 1
 367 36 l 1
 332 12 288 -11 244 -11 c 0
 160 -11 106 27 106 127 c 2
 106 476 l 1
 18 476 l 1
 18 523 l 1
 106 523 l 1
 106 655 l 1
 273 655 l 1
 273 523 l 1
215 43 m 1
 215 607 l 1
 164 607 l 1
 164 130 l 2
 164 75 181 51 215 43 c 1
EndSplineSet
EndChar
StartChar: u1D569
Encoding: 120169 120169 1210
Width: 494
Flags: W
HStem: 0 48<340 392> 475 48<112 166>
LayerCount: 2
Fore
SplineSet
216 170 m 1
 98 0 l 1
 31 0 l 1
 186 225 l 1
 28 523 l 1
 198 523 l 1
 283 365 l 1
 392 523 l 1
 458 523 l 1
 312 310 l 1
 478 0 l 1
 306 0 l 1
 216 170 l 1
166 475 m 1
 112 475 l 1
 340 48 l 1
 392 48 l 1
 166 475 l 1
EndSplineSet
EndChar
StartChar: u1D670
Encoding: 120432 120432 1314
Width: 600
Flags: W
HStem: 0 21G<20 106 20 20 489 489 489 579> 176 72<184 411 184 434 161 411> 615 74<298 298> 669 20G<245 355 355 355>
VStem: 20 559<0 0>
LayerCount: 2
Fore
SplineSet
434 176 m 1xd8
 161 176 l 1
 106 0 l 1
 20 0 l 1
 245 689 l 1
 355 689 l 1
 579 0 l 1
 489 0 l 1
 434 176 l 1xd8
184 248 m 1
 411 248 l 1
 298 615 l 1xe8
 184 248 l 1
EndSplineSet
EndChar
StartChar: u1D67B
Encoding: 120443 120443 1224
Width: 600
Flags: W
HStem: 0 77<222 526> 669 20G<136 222 222 222>
VStem: 136 86<77 689 77 689 77 689>
LayerCount: 2
Fore
SplineSet
136 0 m 1
 136 689 l 1
 222 689 l 1
 222 77 l 1
 537 77 l 1
 526 0 l 1
 136 0 l 1
EndSplineSet
EndChar
StartChar: u1D67F
Encoding: 120447 120447 1329
Width: 600
Flags: W
HStem: 0 21G<116 202 116 116> 256 69<202 291 202 299> 620 69<202 291 291 302 202 202>
VStem: 116 86<0 256 0 325 325 620> 464 93<417 529>
LayerCount: 2
Fore
SplineSet
557 477 m 0
 557 316 446 256 291 256 c 2
 202 256 l 1
 202 0 l 1
 116 0 l 1
 116 689 l 1
 291 689 l 2
 456 689 557 621 557 477 c 0
464 476 m 0
 464 582 395 620 302 620 c 2
 202 620 l 1
 202 325 l 1
 299 325 l 2
 394 325 464 358 464 476 c 0
EndSplineSet
EndChar
StartChar: u1D688
Encoding: 120456 120456 1338
Width: 600
Flags: W
HStem: 0 21G<256 344 256 256> 669 20G<23 119 119 119 487 577 577 577>
VStem: 256 88<0 265 265 265>
LayerCount: 2
Fore
SplineSet
344 266 m 1
 344 0 l 1
 256 0 l 1
 256 265 l 1
 23 689 l 1
 119 689 l 1
 302 343 l 1
 487 689 l 1
 577 689 l 1
 344 266 l 1
EndSplineSet
EndChar
StartChar: u1D691
Encoding: 120465 120465 1347
Width: 600
Flags: W
HStem: 0 21G<100 184 100 100 417 501 417 417> 471 67<321.5 356.5> 727 20G<184 184>
VStem: 100 84<0 384 454 738 738 738> 417 84<0 381 381 382 0 412.5>
LayerCount: 2
Fore
SplineSet
184 747 m 1
 184 454 l 1
 226 509 290 538 353 538 c 0
 456 538 501 480 501 382 c 2
 501 0 l 1
 417 0 l 1
 417 381 l 2
 417 444 388 471 325 471 c 0
 266 471 212 425 184 384 c 1
 184 0 l 1
 100 0 l 1
 100 738 l 1
 184 747 l 1
EndSplineSet
EndChar
StartChar: u1D699
Encoding: 120473 120473 1355
Width: 600
Flags: W
HStem: -212 21G<100 100> -202 21G<184 184> -11 70<295 348.5 280 392.5> 470 68<304.5 357.5> 507 20G<100 172 172 172>
VStem: 100 84<-202 49 -202 125 125 386> 436 91<194 332.5>
LayerCount: 2
Fore
SplineSet
336 538 m 0x76
 476 538 527 429 527 264 c 0
 527 104 461 -11 324 -11 c 0
 266 -11 220 9 184 49 c 1
 184 -202 l 1x76
 100 -212 l 1
 100 527 l 1
 172 527 l 1xae
 179 453 l 1
 217 507 273 538 336 538 c 0x76
316 470 m 0
 258 470 213 428 184 386 c 1
 184 125 l 1
 212 84 255 59 305 59 c 0
 392 59 436 124 436 264 c 0
 436 401 399 470 316 470 c 0
EndSplineSet
EndChar
StartChar: u1D69B
Encoding: 120475 120475 1256
Width: 600
Flags: W
HStem: 0 65<105 188 272 379 105 188> 461 77<408.5 445 445 450> 462 65<105 188 105 251>
VStem: 188 84<65 287 65 462> 450 74
LayerCount: 2
Fore
SplineSet
456 538 m 0xd8
 485 538 507 533 530 527 c 1xb8
 518 348 l 1
 450 348 l 1
 450 461 l 1
 445 461 l 2xd8
 364 461 306 403 272 287 c 1
 272 65 l 1
 379 65 l 1
 379 0 l 1
 105 0 l 1
 105 65 l 1
 188 65 l 1
 188 462 l 1
 105 462 l 1
 105 527 l 1
 251 527 l 1xb8
 267 402 l 1
 307 488 361 538 456 538 c 0xd8
EndSplineSet
EndChar
StartChar: u1D6A1
Encoding: 120481 120481 1363
Width: 600
Flags: W
HStem: 0 21G<56 152 56 56 442 442 442 544> 507 20G<79 179 179 179 424 521 521 521>
VStem: 56 488<0 0>
LayerCount: 2
Fore
SplineSet
152 0 m 1
 56 0 l 1
 250 278 l 1
 79 527 l 1
 179 527 l 1
 301 331 l 1
 424 527 l 1
 521 527 l 1
 350 282 l 1
 544 0 l 1
 442 0 l 1
 297 226 l 1
 152 0 l 1
EndSplineSet
EndChar
StartChar: u1D6A4
Encoding: 120484 120484 1366
Width: 279
Flags: W
ItalicCorrection: 15
TopAccentHorizontal: 196
HStem: 0 21G<57 148 57 57> 507 20G<131 222 222 222>
VStem: 57 165
LayerCount: 2
Fore
SplineSet
222 527 m 1
 148 0 l 1
 57 0 l 1
 131 527 l 1
 222 527 l 1
EndSplineSet
EndChar
StartChar: u1D6A9
Encoding: 120489 120489 1369
Width: 617
Flags: W
TopAccentHorizontal: 278
HStem: 0 119<229 288> 307 109<229 290 290 301 229 290> 577 116<229 261 261 277 229 229>
VStem: 65 164<119 307 416 577> 394 167<472 529> 421 169<173 246>
LayerCount: 2
Fore
SplineSet
434 367 m 1xf4
 511 352 590 314 590 202 c 0xf4
 590 44 462 0 288 0 c 2
 65 0 l 1
 65 693 l 1
 261 693 l 2
 447 693 561 646 561 516 c 0xf8
 561 428 498 382 434 367 c 1xf4
277 577 m 2
 229 577 l 1
 229 416 l 1
 290 416 l 2
 358 416 394 442 394 500 c 0xf8
 394 558 356 577 277 577 c 2
289 119 m 2xf4
 366 119 421 135 421 211 c 0
 421 281 372 307 301 307 c 2
 229 307 l 1
 229 119 l 1
 289 119 l 2xf4
EndSplineSet
EndChar
StartChar: u1D6AF
Encoding: 120495 120495 1375
Width: 691
Flags: W
TopAccentHorizontal: 346
HStem: -17 120<296.5 395 296.5 443> 305 94<244 446 244 446> 590 120<296 395>
VStem: 33 163<259 434.5 259 460> 244 202<305 399 305 399> 495 163<259 434.5>
LayerCount: 2
Fore
SplineSet
345 710 m 0
 541 710 658 578 658 347 c 0
 658 120 541 -17 345 -17 c 0
 150 -17 33 116 33 347 c 0
 33 573 150 710 345 710 c 0
345 590 m 0
 247 590 196 522 196 347 c 0
 196 171 248 103 345 103 c 0
 445 103 495 171 495 347 c 0
 495 522 445 590 345 590 c 0
446 399 m 1
 446 305 l 1
 244 305 l 1
 244 399 l 1
 446 399 l 1
EndSplineSet
EndChar
StartChar: u1D6B6
Encoding: 120502 120502 1382
Width: 691
Flags: W
TopAccentHorizontal: 346
HStem: -17 120<300 392 300 443> 590 120<299 391.5>
VStem: 33 172<259 434.5 259 460> 486 172<259 434.5>
LayerCount: 2
Fore
SplineSet
345 710 m 0
 541 710 658 578 658 347 c 0
 658 120 541 -17 345 -17 c 0
 150 -17 33 116 33 347 c 0
 33 573 150 710 345 710 c 0
345 590 m 0
 253 590 205 522 205 347 c 0
 205 171 255 103 345 103 c 0
 439 103 486 171 486 347 c 0
 486 522 438 590 345 590 c 0
EndSplineSet
EndChar
StartChar: u1D6BB
Encoding: 120507 120507 1387
Width: 540
Flags: W
TopAccentHorizontal: 274
HStem: 0 21G<188 352 188 188> 567 126<9 188 9 539 352 523 352 352>
VStem: 188 164<0 567 0 567>
LayerCount: 2
Fore
SplineSet
539 693 m 1
 523 567 l 1
 352 567 l 1
 352 0 l 1
 188 0 l 1
 188 567 l 1
 9 567 l 1
 9 693 l 1
 539 693 l 1
EndSplineSet
EndChar
StartChar: u1D6C1
Encoding: 120513 120513 1393
Width: 685
Flags: W
TopAccentHorizontal: 342
LayerCount: 2
Fore
SplineSet
442 0 m 1
 655 693 l 1
 30 693 l 1
 244 0 l 1
 442 0 l 1
341 121 m 1
 227 573 l 1
 454 573 l 1
 341 121 l 1
EndSplineSet
EndChar
StartChar: u1D6C5
Encoding: 120517 120517 1397
Width: 577
Flags: W
TopAccentHorizontal: 300
HStem: -17 116<256 318.5 256 367> 649 110<284.5 332> 678 20G<492 492>
VStem: 32 163<197 286.5 197 291.5> 86 152<585 614.5 585 645.5> 381 164<197.5 297>
LayerCount: 2
Fore
SplineSet
338 518 m 0xcc
 479 461 545 391 545 248 c 0
 545 89 446 -17 288 -17 c 0
 130 -17 32 80 32 241 c 0xd4
 32 342 86 416 184 462 c 1
 103 507 86 550 86 604 c 0
 86 687 151 759 300 759 c 0xcc
 384 759 447 732 492 698 c 1xb4
 420 614 l 1
 385 636 353 649 311 649 c 0
 258 649 238 628 238 601 c 0
 238 569 250 554 338 518 c 0xcc
288 99 m 0xd4
 349 99 381 146 381 249 c 0
 381 345 362 380 266 424 c 1
 212 379 195 326 195 247 c 0
 195 147 224 99 288 99 c 0xd4
EndSplineSet
EndChar
StartChar: u1D6C9
Encoding: 120521 120521 1401
Width: 563
Flags: W
TopAccentHorizontal: 282
HStem: -17 114<250.5 312.5 250.5 361.5> 327 92<181 381 181 381> 644 115<249.5 314>
VStem: 32 149<327 327 327 419 327 498> 381 150<327 327 419 419>
LayerCount: 2
Fore
SplineSet
282 759 m 0
 443 759 531 626 531 373 c 0
 531 116 442 -17 281 -17 c 0
 120 -17 32 114 32 372 c 0
 32 624 121 759 282 759 c 0
282 644 m 0
 217 644 185 598 181 419 c 1
 381 419 l 1
 377 598 346 644 282 644 c 0
281 97 m 0
 344 97 376 145 381 327 c 1
 181 327 l 1
 187 144 220 97 281 97 c 0
EndSplineSet
EndChar
StartChar: u1D6D5
Encoding: 120533 120533 1312
Width: 481
Flags: W
TopAccentHorizontal: 241
HStem: -17 21G<317 317> 413 118<88.5 480 133 162 320 480 320 320>
VStem: 162 158<158 179 179 413>
LayerCount: 2
Fore
SplineSet
480 413 m 1
 320 413 l 1
 320 179 l 2
 320 131 331 112 363 97 c 1
 317 -17 l 1
 215 1 162 49 162 158 c 2
 162 413 l 1
 114 413 l 2
 63 413 50 411 20 402 c 1
 -8 508 l 1
 29 524 62 531 133 531 c 2
 480 531 l 1
 480 413 l 1
EndSplineSet
EndChar
StartChar: u1D6D8
Encoding: 120536 120536 1416
Width: 493
Flags: W
TopAccentHorizontal: 242
HStem: -221 21G<144 144 349 349> 524 20G<323 323> 525 20G<133 133>
VStem: -22 528
LayerCount: 2
Fore
SplineSet
328 185 m 1xb0
 506 -196 l 1
 349 -221 l 1
 244 59 l 1
 144 -221 l 1
 -17 -204 l 1
 165 183 l 1
 89 347 44 428 -22 498 c 1
 133 545 l 1xb0
 177 480 203 434 248 289 c 1
 323 544 l 1
 485 528 l 1xd0
 328 185 l 1xb0
EndSplineSet
EndChar
StartChar: u1D6DA
Encoding: 120538 120538 1418
Width: 774
Flags: W
TopAccentHorizontal: 387
HStem: -17 116<237.5 275 237.5 276 499.5 535> 511 20G<100 243 243 243 530 674 674 674>
VStem: 37 155<195 298 195 301> 314 146<187 355 355 355> 583 154<192 298.5>
LayerCount: 2
Fore
SplineSet
674 531 m 1
 708 455 737 360 737 242 c 0
 737 63 653 -17 539 -17 c 0
 456 -17 405 18 387 101 c 1
 365 17 319 -17 233 -17 c 0
 119 -17 37 61 37 242 c 0
 37 360 65 454 100 531 c 1
 243 531 l 1
 213 436 192 347 192 249 c 0
 192 141 216 99 259 99 c 0
 291 99 314 112 314 187 c 2
 314 355 l 1
 460 374 l 1
 460 187 l 2
 460 117 483 99 516 99 c 0
 554 99 583 134 583 250 c 0
 583 347 561 436 530 531 c 1
 674 531 l 1
EndSplineSet
EndChar
StartChar: u1D6F1
Encoding: 120561 120561 1340
Width: 669
Flags: W
ItalicCorrection: 20
TopAccentHorizontal: 404
HStem: 0 21G<62 156 62 62 439 533 439 439> 608 81<241 524 241 241>
VStem: 62 568
LayerCount: 2
Fore
SplineSet
630 689 m 1
 533 0 l 1
 439 0 l 1
 524 608 l 1
 241 608 l 1
 156 0 l 1
 62 0 l 1
 159 689 l 1
 630 689 l 1
EndSplineSet
EndChar
StartChar: u1D6F4
Encoding: 120564 120564 1444
Width: 500
Flags: W
ItalicCorrection: 40
TopAccentHorizontal: 320
HStem: 0 78<14 14 122 423 4 14> 611 78<91 520 195 509 195 195>
VStem: 4 516
LayerCount: 2
Fore
SplineSet
520 689 m 1
 509 611 l 1
 195 611 l 1
 359 366 l 1
 353 304 l 1
 122 78 l 1
 434 78 l 1
 423 0 l 1
 4 0 l 1
 14 78 l 1
 272 340 l 1
 91 611 l 1
 101 689 l 1
 520 689 l 1
EndSplineSet
EndChar
StartChar: u1D700
Encoding: 120576 120576 1456
Width: 483
Flags: W
ItalicCorrection: 15
TopAccentHorizontal: 285
HStem: -12 74<205 266.5 205 268.5> 239 72<217 343 281 322> 467 72<260 323.5>
VStem: 40 97<114.5 164 114.5 170> 98 91<360.5 407.5 360.5 422.5>
LayerCount: 2
Fore
SplineSet
232 -12 m 0xf0
 114 -12 40 50 40 137 c 0xf0
 40 203 78 267 192 282 c 1
 135 298 98 330 98 387 c 0
 98 458 155 539 297 539 c 0
 368 539 422 516 461 484 c 1
 413 431 l 1
 381 453 350 467 297 467 c 0
 223 467 189 430 189 385 c 0
 189 336 223 311 281 311 c 2xe8
 343 311 l 1
 322 239 l 1
 269 239 l 2
 165 239 137 190 137 138 c 0
 137 91 170 62 240 62 c 0
 293 62 334 79 387 111 c 1
 427 51 l 1
 372 12 305 -12 232 -12 c 0xf0
EndSplineSet
EndChar
StartChar: u1D70D
Encoding: 120589 120589 1469
Width: 463
Flags: W
ItalicCorrection: 50
TopAccentHorizontal: 320
HStem: -216 21G<205 205> 463 76<257 341.5>
VStem: 55 95<191 276 191 289> 285 98<-68 -28.5>
LayerCount: 2
Fore
SplineSet
205 -216 m 1
 175 -155 l 1
 235 -125 285 -96 285 -46 c 0
 285 -11 264 4 196 32 c 0
 100 72 55 119 55 227 c 0
 55 351 118 539 320 539 c 0
 383 539 432 521 475 480 c 1
 424 424 l 1
 392 452 362 463 321 463 c 0
 193 463 150 325 150 227 c 0
 150 155 178 132 257 96 c 0
 327 64 383 36 383 -36 c 0
 383 -100 350 -156 205 -216 c 1
EndSplineSet
EndChar
StartChar: u1D711
Encoding: 120593 120593 1372
Width: 726
Flags: W
ItalicCorrection: 15
TopAccentHorizontal: 385
HStem: -216 21G<247 247> -11 21G<276 276 363 363> -11 69<276 285> 467 72<493 538.5> 507 20G<160 252 252 252>
VStem: 58 90<148 241.5 148 243.5> 581 91<361 361>
LayerCount: 2
Fore
SplineSet
517 539 m 0xd6
 613 539 673 484 672 360 c 0
 670 184 625 5 363 -11 c 1
 336 -204 l 1
 247 -216 l 1
 276 -11 l 1
 124 -1 58 69 58 191 c 0
 58 296 102 413 160 527 c 1
 252 527 l 1
 188 405 148 289 148 194 c 0
 148 102 194 66 285 58 c 1xae
 325 341 l 2
 343 473 416 539 517 539 c 0xd6
517 467 m 0
 469 467 427 445 410 331 c 2
 372 59 l 1
 564 78 581 227 581 361 c 0
 581 441 560 467 517 467 c 0
EndSplineSet
EndChar
StartChar: u1D71C
Encoding: 120604 120604 1484
Width: 581
Flags: W
TopAccentHorizontal: 350
HStem: 0 21G<-51 117 -51 -51 387 556 387 387> 149 119<215 361 215 373 172 361> 583 110<331 331> 673 20G<252 448 448 448>
VStem: -51 607<0 0>
LayerCount: 2
Fore
SplineSet
387 0 m 1xd8
 373 149 l 1
 172 149 l 1
 117 0 l 1
 -51 0 l 1
 252 693 l 1
 448 693 l 1
 556 0 l 1
 387 0 l 1xd8
215 268 m 1
 361 268 l 1
 331 583 l 1xe8
 215 268 l 1
EndSplineSet
EndChar
StartChar: u1D71F
Encoding: 120607 120607 1386
Width: 589
Flags: W
TopAccentHorizontal: 374
HStem: 0 120<162 385 162 565> 572 121<338 338> 673 20G<257 452 452 452>
VStem: -51 616<0 0>
LayerCount: 2
Fore
SplineSet
452 693 m 1xb0
 565 0 l 1
 -51 0 l 1
 257 693 l 1
 452 693 l 1xb0
338 572 m 1xd0
 162 120 l 1
 385 120 l 1
 338 572 l 1xd0
EndSplineSet
EndChar
StartChar: u1D726
Encoding: 120614 120614 1393
Width: 581
Flags: W
TopAccentHorizontal: 350
HStem: 0 21G<-51 120 -51 -51 390 556 390 390> 574 119<334 334> 673 20G<252 448 448 448>
VStem: -51 607<0 0>
LayerCount: 2
Fore
SplineSet
448 693 m 1xb0
 556 0 l 1
 390 0 l 1
 334 574 l 1xd0
 120 0 l 1
 -51 0 l 1
 252 693 l 1
 448 693 l 1xb0
EndSplineSet
EndChar
StartChar: u1D737
Encoding: 120631 120631 1511
Width: 598
Flags: W
ItalicCorrection: 30
TopAccentHorizontal: 359
HStem: -223 21G -17 121<285.5 331.5 264 404.5> 344 107<286 301 261 309> 648 111<318.5 364>
VStem: 409 152<553.5 601.5> 411 156<215 282>
LayerCount: 2
Fore
SplineSet
-8 -223 m 1xf4
 100 548 l 2
 119 683 221 759 354 759 c 0
 482 759 561 687 561 589 c 0xf8
 561 518 523 429 400 403 c 1
 476 398 567 356 567 239 c 0
 567 135 495 -17 314 -17 c 0
 257 -17 211 0 178 28 c 1
 145 -202 l 1
 -8 -223 l 1xf4
283 104 m 0xf4
 380 104 411 184 411 246 c 0xf4
 411 318 365 344 301 344 c 2
 261 344 l 1
 286 451 l 1
 309 451 l 2
 383 451 409 528 409 578 c 0
 409 625 384 648 344 648 c 0xf8
 293 648 260 614 250 545 c 2
 192 131 l 1
 215 114 245 104 283 104 c 0xf4
EndSplineSet
EndChar
StartChar: u1D738
Encoding: 120632 120632 1411
Width: 497
Flags: W
ItalicCorrection: 60
TopAccentHorizontal: 286
HStem: -223 21G<141 141> 527 20G<161 161 391 391>
VStem: 104 145.58
LayerCount: 2
Fore
SplineSet
161 547 m 1
 199 489 235 369 234 159 c 1
 391 547 l 1
 538 513 l 1
 293 26 l 2
 253 -54 236 -112 261 -201 c 1
 141 -223 l 1
 90 -139 94 -78 139 17 c 1
 115 251 67 419 15 500 c 1
 161 547 l 1
EndSplineSet
EndChar
StartChar: u1D739
Encoding: 120633 120633 1513
Width: 570
Flags: W
ItalicCorrection: 25
TopAccentHorizontal: 350
HStem: -17 116<234.5 306 234.5 355.5> 649 110<333 381.5>
VStem: 26 159<165.5 237 165.5 254> 132 149<578.5 608 578.5 634.5> 380 160<265.5 332>
LayerCount: 2
Fore
SplineSet
350 759 m 0xe8
 444 759 504 727 544 685 c 1
 466 607 l 1
 433 636 401 649 362 649 c 0
 304 649 281 622 281 594 c 0xd8
 281 563 297 548 367 518 c 0
 482 468 540 408 540 298 c 0
 540 172 462 -17 249 -17 c 0
 108 -17 26 78 26 198 c 0xe8
 26 310 68 409 212 466 c 1
 151 507 132 549 132 597 c 0xd8
 132 672 200 759 350 759 c 0xe8
290 424 m 1
 201 359 185 278 185 196 c 0
 185 135 210 99 259 99 c 0
 353 99 380 227 380 304 c 0
 380 360 356 390 290 424 c 1
EndSplineSet
EndChar
StartChar: u1D740
Encoding: 120640 120640 1520
Width: 521
Flags: W
TopAccentHorizontal: 273
HStem: -17 21G<123 123> -16 21G<349 349> 522 20G<209 209> 739 20G<147 147>
VStem: -27 531<21 32>
LayerCount: 2
Fore
SplineSet
147 759 m 1x78
 312 734 383 678 400 491 c 0
 424 225 448 128 504 32 c 1
 349 -16 l 1x78
 299 85 277 156 273 389 c 1
 123 -17 l 1
 -27 21 l 1xb8
 209 542 l 1
 257 530 l 1
 241 609 214 634 115 650 c 1
 147 759 l 1x78
EndSplineSet
EndChar
StartChar: u1D746
Encoding: 120646 120646 1526
Width: 579
Flags: W
ItalicCorrection: 20
TopAccentHorizontal: 323
HStem: -223 21G<-17 -17> -17 116<258.5 310 246.5 377> 433 115<285 338>
VStem: 386 160<285.5 371>
LayerCount: 2
Fore
SplineSet
323 548 m 0
 460 548 546 470 546 331 c 0
 546 172 470 -17 284 -17 c 0
 233 -17 196 2 173 33 c 1
 140 -206 l 1
 -17 -223 l 1
 52 276 l 2
 76 451 163 548 323 548 c 0
264 99 m 0
 356 99 386 239 386 332 c 0
 386 410 360 433 316 433 c 0
 254 433 222 378 203 247 c 2
 188 140 l 1
 205 113 229 99 264 99 c 0
EndSplineSet
EndChar
StartChar: u1D74B
Encoding: 120651 120651 1531
Width: 743
Flags: W
ItalicCorrection: 20
TopAccentHorizontal: 390
HStem: -15 107<215.099 257 416 468.696> 442 106<477.958 556.247> 511 20G<102.5 280>
VStem: 29 151<124.805 331.879> 564 147<204.753 435.781>
LayerCount: 2
Fore
SplineSet
529 548 m 0xd8
 650 548 712 481 711 349 c 0
 710 183 661 7 401 -16 c 1
 374 -206 l 1
 228 -223 l 1
 257 -15 l 1
 100 0 29 76 29 197 c 0
 29 293 70 417 135 531 c 1
 280 531 l 1xb8
 212 401 180 298 180 199 c 0
 180 132 208 101 272 92 c 1
 304 327 l 2
 324 467 403 548 529 548 c 0xd8
522 442 m 0xd8
 487 442 462 423 449 327 c 2
 416 93 l 1
 553 110 564 268 564 370 c 0
 564 425 549 442 522 442 c 0xd8
EndSplineSet
EndChar
StartChar: u1D74F
Encoding: 120655 120655 1535
Width: 531
Flags: W
ItalicCorrection: 15
TopAccentHorizontal: 278
HStem: -17 112<208.5 264.5 208.5 316> 330 115<226 260 157.5 280.5> 690 20G<175 175>
VStem: 7 156<154 216 154 242.5> 357 151<378 395 395 395>
LayerCount: 2
Fore
SplineSet
175 710 m 1
 408 659 508 551 508 356 c 0
 508 137 409 -17 223 -17 c 0
 96 -17 7 57 7 185 c 0
 7 300 87 445 228 445 c 0
 292 445 331 418 357 378 c 1
 357 395 l 2
 356 465 317 557 129 603 c 1
 175 710 l 1
231 95 m 0
 298 95 327 160 345 273 c 1
 325 312 300 330 261 330 c 0
 191 330 163 251 163 181 c 0
 163 127 186 95 231 95 c 0
EndSplineSet
EndChar
StartChar: u1D7CF
Encoding: 120783 120783 1543
Width: 560
Flags: W
HStem: 0 21G<247 402> 673 20G<227.957 402>
VStem: 247 155<0 538>
LayerCount: 2
Fore
SplineSet
247 0 m 1
 247 538 l 1
 102 451 l 1
 33 555 l 1
 261 693 l 1
 402 693 l 1
 402 0 l 1
 247 0 l 1
EndSplineSet
EndChar
StartChar: u1D7D3
Encoding: 120787 120787 1547
Width: 560
Flags: W
HStem: -17 119<217.5 280 217.5 332.5> 346 108<247.5 380> 580 113<219 470 219 219>
VStem: 67 152<430 580 430 693 430 693> 357 162<186 272>
LayerCount: 2
Fore
SplineSet
488 693 m 1
 470 580 l 1
 219 580 l 1
 219 430 l 1
 256 448 292 454 325 454 c 0
 435 454 519 374 519 228 c 0
 519 80 415 -17 250 -17 c 0
 149 -17 74 26 22 85 c 1
 110 167 l 1
 145 126 190 102 245 102 c 0
 315 102 357 144 357 228 c 0
 357 316 317 346 262 346 c 0
 233 346 209 339 175 322 c 1
 67 322 l 1
 67 693 l 1
 488 693 l 1
EndSplineSet
EndChar
StartChar: u1D7D4
Encoding: 120788 120788 1447
Width: 560
Flags: W
HStem: -17 113<258 319 258 365> 356 109<311.5 320.5> 598 112<293 348.5>
VStem: 34 165 375 158<191.5 280>
LayerCount: 2
Fore
SplineSet
339 465 m 0
 450 465 533 384 533 236 c 0
 533 93 440 -17 290 -17 c 0
 111 -17 34 115 34 319 c 0
 34 558 144 710 327 710 c 0
 391 710 441 692 479 666 c 1
 422 572 l 1
 396 587 367 598 330 598 c 0
 256 598 207 531 198 403 c 1
 239 446 284 465 339 465 c 0
291 96 m 0
 347 96 375 149 375 234 c 0
 375 326 346 356 295 356 c 0
 257 356 225 337 199 305 c 1
 200 153 225 96 291 96 c 0
EndSplineSet
EndChar
StartChar: u1D7D1.pnum
Encoding: 1114539 -1 1854
Width: 520
Flags: W
HStem: -17 120<192.5 250 192.5 311.5> 298 109<175 214 175 214 158 214> 573 117<196 248.5>
VStem: 311 153<477 519.5> 324 162<170 236.5>
LayerCount: 2
Fore
SplineSet
239 690 m 0xf0
 385 690 464 613 464 518 c 0xf0
 464 436 415 381 332 357 c 1
 416 348 486 298 486 191 c 0
 486 78 395 -17 228 -17 c 0
 126 -17 49 21 -4 85 c 1
 81 168 l 1
 126 123 166 103 219 103 c 0
 281 103 324 139 324 201 c 0xe8
 324 272 285 298 214 298 c 2
 158 298 l 1
 175 407 l 1
 214 407 l 2
 274 407 311 439 311 495 c 0
 311 544 276 573 221 573 c 0
 171 573 129 553 89 514 c 1
 11 599 l 1
 74 659 149 690 239 690 c 0xf0
EndSplineSet
EndChar
StartChar: u1D7D6.pnum
Encoding: 1114544 -1 1859
Width: 581
Flags: W
HStem: -17 113<260 325.5 260 371> 583 107<267 318.5>
VStem: 29 159<160 213.5 160 220> 56 153<482.5 531.5 482.5 562.5> 372 153<487 530> 393 158<159.5 211.5>
LayerCount: 2
Fore
SplineSet
417 363 m 1xe4
 509 319 551 260 551 183 c 0
 551 74 455 -17 287 -17 c 0
 124 -17 29 72 29 180 c 0xe4
 29 260 77 314 155 348 c 1
 83 390 56 446 56 508 c 0
 56 617 155 690 291 690 c 0
 425 690 525 626 525 516 c 0xd8
 525 458 492 403 417 363 c 1xe4
292 583 m 0xd8
 242 583 209 557 209 506 c 0
 209 459 236 434 291 411 c 2
 312 403 l 1
 360 434 372 466 372 508 c 0
 372 552 345 583 292 583 c 0xd8
292 96 m 0xe4
 359 96 393 135 393 184 c 0
 393 239 365 265 289 293 c 2
 256 305 l 1
 210 279 188 239 188 188 c 0
 188 132 228 96 292 96 c 0xe4
EndSplineSet
EndChar
StartChar: uni0028.size9
Encoding: 1114179 -1 1619
Width: 489
Flags: W
IsExtendedShape: 1
VStem: 59 110<12.8359 546.998> 366 68<-1665.99 -1633.94 2193.02 2224.99>
LayerCount: 2
Fore
SplineSet
59 280 m 0
 59 1034 152 1632 366 2251 c 1
 434 2222 l 1
 229 1590 169 979 169 280 c 0
 169 -419 229 -1031 434 -1663 c 1
 366 -1692 l 1
 152 -1072 59 -475 59 280 c 0
EndSplineSet
EndChar
StartChar: uni0029.size2
Encoding: 1114187 -1 1627
Width: 360
Flags: W
IsExtendedShape: 1
VStem: 217 99<19.9478 539.644>
LayerCount: 2
Fore
SplineSet
43 -506 m 1
 158 -262 217 -42 217 280 c 0
 217 602 158 821 43 1065 c 1
 103 1103 l 1
 227 857 316 632 316 280 c 0
 316 -73 227 -298 103 -544 c 1
 43 -506 l 1
EndSplineSet
EndChar
StartChar: uni0033.pnum
Encoding: 1114595 -1 2035
Width: 499
Flags: W
HStem: -12 75<186 255 186 285.5> 314 71<176 210 210 215 165 210> 605 74<193.5 253.5>
VStem: 331 92<466.5 534.5> 348 96<154.5 240>
LayerCount: 2
Fore
SplineSet
225 679 m 0xf0
 353 679 423 599 423 509 c 0xf0
 423 424 368 373 293 355 c 1
 377 347 444 294 444 193 c 0
 444 76 355 -12 216 -12 c 0
 136 -12 66 17 15 78 c 1
 70 129 l 1
 114 83 159 63 213 63 c 0
 297 63 348 115 348 194 c 0xe8
 348 286 296 314 215 314 c 2
 165 314 l 1
 176 385 l 1
 210 385 l 2
 276 385 331 425 331 503 c 0
 331 566 287 605 220 605 c 0
 167 605 127 587 82 545 c 1
 34 600 l 1
 91 653 153 679 225 679 c 0xf0
EndSplineSet
EndChar
StartChar: uni005B.size3
Encoding: 1114203 -1 1643
Width: 361
Flags: W
IsExtendedShape: 1
HStem: -708 79<164 309> 1187 80<164 309>
VStem: 73 236<-708 -629 1187 1267> 73 91<-629 1187>
LayerCount: 2
Fore
SplineSet
73 -708 m 1xe0
 73 1267 l 1
 309 1267 l 1
 309 1187 l 1xe0
 164 1187 l 1
 164 -629 l 1xd0
 309 -629 l 1
 309 -708 l 1
 73 -708 l 1xe0
EndSplineSet
EndChar
StartChar: uni005B.size4
Encoding: 1114204 -1 1644
Width: 375
Flags: W
IsExtendedShape: 1
HStem: -872 80<168 321> 1351 80<168 321>
VStem: 75 246<-872 -792 1351 1431> 75 93<-792 1351>
LayerCount: 2
Fore
SplineSet
75 -872 m 1xe0
 75 1431 l 1
 321 1431 l 1
 321 1351 l 1xe0
 168 1351 l 1
 168 -792 l 1xd0
 321 -792 l 1
 321 -872 l 1
 75 -872 l 1xe0
EndSplineSet
EndChar
StartChar: uni005D.size1
Encoding: 1114216 -1 1656
Width: 335
Flags: W
IsExtendedShape: 1
HStem: -380 77<50 179> 861 78<50 179>
VStem: 50 217<-380 -303 861 939> 179 88<-303 861>
LayerCount: 2
Fore
SplineSet
50 -303 m 1xe0
 179 -303 l 1
 179 861 l 1xd0
 50 861 l 1
 50 939 l 1
 267 939 l 1
 267 -380 l 1
 50 -380 l 1
 50 -303 l 1xe0
EndSplineSet
EndChar
StartChar: uni005D.size12
Encoding: 1114227 -1 1667
Width: 481
Flags: W
IsExtendedShape: 1
HStem: -2184 86<61 278> 2657 86<61 278>
VStem: 278 106<-2098 2657>
LayerCount: 2
Fore
SplineSet
61 -2098 m 1
 278 -2098 l 1
 278 2657 l 1
 61 2657 l 1
 61 2743 l 1
 384 2743 l 1
 384 -2184 l 1
 61 -2184 l 1
 61 -2098 l 1
EndSplineSet
EndChar
StartChar: uni005D.size3
Encoding: 1114218 -1 1658
Width: 361
Flags: W
IsExtendedShape: 1
HStem: -708 79<52 197> 1187 80<52 197>
VStem: 52 236<-708 -629 1187 1267> 197 91<-629 1187>
LayerCount: 2
Fore
SplineSet
52 -629 m 1xe0
 197 -629 l 1
 197 1187 l 1xd0
 52 1187 l 1
 52 1267 l 1
 288 1267 l 1
 288 -708 l 1
 52 -708 l 1
 52 -629 l 1xe0
EndSplineSet
EndChar
StartChar: uni005D.size9
Encoding: 1114224 -1 1664
Width: 441
Flags: W
IsExtendedShape: 1
HStem: -1692 84<58 251> 2167 84<58 251>
VStem: 251 101<-1608 2167>
LayerCount: 2
Fore
SplineSet
58 -1608 m 1
 251 -1608 l 1
 251 2167 l 1
 58 2167 l 1
 58 2251 l 1
 352 2251 l 1
 352 -1692 l 1
 58 -1692 l 1
 58 -1608 l 1
EndSplineSet
EndChar
StartChar: uni007B.size1
Encoding: 1114231 -1 1671
Width: 345
Flags: W
IsExtendedShape: 1
HStem: -379 72<215.795 294> 242 75<29 86.9707> 866 73<215.795 294>
VStem: 107 88<-286.265 222.684 336.898 846.265>
LayerCount: 2
Fore
SplineSet
29 242 m 1
 29 317 l 1
 86 317 107 347 107 416 c 2
 107 784 l 2
 107 892 156 939 294 939 c 1
 294 866 l 1
 224 866 195 845 195 794 c 2
 195 408 l 2
 195 323 164 297 115 280 c 1
 164 263 195 237 195 151 c 2
 195 -234 l 2
 195 -286 224 -307 294 -307 c 1
 294 -379 l 1
 156 -379 107 -332 107 -224 c 2
 107 143 l 2
 107 212 86 242 29 242 c 1
EndSplineSet
EndChar
StartChar: uni007B.size11
Encoding: 1114241 -1 1580
Width: 577
Flags: W
IsExtendedShape: 1
HStem: -2017 89<381.99 473> 241 83<72 143.357> 2493 89<381.99 473>
VStem: 230 104<-1881.01 112.886 452.084 2446.01>
CounterMasks: 1 e0
LayerCount: 2
Fore
SplineSet
72 241 m 1
 72 324 l 1
 174 324 230 425 230 634 c 2
 230 2364 l 2
 230 2502 302 2582 473 2582 c 1
 473 2493 l 1
 372 2493 334 2442 334 2375 c 2
 334 615 l 2
 334 408 272 312 198 282 c 1
 272 253 334 157 334 -50 c 2
 334 -1810 l 2
 334 -1877 372 -1928 473 -1928 c 1
 473 -2017 l 1
 302 -2017 230 -1937 230 -1799 c 2
 230 -69 l 2
 230 140 174 241 72 241 c 1
EndSplineSet
EndChar
StartChar: uni007B.size13
Encoding: 1114243 -1 1683
Width: 623
Flags: W
IsExtendedShape: 1
HStem: -2345 93<419.461 509> 241 84<81 155.016> 2818 93<419.461 509>
VStem: 255 107<-2200 84.8666 481.133 2766>
CounterMasks: 1 e0
LayerCount: 2
Fore
SplineSet
81 241 m 1
 81 325 l 1
 192 325 255 441 255 677 c 2
 255 2680 l 2
 255 2824 331 2911 509 2911 c 1
 509 2818 l 1
 401 2818 362 2761 362 2691 c 2
 362 656 l 2
 362 425 294 315 215 283 c 1
 294 251 362 141 362 -90 c 2
 362 -2125 l 2
 362 -2195 401 -2252 509 -2252 c 1
 509 -2345 l 1
 331 -2345 255 -2258 255 -2114 c 2
 255 -111 l 2
 255 125 192 241 81 241 c 1
EndSplineSet
EndChar
StartChar: uni007C.size15
Encoding: 1114365 -1 1805
Width: 507
Flags: W
IsExtendedShape: 1
VStem: 200 107<-2676 3236>
LayerCount: 2
Fore
SplineSet
200 -2676 m 1
 200 3236 l 1
 307 3236 l 1
 307 -2676 l 1
 200 -2676 l 1
EndSplineSet
EndChar
StartChar: uni007C.size2
Encoding: 1114352 -1 1792
Width: 416
Flags: W
IsExtendedShape: 1
VStem: 165 86<-544 1103>
LayerCount: 2
Fore
SplineSet
165 -544 m 1
 165 1103 l 1
 251 1103 l 1
 251 -544 l 1
 165 -544 l 1
EndSplineSet
EndChar
StartChar: uni007C.size4
Encoding: 1114354 -1 1794
Width: 430
Flags: W
IsExtendedShape: 1
VStem: 170 90<-872 1431>
LayerCount: 2
Fore
SplineSet
170 -872 m 1
 170 1431 l 1
 260 1431 l 1
 260 -872 l 1
 170 -872 l 1
EndSplineSet
EndChar
StartChar: uni007C.size6
Encoding: 1114356 -1 1796
Width: 444
Flags: W
IsExtendedShape: 1
VStem: 176 92<-1200 1759>
LayerCount: 2
Fore
SplineSet
176 -1200 m 1
 176 1759 l 1
 268 1759 l 1
 268 -1200 l 1
 176 -1200 l 1
EndSplineSet
EndChar
StartChar: uni007C.size7
Encoding: 1114357 -1 1797
Width: 451
Flags: W
IsExtendedShape: 1
VStem: 178 94<-1364 1923>
LayerCount: 2
Fore
SplineSet
178 -1364 m 1
 178 1923 l 1
 272 1923 l 1
 272 -1364 l 1
 178 -1364 l 1
EndSplineSet
EndChar
StartChar: uni007C.size8
Encoding: 1114358 -1 1697
Width: 458
Flags: W
IsExtendedShape: 1
VStem: 181 96<-1528 2087>
LayerCount: 2
Fore
SplineSet
181 -1528 m 1
 181 2087 l 1
 277 2087 l 1
 277 -1528 l 1
 181 -1528 l 1
EndSplineSet
EndChar
StartChar: uni007D.size13
Encoding: 1114258 -1 1698
Width: 623
Flags: W
IsExtendedShape: 1
HStem: -2345 93<114 203.167> 241 84<467.984 542> 2818 93<114 203.167>
VStem: 261 107<-2200 84.8666 480.948 2766>
CounterMasks: 1 e0
LayerCount: 2
Fore
SplineSet
114 -2252 m 1
 222 -2252 261 -2195 261 -2125 c 2
 261 -90 l 2
 261 141 329 251 408 283 c 1
 329 314 261 425 261 656 c 2
 261 2691 l 2
 261 2761 222 2818 114 2818 c 1
 114 2911 l 1
 291 2911 368 2824 368 2680 c 2
 368 677 l 2
 368 441 431 325 542 325 c 1
 542 241 l 1
 431 241 368 125 368 -111 c 2
 368 -2114 l 2
 368 -2258 291 -2345 114 -2345 c 1
 114 -2252 l 1
EndSplineSet
EndChar
StartChar: uni007D.size4
Encoding: 1114249 -1 1689
Width: 414
Flags: W
IsExtendedShape: 1
HStem: -871 78<66 149.42> 241 78<310.533 372> 1354 78<66 149.42>
VStem: 177 93<-764.799 195.452 365.253 1326.2>
LayerCount: 2
Fore
SplineSet
66 -793 m 1
 145 -793 177 -763 177 -707 c 2
 177 91 l 2
 177 213 217 259 274 280 c 1
 217 301 177 348 177 470 c 2
 177 1268 l 2
 177 1324 145 1354 66 1354 c 1
 66 1432 l 1
 214 1432 270 1375 270 1258 c 2
 270 481 l 2
 270 371 301 319 372 319 c 1
 372 241 l 1
 301 241 270 190 270 80 c 2
 270 -697 l 2
 270 -813 214 -871 66 -871 c 1
 66 -793 l 1
EndSplineSet
EndChar
StartChar: uni007D.size8
Encoding: 1114253 -1 1592
Width: 507
Flags: W
IsExtendedShape: 1
HStem: -1526 84<87 173.486> 241 81<379.835 447> 2005 84<87 173.486>
VStem: 214 99<-1402.67 148.945 414.019 1966.07>
CounterMasks: 1 e0
LayerCount: 2
Fore
SplineSet
87 -1442 m 1
 179 -1442 214 -1400 214 -1337 c 2
 214 10 l 2
 214 181 267 256 333 281 c 1
 267 307 214 382 214 553 c 2
 214 1901 l 2
 214 1963 179 2005 87 2005 c 1
 87 2089 l 1
 248 2089 313 2019 313 1890 c 2
 313 568 l 2
 313 402 359 322 447 322 c 1
 447 241 l 1
 359 241 313 161 313 -5 c 2
 313 -1327 l 2
 313 -1455 248 -1526 87 -1526 c 1
 87 -1442 l 1
EndSplineSet
EndChar
StartChar: uni2016.size10
Encoding: 1114375 -1 1714
Width: 703
Flags: W
IsExtendedShape: 1
VStem: 186 99<-1856 2415> 418 99<-1856 2415>
LayerCount: 2
Fore
SplineSet
186 -1856 m 1
 186 2415 l 1
 285 2415 l 1
 285 -1856 l 1
 186 -1856 l 1
418 -1856 m 1
 418 2415 l 1
 517 2415 l 1
 517 -1856 l 1
 418 -1856 l 1
EndSplineSet
EndChar
StartChar: uni2016.size2
Encoding: 1114367 -1 1807
Width: 602
Flags: W
IsExtendedShape: 1
VStem: 165 86<-544 1103> 350 87<-544 1103>
LayerCount: 2
Fore
SplineSet
165 -544 m 1
 165 1103 l 1
 251 1103 l 1
 251 -544 l 1
 165 -544 l 1
350 -544 m 1
 350 1103 l 1
 437 1103 l 1
 437 -544 l 1
 350 -544 l 1
EndSplineSet
EndChar
StartChar: uni2016.size3
Encoding: 1114368 -1 1808
Width: 615
Flags: W
IsExtendedShape: 1
VStem: 168 87<-708 1267> 359 88<-708 1267>
LayerCount: 2
Fore
SplineSet
168 -708 m 1
 168 1267 l 1
 255 1267 l 1
 255 -708 l 1
 168 -708 l 1
359 -708 m 1
 359 1267 l 1
 447 1267 l 1
 447 -708 l 1
 359 -708 l 1
EndSplineSet
EndChar
StartChar: uni2033.ssty1
Encoding: 1114114 -1 1554
Width: 585
Flags: W
LayerCount: 2
Fore
SplineSet
80 54 m 1
 201 427 l 1
 310 427 l 1
 149 54 l 1
 80 54 l 1
275 54 m 1
 396 427 l 1
 505 427 l 1
 344 54 l 1
 275 54 l 1
EndSplineSet
EndChar
StartChar: uni2210.display
Encoding: 1114117 -1 1557
Width: 1403
Flags: W
IsExtendedShape: 1
HStem: -355 105<90 273 383 1033 1143 1313>
VStem: 273 110<-250 1172> 1033 110<-250 1172>
LayerCount: 2
Fore
SplineSet
90 -250 m 1
 273 -250 l 1
 273 1172 l 1
 383 1172 l 1
 383 -250 l 1
 1033 -250 l 1
 1033 1172 l 1
 1143 1172 l 1
 1143 -250 l 1
 1313 -250 l 1
 1313 -355 l 1
 90 -355 l 1
 90 -250 l 1
EndSplineSet
EndChar
StartChar: uni221A.size3
Encoding: 1114128 -1 1568
Width: 705
Flags: W
IsExtendedShape: 1
HStem: 1547 77<693 720>
LayerCount: 2
Fore
SplineSet
17 373 m 1
 164 400 l 1
 333 -364 l 1
 624 1624 l 1
 720 1624 l 1
 720 1547 l 1
 693 1547 l 1
 392 -480 l 1
 281 -480 l 1
 104 309 l 1
 31 295 l 1
 17 373 l 1
EndSplineSet
EndChar
StartChar: uni221A.size5
Encoding: 1114130 -1 1469
Width: 742
Flags: W
IsExtendedShape: 1
HStem: 1995 77<730 757>
LayerCount: 2
Fore
SplineSet
18 450 m 1
 179 477 l 1
 369 -537 l 1
 659 2072 l 1
 757 2072 l 1
 757 1995 l 1
 730 1995 l 1
 432 -667 l 1
 316 -667 l 1
 116 386 l 1
 32 371 l 1
 18 450 l 1
EndSplineSet
EndChar
StartChar: uni221A.size8
Encoding: 1114133 -1 1472
Width: 798
Flags: W
IsExtendedShape: 1
HStem: 2667 77<786 813>
LayerCount: 2
Fore
SplineSet
20 565 m 1
 200 593 l 1
 424 -796 l 1
 711 2744 l 1
 813 2744 l 1
 813 2667 l 1
 786 2667 l 1
 491 -947 l 1
 369 -947 l 1
 135 501 l 1
 33 484 l 1
 20 565 l 1
EndSplineSet
EndChar
StartChar: uni221A.size9
Encoding: 1114134 -1 1473
Width: 817
Flags: W
IsExtendedShape: 1
HStem: 2891 77<805 832>
LayerCount: 2
Fore
SplineSet
20 604 m 1
 207 632 l 1
 443 -882 l 1
 729 2968 l 1
 832 2968 l 1
 832 2891 l 1
 805 2891 l 1
 511 -1040 l 1
 386 -1040 l 1
 142 539 l 1
 33 522 l 1
 20 604 l 1
EndSplineSet
EndChar
StartChar: uni221A.top
Encoding: 1114456 -1 1896
Width: 1013
Flags: W
HStem: 0 21G<719 801> 1523 77<801 1028>
VStem: 719 82<0 1523>
LayerCount: 2
Fore
SplineSet
719 0 m 1
 719 1600 l 1
 1028 1600 l 1
 1028 1523 l 1
 801 1523 l 1
 801 0 l 1
 719 0 l 1
EndSplineSet
EndChar
StartChar: uni221B.bot
Encoding: 1114461 -1 1901
Width: 1085
Flags: W
HStem: 0 21G<741.939 873> 3260 61<297.057 424.814> 3459 56<340 419.719> 3634 59<300.953 422.253>
VStem: 435 77<3530.44 3621.5> 445 81<3340.47 3443.91> 791 82<200 3800>
LayerCount: 2
Fore
SplineSet
104 2435 m 1xf2
 331 2464 l 1
 791 200 l 1
 791 3800 l 1
 873 3800 l 1
 873 0 l 1
 746 0 l 1
 265 2369 l 1
 114 2350 l 1
 104 2435 l 1xf2
230 3320 m 1
 275 3362 l 1
 302 3333 331 3321 365 3321 c 0
 414 3321 445 3348 445 3392 c 0xf6
 445 3442 415 3459 365 3459 c 2
 331 3459 l 1
 340 3515 l 1
 363 3515 l 2
 404 3515 435 3537 435 3578 c 0
 435 3613 409 3634 369 3634 c 0
 335 3634 309 3622 281 3597 c 1
 241 3641 l 1
 280 3676 324 3693 375 3693 c 0
 464 3693 512 3645 512 3588 c 0xfa
 512 3536 477 3503 426 3490 c 1
 481 3485 526 3453 526 3388 c 0xf6
 526 3317 467 3260 369 3260 c 0
 311 3260 264 3281 230 3320 c 1
EndSplineSet
EndChar
StartChar: uni221B.ext
Encoding: 1114460 -1 1799
Width: 1085
Flags: W
HStem: 0 21G<791 873>
VStem: 791 82<0 600>
LayerCount: 2
Fore
SplineSet
791 0 m 1
 791 600 l 1
 873 600 l 1
 873 0 l 1
 791 0 l 1
EndSplineSet
EndChar
StartChar: uni221B.size10
Encoding: 1114150 -1 1489
Width: 898
Flags: W
IsExtendedShape: 1
HStem: 1193 61<239.057 366.814> 1392 56<282 361.719> 1567 59<242.953 364.253> 3115 77<886 913>
VStem: 377 77<1463.44 1554.5> 387 81<1273.47 1376.91>
LayerCount: 2
Fore
SplineSet
84 642 m 1xf0
 277 670 l 1
 524 -969 l 1
 809 3192 l 1
 913 3192 l 1
 913 3115 l 1
 886 3115 l 1
 593 -1134 l 1
 467 -1134 l 1
 211 578 l 1
 96 560 l 1
 84 642 l 1xf0
172 1253 m 1
 217 1295 l 1
 244 1266 273 1254 307 1254 c 0
 356 1254 387 1281 387 1325 c 0xf4
 387 1375 357 1392 307 1392 c 2
 273 1392 l 1
 282 1448 l 1
 305 1448 l 2
 346 1448 377 1470 377 1511 c 0
 377 1546 351 1567 311 1567 c 0
 277 1567 251 1555 223 1530 c 1
 183 1574 l 1
 222 1609 266 1626 317 1626 c 0
 406 1626 454 1578 454 1521 c 0xf8
 454 1469 419 1436 368 1423 c 1
 423 1418 468 1386 468 1321 c 0xf4
 468 1250 409 1193 311 1193 c 0
 253 1193 206 1214 172 1253 c 1
EndSplineSet
EndChar
StartChar: uni221B.size11
Encoding: 1114151 -1 1591
Width: 918
Flags: W
IsExtendedShape: 1
HStem: 1262 61<246.057 373.814> 1461 56<289 368.719> 1636 59<249.953 371.253> 3339 77<906 933>
VStem: 384 77<1532.44 1623.5> 394 81<1342.47 1445.91>
LayerCount: 2
Fore
SplineSet
86 681 m 1xf0
 286 709 l 1
 544 -1055 l 1
 828 3416 l 1
 933 3416 l 1
 933 3339 l 1
 906 3339 l 1
 615 -1227 l 1
 486 -1227 l 1
 219 616 l 1
 98 597 l 1
 86 681 l 1xf0
179 1322 m 1
 224 1364 l 1
 251 1335 280 1323 314 1323 c 0
 363 1323 394 1350 394 1394 c 0xf4
 394 1444 364 1461 314 1461 c 2
 280 1461 l 1
 289 1517 l 1
 312 1517 l 2
 353 1517 384 1539 384 1580 c 0
 384 1615 358 1636 318 1636 c 0
 284 1636 258 1624 230 1599 c 1
 190 1643 l 1
 229 1678 273 1695 324 1695 c 0
 413 1695 461 1647 461 1590 c 0xf8
 461 1538 426 1505 375 1492 c 1
 430 1487 475 1455 475 1390 c 0xf4
 475 1319 416 1262 318 1262 c 0
 260 1262 213 1283 179 1322 c 1
EndSplineSet
EndChar
StartChar: uni221B.size15
Encoding: 1114155 -1 1494
Width: 1001
Flags: W
IsExtendedShape: 1
HStem: 749 21G<104.442 245.095> 1540 61<273.057 400.814> 1739 56<316 395.719> 1914 59<276.953 398.253> 4235 77<989 1016>
VStem: 411 77<1810.44 1901.5> 421 81<1620.47 1723.91> 906 110<4235 4312>
LayerCount: 2
Fore
SplineSet
96 835 m 1xf9
 323 864 l 1
 625 -1400 l 1
 906 4312 l 1
 1016 4312 l 1
 1016 4235 l 1
 989 4235 l 1
 702 -1600 l 1
 564 -1600 l 1
 252 770 l 1
 107 749 l 1
 96 835 l 1xf9
206 1600 m 1
 251 1642 l 1
 278 1613 307 1601 341 1601 c 0
 390 1601 421 1628 421 1672 c 0xfb
 421 1722 391 1739 341 1739 c 2
 307 1739 l 1
 316 1795 l 1
 339 1795 l 2
 380 1795 411 1817 411 1858 c 0
 411 1893 385 1914 345 1914 c 0
 311 1914 285 1902 257 1877 c 1
 217 1921 l 1
 256 1956 300 1973 351 1973 c 0
 440 1973 488 1925 488 1868 c 0xfd
 488 1816 453 1783 402 1770 c 1
 457 1765 502 1733 502 1668 c 0xfb
 502 1597 443 1540 345 1540 c 0
 287 1540 240 1561 206 1600 c 1
EndSplineSet
EndChar
StartChar: uni221B.size4
Encoding: 1114144 -1 1584
Width: 775
Flags: W
IsExtendedShape: 1
HStem: 776 61<199.057 326.814> 975 56<242 321.719> 1150 59<202.953 324.253> 1771 77<763 790>
VStem: 337 77<1046.44 1137.5> 347 81<856.469 959.913>
LayerCount: 2
Fore
SplineSet
69 411 m 1xf0
 223 438 l 1
 402 -451 l 1
 693 1848 l 1
 790 1848 l 1
 790 1771 l 1
 763 1771 l 1
 463 -574 l 1
 350 -574 l 1
 161 347 l 1
 83 333 l 1
 69 411 l 1xf0
132 836 m 1
 177 878 l 1
 204 849 233 837 267 837 c 0
 316 837 347 864 347 908 c 0xf4
 347 958 317 975 267 975 c 2
 233 975 l 1
 242 1031 l 1
 265 1031 l 2
 306 1031 337 1053 337 1094 c 0
 337 1129 311 1150 271 1150 c 0
 237 1150 211 1138 183 1113 c 1
 143 1157 l 1
 182 1192 226 1209 277 1209 c 0
 366 1209 414 1161 414 1104 c 0xf8
 414 1052 379 1019 328 1006 c 1
 383 1001 428 969 428 904 c 0xf4
 428 833 369 776 271 776 c 0
 213 776 166 797 132 836 c 1
EndSplineSet
EndChar
StartChar: uni221B.size7
Encoding: 1114147 -1 1486
Width: 836
Flags: W
IsExtendedShape: 1
HStem: 984 61<219.057 346.814> 1183 56<262 341.719> 1358 59<222.953 344.253> 2443 77<824 851>
VStem: 357 77<1254.44 1345.5> 367 81<1064.47 1167.91>
LayerCount: 2
Fore
SplineSet
76 527 m 1xf0
 250 554 l 1
 463 -710 l 1
 751 2520 l 1
 851 2520 l 1
 851 2443 l 1
 824 2443 l 1
 528 -854 l 1
 408 -854 l 1
 186 462 l 1
 89 446 l 1
 76 527 l 1xf0
152 1044 m 1
 197 1086 l 1
 224 1057 253 1045 287 1045 c 0
 336 1045 367 1072 367 1116 c 0xf4
 367 1166 337 1183 287 1183 c 2
 253 1183 l 1
 262 1239 l 1
 285 1239 l 2
 326 1239 357 1261 357 1302 c 0
 357 1337 331 1358 291 1358 c 0
 257 1358 231 1346 203 1321 c 1
 163 1365 l 1
 202 1400 246 1417 297 1417 c 0
 386 1417 434 1369 434 1312 c 0xf8
 434 1260 399 1227 348 1214 c 1
 403 1209 448 1177 448 1112 c 0xf4
 448 1041 389 984 291 984 c 0
 233 984 186 1005 152 1044 c 1
EndSplineSet
EndChar
StartChar: uni221B.size8
Encoding: 1114148 -1 1588
Width: 857
Flags: W
IsExtendedShape: 1
HStem: 1054 61<226.057 353.814> 1253 56<269 348.719> 1428 59<229.953 351.253> 2667 77<845 872>
VStem: 364 77<1324.44 1415.5> 374 81<1134.47 1237.91>
LayerCount: 2
Fore
SplineSet
79 565 m 1xf0
 259 593 l 1
 483 -796 l 1
 770 2744 l 1
 872 2744 l 1
 872 2667 l 1
 845 2667 l 1
 550 -947 l 1
 428 -947 l 1
 194 501 l 1
 92 484 l 1
 79 565 l 1xf0
159 1114 m 1
 204 1156 l 1
 231 1127 260 1115 294 1115 c 0
 343 1115 374 1142 374 1186 c 0xf4
 374 1236 344 1253 294 1253 c 2
 260 1253 l 1
 269 1309 l 1
 292 1309 l 2
 333 1309 364 1331 364 1372 c 0
 364 1407 338 1428 298 1428 c 0
 264 1428 238 1416 210 1391 c 1
 170 1435 l 1
 209 1470 253 1487 304 1487 c 0
 393 1487 441 1439 441 1382 c 0xf8
 441 1330 406 1297 355 1284 c 1
 410 1279 455 1247 455 1182 c 0xf4
 455 1111 396 1054 298 1054 c 0
 240 1054 193 1075 159 1114 c 1
EndSplineSet
EndChar
StartChar: uni221C.bot
Encoding: 1114464 -1 1904
Width: 1085
Flags: W
HStem: 0 21G<741.939 873> 3365 60<313 418 494 547>
VStem: 418 76<3269 3365 3425 3516.88> 426 68<3425 3530> 791 82<200 3800>
LayerCount: 2
Fore
SplineSet
104 2435 m 1xc8
 331 2464 l 1
 791 200 l 1
 791 3800 l 1
 873 3800 l 1
 873 0 l 1
 746 0 l 1
 265 2369 l 1
 114 2350 l 1
 104 2435 l 1xc8
232 3365 m 1
 232 3419 l 1
 360 3693 l 1
 426 3668 l 1
 313 3425 l 1
 419 3425 l 1
 426 3530 l 1
 494 3530 l 1xd8
 494 3425 l 1
 547 3425 l 1
 547 3365 l 1
 494 3365 l 1
 494 3269 l 1
 418 3269 l 1
 418 3365 l 1xe8
 232 3365 l 1
EndSplineSet
EndChar
StartChar: uni221C.size8
Encoding: 1114163 -1 1603
Width: 857
Flags: W
IsExtendedShape: 1
HStem: 1159 60<242 347 423 476> 2667 77<845 872>
VStem: 347 76<1063 1159 1219 1310.88> 355 68<1219 1324>
LayerCount: 2
Fore
SplineSet
79 565 m 1xc0
 259 593 l 1
 483 -796 l 1
 770 2744 l 1
 872 2744 l 1
 872 2667 l 1
 845 2667 l 1
 550 -947 l 1
 428 -947 l 1
 194 501 l 1
 92 484 l 1
 79 565 l 1xc0
161 1159 m 1
 161 1213 l 1
 289 1487 l 1
 355 1462 l 1
 242 1219 l 1
 348 1219 l 1
 355 1324 l 1
 423 1324 l 1xd0
 423 1219 l 1
 476 1219 l 1
 476 1159 l 1
 423 1159 l 1
 423 1063 l 1
 347 1063 l 1
 347 1159 l 1xe0
 161 1159 l 1
EndSplineSet
EndChar
StartChar: uni222B.display
Encoding: 1114119 -1 1559
Width: 1180
Flags: W
ItalicCorrection: 580
IsExtendedShape: 1
HStem: -650 86<114.166 285.361> 1338 86<858.639 1029.83>
LayerCount: 2
Fore
SplineSet
594 153 m 2
 503 -523 416 -650 236 -650 c 3
 168 -650 114 -638 52 -604 c 1
 88 -530 l 1
 125 -550 178 -564 224 -564 c 3
 322 -564 406 -450 492 190 c 2
 550 620 l 2
 641 1296 728 1424 908 1424 c 3
 976 1424 1030 1412 1092 1378 c 1
 1056 1304 l 1
 1019 1324 966 1338 920 1338 c 3
 822 1338 738 1224 652 584 c 2
 594 153 l 2
EndSplineSet
EndChar
StartChar: uni222D.display
Encoding: 1114121 -1 1561
Width: 2060
Flags: W
ItalicCorrection: 580
IsExtendedShape: 1
HStem: -650 86<114.166 285.361 554.166 725.361 994.166 1165.36> 1338 86<858.639 1029.83 1298.64 1469.83 1738.64 1909.83>
LayerCount: 2
Fore
SplineSet
594 153 m 2
 503 -523 416 -650 236 -650 c 3
 168 -650 114 -638 52 -604 c 1
 88 -530 l 1
 125 -550 178 -564 224 -564 c 3
 322 -564 406 -450 492 190 c 2
 550 620 l 2
 641 1296 728 1424 908 1424 c 3
 976 1424 1030 1412 1092 1378 c 1
 1056 1304 l 1
 1019 1324 966 1338 920 1338 c 3
 822 1338 738 1224 652 584 c 2
 594 153 l 2
1034 153 m 2
 943 -523 856 -650 676 -650 c 3
 608 -650 554 -638 492 -604 c 1
 528 -530 l 1
 565 -550 618 -564 664 -564 c 3
 762 -564 846 -450 932 190 c 2
 990 620 l 2
 1081 1296 1168 1424 1348 1424 c 3
 1416 1424 1470 1412 1532 1378 c 1
 1496 1304 l 1
 1459 1324 1406 1338 1360 1338 c 3
 1262 1338 1178 1224 1092 584 c 2
 1034 153 l 2
1474 153 m 2
 1383 -523 1296 -650 1116 -650 c 3
 1048 -650 994 -638 932 -604 c 1
 968 -530 l 1
 1005 -550 1058 -564 1104 -564 c 3
 1202 -564 1286 -450 1372 190 c 2
 1430 620 l 2
 1521 1296 1608 1424 1788 1424 c 3
 1856 1424 1910 1412 1972 1378 c 1
 1936 1304 l 1
 1899 1324 1846 1338 1800 1338 c 3
 1702 1338 1618 1224 1532 584 c 2
 1474 153 l 2
EndSplineSet
EndChar
StartChar: uni222E.display
Encoding: 1114123 -1 1563
Width: 1180
Flags: W
ItalicCorrection: 580
IsExtendedShape: 1
HStem: -650 86<114.337 282.232> 67.1537 88.9067<594.412 667.3> 617.953 88.8982<476.81 549.724> 1338 86<861.793 1029.66>
VStem: 252 88<291.345 480.569> 804 88<293.456 482.655>
LayerCount: 2
Fore
SplineSet
594.411832173 156.060339079 m 1
 712.294891344 167.276199814 804 266.098472835 804 387 c 0
 804 486.307043969 742.128582549 570.717701354 654.699082734 603.918637069 c 1
 653.79959526 597.3363716 652.899907126 590.696983263 652 584 c 2
 594.411832173 156.060339079 l 1
667.315115157 692.618758038 m 1
 797.625206237 652.144265143 892 530.791513648 892 387 c 0
 892 213.358033793 754.37450486 72.4382132834 582.036643726 67.1536676179 c 1
 495.186463625 -533.900119542 408.102243161 -650 236 -650 c 0
 168 -650 114 -638 52 -604 c 1
 88 -530 l 1
 125 -550 178 -564 224 -564 c 0
 316.175856852 -564 395.966307602 -463.147407449 476.684884843 81.381241962 c 1
 346.374793763 121.855734857 252 243.208486352 252 387 c 0
 252 560.690449905 389.702360481 701.640478437 562.107723101 706.850727253 c 1
 648.91006623 1307.1155823 735.993115747 1424 908 1424 c 0
 976 1424 1030 1412 1092 1378 c 1
 1056 1304 l 1
 1019 1324 966 1338 920 1338 c 0
 827.824143148 1338 748.033692398 1237.14740745 667.315115157 692.618758038 c 1
549.72382943 617.952528532 m 1
 431.775473239 606.799607924 340 507.94790165 340 387 c 0
 340 287.692956031 401.871417451 203.282298646 489.300917266 170.081362931 c 1
 490.20040474 176.6636284 491.100092874 183.303016737 492 190 c 2
 549.72382943 617.952528532 l 1
EndSplineSet
EndChar
StartChar: uni2308.size12
Encoding: 1114407 -1 1847
Width: 481
Flags: W
IsExtendedShape: 1
HStem: 2657 86<202 420>
VStem: 97 105<-2184 2657>
LayerCount: 2
Fore
SplineSet
97 -2184 m 1
 97 2743 l 1
 420 2743 l 1
 420 2657 l 1
 202 2657 l 1
 202 -2184 l 1
 97 -2184 l 1
EndSplineSet
EndChar
StartChar: uni2308.size6
Encoding: 1114401 -1 1841
Width: 401
Flags: W
IsExtendedShape: 1
HStem: 1677 82<177 346>
VStem: 81 96<-1200 1677>
LayerCount: 2
Fore
SplineSet
81 -1200 m 1
 81 1759 l 1
 346 1759 l 1
 346 1677 l 1
 177 1677 l 1
 177 -1200 l 1
 81 -1200 l 1
EndSplineSet
EndChar
StartChar: uni2308.top
Encoding: 1114468 -1 1807
Width: 521
Flags: W
HStem: 0 21G<105 215> 1511 89<215 457>
VStem: 105 110<0 1511>
LayerCount: 2
Fore
SplineSet
105 0 m 1
 105 1600 l 1
 457 1600 l 1
 457 1511 l 1
 215 1511 l 1
 215 0 l 1
 105 0 l 1
EndSplineSet
EndChar
StartChar: uni2309.size12
Encoding: 1114422 -1 1761
Width: 481
Flags: W
IsExtendedShape: 1
HStem: 2657 86<61 278>
VStem: 278 106<-2184 2657>
LayerCount: 2
Fore
SplineSet
61 2657 m 1
 61 2743 l 1
 384 2743 l 1
 384 -2184 l 1
 278 -2184 l 1
 278 2657 l 1
 61 2657 l 1
EndSplineSet
EndChar
StartChar: uni2309.size13
Encoding: 1114423 -1 1863
Width: 494
Flags: W
IsExtendedShape: 1
HStem: 2820 87<62 287>
VStem: 287 107<-2348 2820>
LayerCount: 2
Fore
SplineSet
62 2820 m 1
 62 2907 l 1
 394 2907 l 1
 394 -2348 l 1
 287 -2348 l 1
 287 2820 l 1
 62 2820 l 1
EndSplineSet
EndChar
StartChar: uni2309.size4
Encoding: 1114414 -1 1854
Width: 375
Flags: W
IsExtendedShape: 1
HStem: 1351 80<53 206>
VStem: 206 93<-872 1351>
LayerCount: 2
Fore
SplineSet
53 1351 m 1
 53 1431 l 1
 299 1431 l 1
 299 -872 l 1
 206 -872 l 1
 206 1351 l 1
 53 1351 l 1
EndSplineSet
EndChar
StartChar: uni2309.size8
Encoding: 1114418 -1 1757
Width: 428
Flags: W
IsExtendedShape: 1
HStem: 2004 83<57 242>
VStem: 242 99<-1528 2004>
LayerCount: 2
Fore
SplineSet
57 2004 m 1
 57 2087 l 1
 341 2087 l 1
 341 -1528 l 1
 242 -1528 l 1
 242 2004 l 1
 57 2004 l 1
EndSplineSet
EndChar
StartChar: uni2309.size9
Encoding: 1114419 -1 1859
Width: 441
Flags: W
IsExtendedShape: 1
HStem: 2167 84<58 251>
VStem: 251 101<-1692 2167>
LayerCount: 2
Fore
SplineSet
58 2167 m 1
 58 2251 l 1
 352 2251 l 1
 352 -1692 l 1
 251 -1692 l 1
 251 2167 l 1
 58 2167 l 1
EndSplineSet
EndChar
StartChar: uni230A.bot
Encoding: 1114473 -1 1913
Width: 521
Flags: W
HStem: 0 89<215 457>
VStem: 105 110<89 1600>
LayerCount: 2
Fore
SplineSet
105 0 m 1
 105 1600 l 1
 215 1600 l 1
 215 89 l 1
 457 89 l 1
 457 0 l 1
 105 0 l 1
EndSplineSet
EndChar
StartChar: uni230A.ext
Encoding: 1114472 -1 1811
Width: 521
Flags: W
HStem: 0 21G<105 215>
VStem: 105 110<0 600>
LayerCount: 2
Fore
SplineSet
105 0 m 1
 105 600 l 1
 215 600 l 1
 215 0 l 1
 105 0 l 1
EndSplineSet
EndChar
StartChar: uni230A.size14
Encoding: 1114439 -1 1778
Width: 507
Flags: W
IsExtendedShape: 1
HStem: -2512 88<210 444>
VStem: 102 108<-2424 3071>
LayerCount: 2
Fore
SplineSet
102 -2512 m 1
 102 3071 l 1
 210 3071 l 1
 210 -2424 l 1
 444 -2424 l 1
 444 -2512 l 1
 102 -2512 l 1
EndSplineSet
EndChar
StartChar: uni230A.size2
Encoding: 1114427 -1 1867
Width: 348
Flags: W
IsExtendedShape: 1
HStem: -544 78<160 296>
VStem: 70 90<-466 1103>
LayerCount: 2
Fore
SplineSet
70 -544 m 1
 70 1103 l 1
 160 1103 l 1
 160 -466 l 1
 296 -466 l 1
 296 -544 l 1
 70 -544 l 1
EndSplineSet
EndChar
StartChar: uni230A.size8
Encoding: 1114433 -1 1873
Width: 428
Flags: W
IsExtendedShape: 1
HStem: -1528 83<185 370>
VStem: 86 99<-1445 2087>
LayerCount: 2
Fore
SplineSet
86 -1528 m 1
 86 2087 l 1
 185 2087 l 1
 185 -1445 l 1
 370 -1445 l 1
 370 -1528 l 1
 86 -1528 l 1
EndSplineSet
EndChar
StartChar: uni230B.size10
Encoding: 1114450 -1 1789
Width: 454
Flags: W
IsExtendedShape: 1
HStem: -1856 85<59 260>
VStem: 260 103<-1771 2415>
LayerCount: 2
Fore
SplineSet
59 -1771 m 1
 260 -1771 l 1
 260 2415 l 1
 363 2415 l 1
 363 -1856 l 1
 59 -1856 l 1
 59 -1771 l 1
EndSplineSet
EndChar
StartChar: uni230B.size15
Encoding: 1114455 -1 1895
Width: 521
Flags: W
IsExtendedShape: 1
HStem: -2676 89<64 306>
VStem: 306 110<-2587 3236>
LayerCount: 2
Fore
SplineSet
64 -2587 m 1
 306 -2587 l 1
 306 3236 l 1
 416 3236 l 1
 416 -2676 l 1
 64 -2676 l 1
 64 -2587 l 1
EndSplineSet
EndChar
StartChar: uni230B.size2
Encoding: 1114442 -1 1882
Width: 348
Flags: W
IsExtendedShape: 1
HStem: -544 78<51 188>
VStem: 188 90<-466 1103>
LayerCount: 2
Fore
SplineSet
51 -466 m 1
 188 -466 l 1
 188 1103 l 1
 278 1103 l 1
 278 -544 l 1
 51 -544 l 1
 51 -466 l 1
EndSplineSet
EndChar
StartChar: uni230B.size5
Encoding: 1114445 -1 1885
Width: 388
Flags: W
IsExtendedShape: 1
HStem: -1036 81<54 215>
VStem: 215 95<-955 1595>
LayerCount: 2
Fore
SplineSet
54 -955 m 1
 215 -955 l 1
 215 1595 l 1
 310 1595 l 1
 310 -1036 l 1
 54 -1036 l 1
 54 -955 l 1
EndSplineSet
EndChar
StartChar: uni230B.size6
Encoding: 1114446 -1 1886
Width: 401
Flags: W
IsExtendedShape: 1
HStem: -1200 81<55 224>
VStem: 224 96<-1119 1759>
LayerCount: 2
Fore
SplineSet
55 -1119 m 1
 224 -1119 l 1
 224 1759 l 1
 320 1759 l 1
 320 -1200 l 1
 55 -1200 l 1
 55 -1119 l 1
EndSplineSet
EndChar
StartChar: uni230B.size9
Encoding: 1114449 -1 1788
Width: 441
Flags: W
IsExtendedShape: 1
HStem: -1692 84<58 251>
VStem: 251 101<-1608 2251>
LayerCount: 2
Fore
SplineSet
58 -1608 m 1
 251 -1608 l 1
 251 2251 l 1
 352 2251 l 1
 352 -1692 l 1
 58 -1692 l 1
 58 -1608 l 1
EndSplineSet
EndChar
StartChar: uni23B4.right
Encoding: 1114580 -1 2020
Width: 2956
VWidth: 1640
Flags: W
HStem: 882 102<0 2867>
VStem: 2867 89<640 882>
LayerCount: 2
Fore
SplineSet
0 882 m 1
 0 984 l 1
 2956 984 l 1
 2956 640 l 1
 2867 640 l 1
 2867 882 l 1
 0 882 l 1
EndSplineSet
EndChar
StartChar: uni23B4.size1
Encoding: 1114512 -1 1952
Width: 1146
Flags: W
HStem: 640 209<32 105 1041 1114> 768 81<105 1041>
VStem: 32 73<640 768> 1041 73<640 768>
LayerCount: 2
Fore
SplineSet
32 640 m 1xb0
 32 849 l 1
 1114 849 l 1
 1114 640 l 1
 1041 640 l 1xb0
 1041 768 l 1
 105 768 l 1x70
 105 640 l 1
 32 640 l 1xb0
EndSplineSet
EndChar
StartChar: uni23B4.size10
Encoding: 1114601 -1 2017
Width: 4251
Flags: W
HStem: 841 95<115 4136>
VStem: 32 83<640 841> 4136 83<640 841>
LayerCount: 2
Fore
SplineSet
32 640 m 1
 32 936 l 1
 4219 936 l 1
 4219 640 l 1
 4136 640 l 1
 4136 841 l 1
 115 841 l 1
 115 640 l 1
 32 640 l 1
EndSplineSet
EndChar
StartChar: uni23B4.size11
Encoding: 1114602 -1 2018
Width: 4596
Flags: W
HStem: 849 96<116 4479>
VStem: 32 84<640 849> 4479 85<640 849>
LayerCount: 2
Fore
SplineSet
32 640 m 1
 32 945 l 1
 4564 945 l 1
 4564 640 l 1
 4479 640 l 1
 4479 849 l 1
 116 849 l 1
 116 640 l 1
 32 640 l 1
EndSplineSet
EndChar
StartChar: uni23B4.size12
Encoding: 1114603 -1 2019
Width: 4941
Flags: W
HStem: 857 98<117 4823>
VStem: 32 85<640 857> 4823 86<640 857>
LayerCount: 2
Fore
SplineSet
32 640 m 1
 32 955 l 1
 4909 955 l 1
 4909 640 l 1
 4823 640 l 1
 4823 857 l 1
 117 857 l 1
 117 640 l 1
 32 640 l 1
EndSplineSet
EndChar
StartChar: uni23B4.size13
Encoding: 1114524 -1 1964
Width: 5286
Flags: W
HStem: 865 99<118 5167>
VStem: 32 86<640 865> 5167 87<640 865>
LayerCount: 2
Fore
SplineSet
32 640 m 1
 32 964 l 1
 5254 964 l 1
 5254 640 l 1
 5167 640 l 1
 5167 865 l 1
 118 865 l 1
 118 640 l 1
 32 640 l 1
EndSplineSet
EndChar
StartChar: uni23B4.size14
Encoding: 1114525 -1 1965
Width: 5631
Flags: W
HStem: 873 101<119 5511>
VStem: 32 87<640 873> 5511 88<640 873>
LayerCount: 2
Fore
SplineSet
32 640 m 1
 32 974 l 1
 5599 974 l 1
 5599 640 l 1
 5511 640 l 1
 5511 873 l 1
 119 873 l 1
 119 640 l 1
 32 640 l 1
EndSplineSet
EndChar
StartChar: uni23B4.size2
Encoding: 1114513 -1 1953
Width: 1491
Flags: W
HStem: 640 219<32 106 1385 1459> 776 83<106 1385>
VStem: 32 74<640 776> 1385 74<640 776>
LayerCount: 2
Fore
SplineSet
32 640 m 1xb0
 32 859 l 1
 1459 859 l 1
 1459 640 l 1
 1385 640 l 1xb0
 1385 776 l 1
 106 776 l 1x70
 106 640 l 1
 32 640 l 1xb0
EndSplineSet
EndChar
StartChar: uni23B4.size4
Encoding: 1114595 -1 2011
Width: 2181
Flags: W
HStem: 640 238<32 108 2073 2149> 792 86<108 2073>
VStem: 32 76<640 792> 2073 76<640 792>
LayerCount: 2
Fore
SplineSet
32 640 m 1xb0
 32 878 l 1
 2149 878 l 1
 2149 640 l 1
 2073 640 l 1xb0
 2073 792 l 1
 108 792 l 1x70
 108 640 l 1
 32 640 l 1xb0
EndSplineSet
EndChar
StartChar: uni23B4.size6
Encoding: 1114517 -1 1957
Width: 2871
Flags: W
HStem: 640 257<32 110 2760 2839> 808 89<110 2760>
VStem: 32 78<640 808> 2760 79<640 808>
LayerCount: 2
Fore
SplineSet
32 640 m 1xb0
 32 897 l 1
 2839 897 l 1
 2839 640 l 1
 2760 640 l 1xb0
 2760 808 l 1
 110 808 l 1x70
 110 640 l 1
 32 640 l 1xb0
EndSplineSet
EndChar
StartChar: uni23B4.size7
Encoding: 1114518 -1 1958
Width: 3216
Flags: W
HStem: 816 91<111 3104>
VStem: 32 79<640 816> 3104 80<640 816>
LayerCount: 2
Fore
SplineSet
32 640 m 1
 32 907 l 1
 3184 907 l 1
 3184 640 l 1
 3104 640 l 1
 3104 816 l 1
 111 816 l 1
 111 640 l 1
 32 640 l 1
EndSplineSet
EndChar
StartChar: uni23B4.size9
Encoding: 1114520 -1 1960
Width: 3906
Flags: W
HStem: 833 93<114 3792>
VStem: 32 82<640 833> 3792 82<640 833>
LayerCount: 2
Fore
SplineSet
32 640 m 1
 32 926 l 1
 3874 926 l 1
 3874 640 l 1
 3792 640 l 1
 3792 833 l 1
 114 833 l 1
 114 640 l 1
 32 640 l 1
EndSplineSet
EndChar
StartChar: uni23B5.ext
Encoding: 1114516 -1 1831
Width: 600
Flags: W
HStem: -504 102<0 600>
LayerCount: 2
Fore
SplineSet
0 -402 m 1
 600 -402 l 25
 600 -504 l 25
 0 -504 l 1
 0 -402 l 1
EndSplineSet
EndChar
StartChar: uni23B5.size1
Encoding: 1114607 -1 2023
Width: 1146
Flags: W
HStem: -370 210<32 105 1041 1114> -370 81<105 1041>
VStem: 32 73<-289 -160> 1041 73<-289 -160>
LayerCount: 2
Fore
SplineSet
32 -160 m 1xb0
 105 -160 l 1xb0
 105 -289 l 1
 1041 -289 l 1x70
 1041 -160 l 1
 1114 -160 l 1
 1114 -370 l 1
 32 -370 l 1
 32 -160 l 1xb0
EndSplineSet
EndChar
StartChar: uni23B5.size10
Encoding: 1114616 -1 2032
Width: 4251
Flags: W
HStem: -456 94<115 4136>
VStem: 32 83<-362 -160> 4136 83<-362 -160>
LayerCount: 2
Fore
SplineSet
32 -160 m 1
 115 -160 l 1
 115 -362 l 1
 4136 -362 l 1
 4136 -160 l 1
 4219 -160 l 1
 4219 -456 l 1
 32 -456 l 1
 32 -160 l 1
EndSplineSet
EndChar
StartChar: uni23B5.size11
Encoding: 1114617 -1 2033
Width: 4596
Flags: W
HStem: -466 96<116 4479>
VStem: 32 84<-370 -160> 4479 85<-370 -160>
LayerCount: 2
Fore
SplineSet
32 -160 m 1
 116 -160 l 1
 116 -370 l 1
 4479 -370 l 1
 4479 -160 l 1
 4564 -160 l 1
 4564 -466 l 1
 32 -466 l 1
 32 -160 l 1
EndSplineSet
EndChar
StartChar: uni23B5.size12
Encoding: 1114538 -1 1978
Width: 4941
Flags: W
HStem: -476 98<117 4823>
VStem: 32 85<-378 -160> 4823 86<-378 -160>
LayerCount: 2
Fore
SplineSet
32 -160 m 1
 117 -160 l 1
 117 -378 l 1
 4823 -378 l 1
 4823 -160 l 1
 4909 -160 l 1
 4909 -476 l 1
 32 -476 l 1
 32 -160 l 1
EndSplineSet
EndChar
StartChar: uni23B5.size13
Encoding: 1114539 -1 1979
Width: 5286
Flags: W
HStem: -485 99<118 5167>
VStem: 32 86<-386 -160> 5167 87<-386 -160>
LayerCount: 2
Fore
SplineSet
32 -160 m 1
 118 -160 l 1
 118 -386 l 1
 5167 -386 l 1
 5167 -160 l 1
 5254 -160 l 1
 5254 -485 l 1
 32 -485 l 1
 32 -160 l 1
EndSplineSet
EndChar
StartChar: uni23B5.size14
Encoding: 1114540 -1 1980
Width: 5631
Flags: W
HStem: -495 101<119 5511>
VStem: 32 87<-394 -160> 5511 88<-394 -160>
LayerCount: 2
Fore
SplineSet
32 -160 m 1
 119 -160 l 1
 119 -394 l 1
 5511 -394 l 1
 5511 -160 l 1
 5599 -160 l 1
 5599 -495 l 1
 32 -495 l 1
 32 -160 l 1
EndSplineSet
EndChar
StartChar: uni23B5.size15
Encoding: 1114541 -1 1981
Width: 5976
Flags: W
HStem: -504 102<121 5855>
VStem: 32 89<-402 -160> 5855 89<-402 -160>
LayerCount: 2
Fore
SplineSet
32 -160 m 1
 121 -160 l 1
 121 -402 l 1
 5855 -402 l 1
 5855 -160 l 1
 5944 -160 l 1
 5944 -504 l 1
 32 -504 l 1
 32 -160 l 1
EndSplineSet
EndChar
StartChar: uni23B5.size2
Encoding: 1114528 -1 1968
Width: 1491
Flags: W
HStem: -380 220<32 106 1385 1459> -380 83<106 1385>
VStem: 32 74<-297 -160> 1385 74<-297 -160>
LayerCount: 2
Fore
SplineSet
32 -160 m 1xb0
 106 -160 l 1xb0
 106 -297 l 1
 1385 -297 l 1x70
 1385 -160 l 1
 1459 -160 l 1
 1459 -380 l 1
 32 -380 l 1
 32 -160 l 1xb0
EndSplineSet
EndChar
StartChar: uni23B5.size4
Encoding: 1114610 -1 2026
Width: 2181
Flags: W
HStem: -399 239<32 108 2073 2149> -399 86<108 2073>
VStem: 32 76<-313 -160> 2073 76<-313 -160>
LayerCount: 2
Fore
SplineSet
32 -160 m 1xb0
 108 -160 l 1xb0
 108 -313 l 1
 2073 -313 l 1x70
 2073 -160 l 1
 2149 -160 l 1
 2149 -399 l 1
 32 -399 l 1
 32 -160 l 1xb0
EndSplineSet
EndChar
StartChar: uni23B5.size5
Encoding: 1114611 -1 2027
Width: 2526
Flags: W
HStem: -408 248<32 109 2417 2494> -408 87<109 2417>
VStem: 32 77<-321 -160> 2417 77<-321 -160>
LayerCount: 2
Fore
SplineSet
32 -160 m 1xb0
 109 -160 l 1xb0
 109 -321 l 1
 2417 -321 l 1x70
 2417 -160 l 1
 2494 -160 l 1
 2494 -408 l 1
 32 -408 l 1
 32 -160 l 1xb0
EndSplineSet
EndChar
StartChar: uni23B5.size6
Encoding: 1114532 -1 1972
Width: 2871
Flags: W
HStem: -418 258<32 110 2760 2839> -418 89<110 2760>
VStem: 32 78<-329 -160> 2760 79<-329 -160>
LayerCount: 2
Fore
SplineSet
32 -160 m 1xb0
 110 -160 l 1xb0
 110 -329 l 1
 2760 -329 l 1x70
 2760 -160 l 1
 2839 -160 l 1
 2839 -418 l 1
 32 -418 l 1
 32 -160 l 1xb0
EndSplineSet
EndChar
StartChar: uni23B5.size7
Encoding: 1114533 -1 1973
Width: 3216
Flags: W
HStem: -428 91<111 3104>
VStem: 32 79<-337 -160> 3104 80<-337 -160>
LayerCount: 2
Fore
SplineSet
32 -160 m 1
 111 -160 l 1
 111 -337 l 1
 3104 -337 l 1
 3104 -160 l 1
 3184 -160 l 1
 3184 -428 l 1
 32 -428 l 1
 32 -160 l 1
EndSplineSet
EndChar
StartChar: uni23B5.size9
Encoding: 1114615 -1 2031
Width: 3906
Flags: W
HStem: -447 93<114 3792>
VStem: 32 82<-354 -160> 3792 82<-354 -160>
LayerCount: 2
Fore
SplineSet
32 -160 m 1
 114 -160 l 1
 114 -354 l 1
 3792 -354 l 1
 3792 -160 l 1
 3874 -160 l 1
 3874 -447 l 1
 32 -447 l 1
 32 -160 l 1
EndSplineSet
EndChar
StartChar: uni23DC.ext
Encoding: 1114573 -1 2013
Width: 600
Flags: W
HStem: 984 120<0 600>
LayerCount: 2
Fore
SplineSet
0 984 m 1
 0 1104 l 1
 600 1104 l 25
 600 984 l 25
 0 984 l 1
EndSplineSet
EndChar
StartChar: uni23DC.left
Encoding: 1114572 -1 2012
Width: 2956
Flags: W
HStem: 984 120<2701.46 2956>
LayerCount: 2
Fore
SplineSet
0 716 m 1
 940 1008 1856 1104 2956 1104 c 9
 2956 984 l 17
 1934 984 987 922 22 640 c 1
 0 716 l 1
EndSplineSet
EndChar
StartChar: uni23DC.right
Encoding: 1114574 -1 2014
Width: 2956
Flags: W
HStem: 984 120<0 254.543>
LayerCount: 2
Fore
SplineSet
0 984 m 9
 0 1104 l 17
 1100 1104 2016 1008 2956 716 c 1
 2934 640 l 1
 1969 922 1022 984 0 984 c 9
EndSplineSet
EndChar
StartChar: uni23DC.size1
Encoding: 1114482 -1 1922
Width: 1146
Flags: W
HStem: 774 92<376.599 769.401>
LayerCount: 2
Fore
SplineSet
32 694 m 1
 188 786 340 866 573 866 c 0
 806 866 958 786 1114 694 c 1
 1075 640 l 1
 921 726 785 774 573 774 c 0
 361 774 225 726 71 640 c 1
 32 694 l 1
EndSplineSet
EndChar
StartChar: uni23DC.size11
Encoding: 1114492 -1 1932
Width: 4596
Flags: W
HStem: 640 69<56.2609 93.3465 4502.61 4539.74> 924 112<2032.27 2563.46>
LayerCount: 2
Fore
SplineSet
32 709 m 1
 748 944 1445 1036 2298 1036 c 0
 3150 1036 3848 944 4564 709 c 1
 4537 640 l 1
 3803 866 3088 924 2298 924 c 0
 1507 924 792 866 59 640 c 1
 32 709 l 1
EndSplineSet
EndChar
StartChar: uni23DC.size12
Encoding: 1114493 -1 1933
Width: 4941
Flags: W
HStem: 640 71<54.5352 68.1735 4872.83 4885.56> 939 114<2205.69 2734.47>
LayerCount: 2
Fore
SplineSet
32 711 m 1
 804 960 1556 1053 2470 1053 c 0
 3384 1053 4137 960 4909 711 c 1
 4883 640 l 1
 4092 880 3319 939 2470 939 c 0
 1622 939 849 880 57 640 c 1
 32 711 l 1
EndSplineSet
EndChar
StartChar: uni23DC.size13
Encoding: 1114494 -1 1934
Width: 5286
Flags: W
HStem: 640 72<53.6667 70.7971 5215.2 5231.43> 954 116<2381.2 2904.56>
LayerCount: 2
Fore
SplineSet
32 712 m 1
 860 976 1666 1070 2643 1070 c 0
 3619 1070 4426 976 5254 712 c 1
 5229 640 l 1
 4380 894 3549 954 2643 954 c 0
 1736 954 905 894 56 640 c 1
 32 712 l 1
EndSplineSet
EndChar
StartChar: uni23DC.size14
Encoding: 1114495 -1 1935
Width: 5631
Flags: W
HStem: 640 74<52.8243 73.4214 5557.58 5577.27> 969 118<2560.32 3069.69>
LayerCount: 2
Fore
SplineSet
32 714 m 1
 916 992 1777 1087 2815 1087 c 0
 3853 1087 4715 992 5599 714 c 1
 5575 640 l 1
 4668 908 3779 969 2815 969 c 0
 1851 969 962 908 55 640 c 1
 32 714 l 1
EndSplineSet
EndChar
StartChar: uni23DC.size15
Encoding: 1114496 -1 1936
Width: 5976
Flags: W
HStem: 640 76<51.9737 76.0457 5899.95 5924.03> 984 120<2717.96 3258.04>
LayerCount: 2
Fore
SplineSet
32 716 m 1
 972 1008 1888 1104 2988 1104 c 0
 4088 1104 5004 1008 5944 716 c 1
 5922 640 l 1
 4957 922 4010 984 2988 984 c 0
 1966 984 1019 922 54 640 c 1
 32 716 l 1
EndSplineSet
EndChar
StartChar: uni23DC.size2
Encoding: 1114563 -1 1979
Width: 1491
Flags: W
HStem: 789 94<502.447 988.227>
LayerCount: 2
Fore
SplineSet
32 696 m 1
 244 802 451 883 745 883 c 0
 1040 883 1247 802 1459 696 c 1
 1421 640 l 1
 1209 740 1015 789 745 789 c 0
 476 789 282 740 70 640 c 1
 32 696 l 1
EndSplineSet
EndChar
StartChar: uni23DC.size3
Encoding: 1114484 -1 1924
Width: 1836
Flags: W
HStem: 804 96<662.014 1173.99>
LayerCount: 2
Fore
SplineSet
32 697 m 1
 300 818 561 900 918 900 c 0
 1275 900 1536 818 1804 697 c 1
 1767 640 l 1
 1497 754 1246 804 918 804 c 0
 590 804 339 754 69 640 c 1
 32 697 l 1
EndSplineSet
EndChar
StartChar: uni23DC.size4
Encoding: 1114485 -1 1925
Width: 2181
Flags: W
HStem: 819 98<829.819 1350.71>
LayerCount: 2
Fore
SplineSet
32 699 m 1
 356 834 672 917 1090 917 c 0
 1509 917 1825 834 2149 699 c 1
 2113 640 l 1
 1786 768 1476 819 1090 819 c 0
 705 819 395 768 67 640 c 1
 32 699 l 1
EndSplineSet
EndChar
StartChar: uni23DC.size6
Encoding: 1114487 -1 1927
Width: 2871
Flags: W
HStem: 849 102<1185.97 1684.44>
LayerCount: 2
Fore
SplineSet
32 702 m 1
 468 865 893 951 1435 951 c 0
 1978 951 2403 865 2839 702 c 1
 2806 640 l 1
 2362 796 1937 849 1435 849 c 0
 934 849 509 796 65 640 c 1
 32 702 l 1
EndSplineSet
EndChar
StartChar: uni23DC.size7
Encoding: 1114568 -1 1984
Width: 3216
Flags: W
HStem: 864 104<1355.48 1860.33>
LayerCount: 2
Fore
SplineSet
32 703 m 1
 524 881 1003 968 1608 968 c 0
 2212 968 2692 881 3184 703 c 1
 3152 640 l 1
 2650 810 2167 864 1608 864 c 0
 1049 864 565 810 64 640 c 1
 32 703 l 1
EndSplineSet
EndChar
StartChar: uni23DC.size8
Encoding: 1114489 -1 1929
Width: 3561
Flags: W
HStem: 879 106<1530.05 2030.14>
LayerCount: 2
Fore
SplineSet
32 705 m 1
 580 897 1114 985 1780 985 c 0
 2447 985 2981 897 3529 705 c 1
 3498 640 l 1
 2939 824 2397 879 1780 879 c 0
 1163 879 622 824 62 640 c 1
 32 705 l 1
EndSplineSet
EndChar
StartChar: uni23DC.size9
Encoding: 1114490 -1 1930
Width: 3906
Flags: W
HStem: 640 66<57.9242 88.5829 3817.41 3847.18> 894 108<1694.59 2211.27>
LayerCount: 2
Fore
SplineSet
32 706 m 1
 636 913 1224 1002 1953 1002 c 0
 2681 1002 3270 913 3874 706 c 1
 3844 640 l 1
 3227 838 2628 894 1953 894 c 0
 1278 894 679 838 61 640 c 1
 32 706 l 1
EndSplineSet
EndChar
StartChar: uni23DD.ext
Encoding: 1114576 -1 2016
Width: 600
Flags: W
HStem: -624 120<0 600>
LayerCount: 2
Fore
SplineSet
0 -504 m 1
 600 -504 l 25
 600 -624 l 25
 0 -624 l 1
 0 -504 l 1
EndSplineSet
EndChar
StartChar: uni23DD.left
Encoding: 1114575 -1 2015
Width: 2956
Flags: W
HStem: -624 120<2701.46 2956>
LayerCount: 2
Fore
SplineSet
0 -236 m 1
 22 -160 l 1
 987 -442 1934 -504 2956 -504 c 9
 2956 -624 l 17
 1856 -624 940 -528 0 -236 c 1
EndSplineSet
EndChar
StartChar: uni23DD.right
Encoding: 1114577 -1 2017
Width: 2956
Flags: W
HStem: -624 120<0 254.543>
LayerCount: 2
Fore
SplineSet
0 -504 m 17
 1022 -504 1969 -442 2934 -160 c 1
 2956 -236 l 1
 2016 -528 1100 -624 0 -624 c 9
 0 -504 l 17
EndSplineSet
EndChar
StartChar: uni23DD.size1
Encoding: 1114497 -1 1937
Width: 1146
Flags: W
HStem: -386 92<376.599 769.401>
LayerCount: 2
Fore
SplineSet
32 -215 m 1
 188 -307 340 -386 573 -386 c 0
 806 -386 958 -307 1114 -215 c 1
 1075 -160 l 1
 921 -246 785 -294 573 -294 c 0
 361 -294 225 -246 71 -160 c 1
 32 -215 l 1
EndSplineSet
EndChar
StartChar: uni23DD.size10
Encoding: 1114586 -1 2002
Width: 4251
Flags: W
HStem: -539 110<1862.32 2387.97> -229 69<57.1594 91.6285 4159.33 4193.84>
LayerCount: 2
Fore
SplineSet
32 -229 m 1
 692 -449 1335 -539 2125 -539 c 0
 2916 -539 3559 -449 4219 -229 c 1
 4191 -160 l 1
 3515 -372 2858 -429 2125 -429 c 0
 1393 -429 735 -372 60 -160 c 1
 32 -229 l 1
EndSplineSet
EndChar
StartChar: uni23DD.size15
Encoding: 1114511 -1 1951
Width: 5976
Flags: W
HStem: -624 120<2717.96 3258.04> -236 76<51.9737 76.0457 5899.95 5924.03>
LayerCount: 2
Fore
SplineSet
32 -236 m 1
 972 -528 1888 -624 2988 -624 c 0
 4088 -624 5004 -528 5944 -236 c 1
 5922 -160 l 1
 4957 -442 4010 -504 2988 -504 c 0
 1966 -504 1019 -442 54 -160 c 1
 32 -236 l 1
EndSplineSet
EndChar
StartChar: uni23DD.size2
Encoding: 1114498 -1 1938
Width: 1491
Flags: W
HStem: -403 94<496.599 994.087>
LayerCount: 2
Fore
SplineSet
32 -217 m 1
 244 -323 451 -403 745 -403 c 0
 1040 -403 1247 -323 1459 -217 c 1
 1421 -160 l 1
 1209 -260 1015 -309 745 -309 c 0
 476 -309 282 -260 70 -160 c 1
 32 -217 l 1
EndSplineSet
EndChar
StartChar: uni23DD.size3
Encoding: 1114499 -1 1939
Width: 1836
Flags: W
HStem: -420 96<662.014 1173.99>
LayerCount: 2
Fore
SplineSet
32 -218 m 1
 300 -339 561 -420 918 -420 c 0
 1275 -420 1536 -339 1804 -218 c 1
 1767 -160 l 1
 1497 -274 1246 -324 918 -324 c 0
 590 -324 339 -274 69 -160 c 1
 32 -218 l 1
EndSplineSet
EndChar
StartChar: uni23DD.size6
Encoding: 1114502 -1 1942
Width: 2871
Flags: W
HStem: -471 102<1185.97 1684.44>
LayerCount: 2
Fore
SplineSet
32 -223 m 1
 468 -386 893 -471 1435 -471 c 0
 1978 -471 2403 -386 2839 -223 c 1
 2806 -160 l 1
 2362 -316 1937 -369 1435 -369 c 0
 934 -369 509 -316 65 -160 c 1
 32 -223 l 1
EndSplineSet
EndChar
StartChar: uni23DD.size8
Encoding: 1114584 -1 2000
Width: 3561
Flags: W
HStem: -505 106<1530.05 2030.14>
LayerCount: 2
Fore
SplineSet
32 -226 m 1
 580 -418 1114 -505 1780 -505 c 0
 2447 -505 2981 -418 3529 -226 c 1
 3498 -160 l 1
 2939 -344 2397 -399 1780 -399 c 0
 1163 -399 622 -344 62 -160 c 1
 32 -226 l 1
EndSplineSet
EndChar
StartChar: uni23DD.size9
Encoding: 1114505 -1 1945
Width: 3906
Flags: W
HStem: -522 108<1694.59 2211.27> -227 67<57.9701 88.5829 3817.41 3847.13>
LayerCount: 2
Fore
SplineSet
32 -227 m 1
 636 -434 1224 -522 1953 -522 c 0
 2681 -522 3270 -434 3874 -227 c 1
 3844 -160 l 1
 3227 -358 2628 -414 1953 -414 c 0
 1278 -414 679 -358 61 -160 c 1
 32 -227 l 1
EndSplineSet
EndChar
StartChar: uni23DE.ext
Encoding: 1114519 -1 1834
Width: 600
VWidth: 1279
Flags: W
HStem: 795 110<0 600>
LayerCount: 2
Fore
SplineSet
0 795 m 1
 0 905 l 1
 600 905 l 1
 600 795 l 1
 0 795 l 1
EndSplineSet
EndChar
StartChar: uni23DE.mid
Encoding: 1114520 -1 1835
Width: 2000
VWidth: 1279
Flags: W
HStem: 795 110<0 771.61 1228.39 2000>
VStem: 957 86<1019.12 1095>
LayerCount: 2
Fore
SplineSet
0 795 m 25
 0 905 l 25
 563 905 l 2
 827 905 957 975 957 1095 c 1
 1043 1095 l 1
 1043 975 1173 905 1437 905 c 2
 2000 905 l 25
 2000 795 l 25
 1414 795 l 2
 1158 795 1034 869 1000 953 c 1
 966 869 842 795 586 795 c 2
 0 795 l 25
EndSplineSet
EndChar
StartChar: uni23DE.right
Encoding: 1114587 -1 2027
Width: 1400
VWidth: 1279
Flags: W
HStem: 795 110<0 1245.8>
VStem: 1304 96<640 732.782>
LayerCount: 2
Fore
SplineSet
0 795 m 25
 0 905 l 25
 1157 905 l 2
 1305.93457031 905 1400 824 1400 640 c 1
 1304 640 l 1
 1304 754 1240.96875 795 1168 795 c 2
 0 795 l 25
EndSplineSet
EndChar
StartChar: uni23DE.size1
Encoding: 1114542 -1 1982
Width: 1146
Flags: W
HStem: 737 82<117.655 514.033 631.967 1028.34>
VStem: 32 68<640 720.501> 541 64<844.173 890> 1046 68<640 720.501>
CounterMasks: 1 70
LayerCount: 2
Fore
SplineSet
32 640 m 1
 32 766 72 819 164 819 c 2
 422 819 l 2
 497 819 541 843 541 890 c 1
 605 890 l 1
 605 843 649 819 724 819 c 2
 982 819 l 2
 1074 819 1114 766 1114 640 c 1
 1046 640 l 1
 1046 703 1027 737 983 737 c 2
 704 737 l 2
 630 737 597 757 573 801 c 1
 549 757 516 737 442 737 c 2
 163 737 l 2
 119 737 100 703 100 640 c 1
 32 640 l 1
EndSplineSet
EndChar
StartChar: uni23DE.size11
Encoding: 1114552 -1 1992
Width: 4596
Flags: W
HStem: 778 102<168.954 2125.62 2469.61 4430.02>
VStem: 32 88<640 729.802> 2258 79<969.859 1036> 4476 88<640 729.802>
LayerCount: 2
Fore
SplineSet
32 640 m 1
 32 807 110 880 243 880 c 2
 1942 880 l 2
 2152 880 2258 937 2258 1036 c 1
 2337 1036 l 1
 2337 937 2443 880 2653 880 c 2
 4352 880 l 2
 4485 880 4564 807 4564 640 c 1
 4476 640 l 1
 4476 739 4425 778 4361 778 c 2
 2631 778 l 2
 2427 778 2329 837 2298 909 c 1
 2267 837 2168 778 1964 778 c 2
 235 778 l 2
 170 778 120 739 120 640 c 1
 32 640 l 1
EndSplineSet
EndChar
StartChar: uni23DE.size12
Encoding: 1114553 -1 1993
Width: 4941
Flags: W
HStem: 782 104<169.89 2285.3 2654.98 4770.47>
VStem: 32 90<640 732.496> 2430 81<980.922 1051> 4819 90<640 726.201>
CounterMasks: 1 70
LayerCount: 2
Fore
SplineSet
32 640 m 1
 32 811 114 886 251 886 c 2
 2094 886 l 2
 2318 886 2430 946 2430 1051 c 1
 2511 1051 l 1
 2511 946 2622 886 2846 886 c 2
 4689 886 l 2
 4826 886 4909 811 4909 640 c 1
 4819 640 l 1
 4819 743 4765 782 4698 782 c 2
 2824 782 l 2
 2607 782 2502 845 2470 920 c 1
 2438 845 2334 782 2117 782 c 2
 242 782 l 2
 175 782 122 743 122 640 c 1
 32 640 l 1
EndSplineSet
EndChar
StartChar: uni23DE.size13
Encoding: 1114554 -1 1994
Width: 5286
Flags: W
HStem: 786 106<174.689 2443.45 2841.57 5110.43>
VStem: 32 92<640 728.24> 2601 83<996.02 1065> 5162 92<640 728.24>
LayerCount: 2
Fore
SplineSet
32 640 m 1
 32 815 118 892 259 892 c 2
 2246 892 l 2
 2483 892 2601 956 2601 1065 c 1
 2684 1065 l 1
 2684 956 2802 892 3039 892 c 2
 5026 892 l 2
 5167 892 5254 815 5254 640 c 1
 5162 640 l 1
 5162 746 5105 786 5036 786 c 2
 3016 786 l 2
 2786 786 2675 853 2643 931 c 1
 2610 853 2499 786 2269 786 c 2
 249 786 l 2
 180 786 124 746 124 640 c 1
 32 640 l 1
EndSplineSet
EndChar
StartChar: uni23DE.size15
Encoding: 1114556 -1 1996
Width: 5976
Flags: W
HStem: 795 110<186.19 2759.61 3216.39 5789.81>
VStem: 32 96<640 732.782> 2945 86<1019.12 1095> 5848 96<640 732.782>
CounterMasks: 1 70
LayerCount: 2
Fore
SplineSet
32 640 m 1
 32 824 126 905 275 905 c 2
 2551 905 l 2
 2815 905 2945 975 2945 1095 c 1
 3031 1095 l 1
 3031 975 3161 905 3425 905 c 2
 5701 905 l 2
 5850 905 5944 824 5944 640 c 1
 5848 640 l 1
 5848 754 5785 795 5712 795 c 2
 3402 795 l 2
 3146 795 3022 869 2988 953 c 1
 2954 869 2830 795 2574 795 c 2
 264 795 l 2
 191 795 128 754 128 640 c 1
 32 640 l 1
EndSplineSet
EndChar
StartChar: uni23DE.size2
Encoding: 1114623 -1 2039
Width: 1491
Flags: W
HStem: 741 84<123.432 678.839 812.094 1367.57>
VStem: 32 70<640 719.304> 713 65<856.396 905> 1389 70<640 719.304>
CounterMasks: 1 70
LayerCount: 2
Fore
SplineSet
32 640 m 1
 32 770 76 825 172 825 c 2
 574 825 l 2
 663 825 713 852 713 905 c 1
 778 905 l 1
 778 852 828 825 917 825 c 2
 1319 825 l 2
 1415 825 1459 770 1459 640 c 1
 1389 640 l 1
 1389 707 1367 741 1321 741 c 2
 897 741 l 2
 810 741 770 765 745 812 c 1
 721 765 681 741 594 741 c 2
 170 741 l 2
 124 741 102 707 102 640 c 1
 32 640 l 1
EndSplineSet
EndChar
StartChar: uni23DE.size3
Encoding: 1114544 -1 1984
Width: 1836
Flags: W
HStem: 745 86<129.208 840.774 995.226 1706.79>
VStem: 32 72<640 721.787> 885 66<867.853 919> 1732 72<640 721.787>
CounterMasks: 1 70
LayerCount: 2
Fore
SplineSet
32 640 m 1
 32 774 80 831 180 831 c 2
 726 831 l 2
 828 831 885 862 885 919 c 1
 951 919 l 1
 951 862 1008 831 1110 831 c 2
 1656 831 l 2
 1756 831 1804 774 1804 640 c 1
 1732 640 l 1
 1732 710 1707 745 1659 745 c 2
 1090 745 l 2
 990 745 943 773 918 823 c 1
 893 773 846 745 746 745 c 2
 177 745 l 2
 129 745 104 710 104 640 c 1
 32 640 l 1
EndSplineSet
EndChar
StartChar: uni23DE.size4
Encoding: 1114545 -1 1985
Width: 2181
Flags: W
HStem: 749 88<131.062 1002.24 1178.45 2049.94>
VStem: 32 74<640 723.91> 1056 69<879.515 934> 2075 74<640 723.91>
CounterMasks: 1 70
LayerCount: 2
Fore
SplineSet
32 640 m 1
 32 778 84 837 188 837 c 2
 878 837 l 2
 994 837 1056 871 1056 934 c 1
 1125 934 l 1
 1125 871 1187 837 1303 837 c 2
 1993 837 l 2
 2097 837 2149 778 2149 640 c 1
 2075 640 l 1
 2075 714 2047 749 1996 749 c 2
 1282 749 l 2
 1169 749 1116 781 1090 834 c 1
 1064 781 1012 749 899 749 c 2
 184 749 l 2
 134 749 106 714 106 640 c 1
 32 640 l 1
EndSplineSet
EndChar
StartChar: uni23DE.size6
Encoding: 1114627 -1 2043
Width: 2871
Flags: W
HStem: 757 92<141.867 1326.15 1544.85 2728.75>
VStem: 32 78<640 724.107> 1400 71<904.212 963> 2761 78<640 724.107>
CounterMasks: 1 70
LayerCount: 2
Fore
SplineSet
32 640 m 1
 32 786 91 849 204 849 c 2
 1182 849 l 2
 1325 849 1400 890 1400 963 c 1
 1471 963 l 1
 1471 890 1546 849 1689 849 c 2
 2667 849 l 2
 2779 849 2839 786 2839 640 c 1
 2761 640 l 1
 2761 721 2726 757 2672 757 c 2
 1668 757 l 2
 1529 757 1463 797 1435 855 c 1
 1408 797 1342 757 1203 757 c 2
 199 757 l 2
 144 757 110 721 110 640 c 1
 32 640 l 1
EndSplineSet
EndChar
StartChar: uni23DE.size9
Encoding: 1114550 -1 1990
Width: 3906
Flags: W
HStem: 770 98<158.149 1806.06 2099.26 3747.35>
VStem: 32 84<640 725.926> 1915 76<944.539 1007> 3790 84<640 725.926>
CounterMasks: 1 70
LayerCount: 2
Fore
SplineSet
32 640 m 1
 32 799 103 868 227 868 c 2
 1638 868 l 2
 1821 868 1915 918 1915 1007 c 1
 1991 1007 l 1
 1991 918 2084 868 2267 868 c 2
 3678 868 l 2
 3803 868 3874 799 3874 640 c 1
 3790 640 l 1
 3790 732 3746 770 3685 770 c 2
 2246 770 l 2
 2068 770 1982 821 1953 888 c 1
 1923 821 1838 770 1660 770 c 2
 220 770 l 2
 160 770 116 732 116 640 c 1
 32 640 l 1
EndSplineSet
EndChar
StartChar: uni23DF.ext
Encoding: 1114523 -1 1838
Width: 600
VWidth: 1279
Flags: W
HStem: -425 110<0 600>
LayerCount: 2
Fore
SplineSet
0 -315 m 1
 600 -315 l 1
 600 -425 l 1
 0 -425 l 1
 0 -315 l 1
EndSplineSet
EndChar
StartChar: uni23DF.left
Encoding: 1114588 -1 2028
Width: 1400
VWidth: 1279
Flags: W
HStem: -425 110<154.203 1400>
VStem: 0 96<-252.782 -160>
LayerCount: 2
Fore
SplineSet
0 -160 m 1
 96 -160 l 1
 96 -274 159.03125 -315 232 -315 c 2
 1400 -315 l 25
 1400 -425 l 25
 243 -425 l 2
 94.0654296875 -425 0 -344 0 -160 c 1
EndSplineSet
EndChar
StartChar: uni23DF.mid
Encoding: 1114590 -1 2030
Width: 2000
VWidth: 1279
Flags: W
HStem: -425 110<0 771.61 1228.39 2000>
VStem: 957 86<-615 -539.122>
LayerCount: 2
Fore
SplineSet
0 -315 m 25
 586 -315 l 2
 842 -315 966 -389 1000 -473 c 1
 1034 -389 1158 -315 1414 -315 c 2
 2000 -315 l 25
 2000 -425 l 25
 1437 -425 l 2
 1173 -425 1043 -495 1043 -615 c 1
 957 -615 l 1
 957 -495 827 -425 563 -425 c 2
 0 -425 l 25
 0 -315 l 25
EndSplineSet
EndChar
StartChar: uni23DF.right
Encoding: 1114591 -1 2031
Width: 1400
VWidth: 1279
Flags: W
HStem: -425 110<0 1245.8>
VStem: 1304 96<-252.782 -160>
LayerCount: 2
Fore
SplineSet
0 -315 m 25
 1168 -315 l 2
 1240.96875 -315 1304 -274 1304 -160 c 1
 1400 -160 l 1
 1400 -344 1305.93457031 -425 1157 -425 c 2
 0 -425 l 25
 0 -315 l 25
EndSplineSet
EndChar
StartChar: uni23DF.size1
Encoding: 1114557 -1 1997
Width: 1146
Flags: W
HStem: -340 82<118.028 514.033 631.967 1027.97>
VStem: 32 68<-241.434 -160> 541 64<-411 -365.173> 1046 68<-241.434 -160>
CounterMasks: 1 70
LayerCount: 2
Fore
SplineSet
32 -160 m 1
 100 -160 l 1
 100 -224 119 -258 163 -258 c 2
 442 -258 l 2
 516 -258 549 -277 573 -322 c 1
 597 -277 630 -258 704 -258 c 2
 983 -258 l 2
 1027 -258 1046 -224 1046 -160 c 1
 1114 -160 l 1
 1114 -287 1074 -340 982 -340 c 2
 724 -340 l 2
 649 -340 605 -364 605 -411 c 1
 541 -411 l 1
 541 -364 497 -340 422 -340 c 2
 164 -340 l 2
 72 -340 32 -287 32 -160 c 1
EndSplineSet
EndChar
StartChar: uni23DF.size10
Encoding: 1114566 -1 2006
Width: 4251
Flags: W
HStem: -395 100<163.745 1969.35 2280.87 4086.75>
VStem: 32 86<-248.61 -160> 2086 78<-542 -475.997> 4133 86<-248.61 -160>
LayerCount: 2
Fore
SplineSet
32 -160 m 1
 118 -160 l 1
 118 -256 165 -295 228 -295 c 2
 1812 -295 l 2
 2003 -295 2095 -349 2125 -419 c 1
 2156 -349 2247 -295 2438 -295 c 2
 4023 -295 l 2
 4086 -295 4133 -256 4133 -160 c 1
 4219 -160 l 1
 4219 -324 4144 -395 4015 -395 c 2
 2460 -395 l 2
 2264 -395 2164 -448 2164 -542 c 1
 2086 -542 l 1
 2086 -448 1987 -395 1790 -395 c 2
 235 -395 l 2
 107 -395 32 -324 32 -160 c 1
EndSplineSet
EndChar
StartChar: uni23DF.size11
Encoding: 1114567 -1 2007
Width: 4596
Flags: W
HStem: -401 102<168.954 2125.62 2469.61 4430.02>
VStem: 32 88<-250.575 -160> 2258 79<-557 -490.859> 4476 88<-250.575 -160>
LayerCount: 2
Fore
SplineSet
32 -160 m 1
 120 -160 l 1
 120 -260 170 -299 235 -299 c 2
 1964 -299 l 2
 2168 -299 2267 -357 2298 -430 c 1
 2329 -357 2427 -299 2631 -299 c 2
 4361 -299 l 2
 4425 -299 4476 -260 4476 -160 c 1
 4564 -160 l 1
 4564 -328 4485 -401 4352 -401 c 2
 2653 -401 l 2
 2443 -401 2337 -458 2337 -557 c 1
 2258 -557 l 1
 2258 -458 2152 -401 1942 -401 c 2
 243 -401 l 2
 110 -401 32 -328 32 -160 c 1
EndSplineSet
EndChar
StartChar: uni23DF.size15
Encoding: 1114651 -1 2067
Width: 5976
Flags: W
HStem: -425 110<186.19 2759.61 3216.39 5789.81>
VStem: 32 96<-252.782 -160> 2945 86<-615 -539.122> 5848 96<-252.782 -160>
CounterMasks: 1 70
LayerCount: 2
Fore
SplineSet
32 -160 m 1
 128 -160 l 1
 128 -274 191 -315 264 -315 c 2
 2574 -315 l 2
 2830 -315 2954 -389 2988 -473 c 1
 3022 -389 3146 -315 3402 -315 c 2
 5712 -315 l 2
 5785 -315 5848 -274 5848 -160 c 1
 5944 -160 l 1
 5944 -344 5850 -425 5701 -425 c 2
 3425 -425 l 2
 3161 -425 3031 -495 3031 -615 c 1
 2945 -615 l 1
 2945 -495 2815 -425 2551 -425 c 2
 275 -425 l 2
 126 -425 32 -344 32 -160 c 1
EndSplineSet
EndChar
StartChar: uni23DF.size2
Encoding: 1114638 -1 2054
Width: 1491
Flags: W
HStem: -346 84<123.432 678.839 812.094 1367.57>
VStem: 32 70<-239.855 -160> 713 65<-426 -377.396> 1389 70<-239.855 -160>
CounterMasks: 1 70
LayerCount: 2
Fore
SplineSet
32 -160 m 1
 102 -160 l 1
 102 -228 124 -262 170 -262 c 2
 594 -262 l 2
 681 -262 721 -285 745 -333 c 1
 770 -285 810 -262 897 -262 c 2
 1321 -262 l 2
 1367 -262 1389 -228 1389 -160 c 1
 1459 -160 l 1
 1459 -291 1415 -346 1319 -346 c 2
 917 -346 l 2
 828 -346 778 -373 778 -426 c 1
 713 -426 l 1
 713 -373 663 -346 574 -346 c 2
 172 -346 l 2
 76 -346 32 -291 32 -160 c 1
EndSplineSet
EndChar
StartChar: uni23DF.size4
Encoding: 1114640 -1 2056
Width: 2181
Flags: W
HStem: -358 88<131.51 1002.24 1178.45 2049.31>
VStem: 32 74<-244.797 -160> 1056 69<-455 -400.515> 2075 74<-244.797 -160>
CounterMasks: 1 70
LayerCount: 2
Fore
SplineSet
32 -160 m 1
 106 -160 l 1
 106 -235 134 -270 184 -270 c 2
 899 -270 l 2
 1012 -270 1064 -301 1090 -355 c 1
 1116 -301 1169 -270 1282 -270 c 2
 1996 -270 l 2
 2047 -270 2075 -235 2075 -160 c 1
 2149 -160 l 1
 2149 -299 2097 -358 1993 -358 c 2
 1303 -358 l 2
 1187 -358 1125 -392 1125 -455 c 1
 1056 -455 l 1
 1056 -392 994 -358 878 -358 c 2
 188 -358 l 2
 84 -358 32 -299 32 -160 c 1
EndSplineSet
EndChar
StartChar: uni23DF.size5
Encoding: 1114561 -1 2001
Width: 2526
Flags: W
HStem: -364 90<136.658 1164.11 1361.89 2389.34>
VStem: 32 76<-242.292 -160> 1228 70<-469 -412.287> 2418 76<-242.292 -160>
CounterMasks: 1 70
LayerCount: 2
Fore
SplineSet
32 -160 m 1
 108 -160 l 1
 108 -238 139 -274 192 -274 c 2
 1051 -274 l 2
 1177 -274 1236 -309 1263 -365 c 1
 1290 -309 1349 -274 1475 -274 c 2
 2334 -274 l 2
 2387 -274 2418 -238 2418 -160 c 1
 2494 -160 l 1
 2494 -303 2438 -364 2330 -364 c 2
 1496 -364 l 2
 1367 -364 1298 -401 1298 -469 c 1
 1228 -469 l 1
 1228 -401 1159 -364 1030 -364 c 2
 196 -364 l 2
 88 -364 32 -303 32 -160 c 1
EndSplineSet
EndChar
StartChar: uni23DF.size6
Encoding: 1114562 -1 2002
Width: 2871
Flags: W
HStem: -370 92<141.867 1326.15 1544.85 2728.75>
VStem: 32 78<-244.63 -160> 1400 71<-484 -425.212> 2761 78<-244.63 -160>
CounterMasks: 1 70
LayerCount: 2
Fore
SplineSet
32 -160 m 1
 110 -160 l 1
 110 -242 144 -278 199 -278 c 2
 1203 -278 l 2
 1342 -278 1408 -317 1435 -376 c 1
 1463 -317 1529 -278 1668 -278 c 2
 2672 -278 l 2
 2726 -278 2761 -242 2761 -160 c 1
 2839 -160 l 1
 2839 -307 2779 -370 2667 -370 c 2
 1689 -370 l 2
 1546 -370 1471 -411 1471 -484 c 1
 1400 -484 l 1
 1400 -411 1325 -370 1182 -370 c 2
 204 -370 l 2
 91 -370 32 -307 32 -160 c 1
EndSplineSet
EndChar
StartChar: uni23DF.size8
Encoding: 1114564 -1 2004
Width: 3561
Flags: W
HStem: -383 96<152.553 1646.99 1913.79 3407.94>
VStem: 32 82<-244.231 -160> 1743 75<-513 -451.756> 3447 82<-244.231 -160>
CounterMasks: 1 70
LayerCount: 2
Fore
SplineSet
32 -160 m 1
 114 -160 l 1
 114 -249 155 -287 213 -287 c 2
 1508 -287 l 2
 1673 -287 1751 -333 1780 -398 c 1
 1809 -333 1888 -287 2053 -287 c 2
 3347 -287 l 2
 3406 -287 3447 -249 3447 -160 c 1
 3529 -160 l 1
 3529 -316 3462 -383 3341 -383 c 2
 2074 -383 l 2
 1905 -383 1818 -430 1818 -513 c 1
 1743 -513 l 1
 1743 -430 1656 -383 1486 -383 c 2
 219 -383 l 2
 99 -383 32 -316 32 -160 c 1
EndSplineSet
EndChar
StartChar: uni27E8.size11
Encoding: 1114301 -1 1640
Width: 601
Flags: W
IsExtendedShape: 1
VStem: 449 95<-2002.4 -1978.29 2537.31 2561.4>
LayerCount: 2
Fore
SplineSet
63 280 m 1
 449 2579 l 1
 544 2560 l 1
 178 280 l 1
 544 -2001 l 1
 449 -2020 l 1
 63 280 l 1
EndSplineSet
EndChar
StartChar: uni27E8.size15
Encoding: 1114305 -1 1745
Width: 696
Flags: W
IsExtendedShape: 1
LayerCount: 2
Fore
SplineSet
72 280 m 1
 528 3236 l 1
 632 3220 l 1
 198 280 l 1
 632 -2660 l 1
 528 -2676 l 1
 72 280 l 1
EndSplineSet
EndChar
StartChar: uni27E9.size1
Encoding: 1114306 -1 1645
Width: 365
Flags: W
IsExtendedShape: 1
VStem: 41 282
LayerCount: 2
Fore
SplineSet
41 -352 m 1
 234 280 l 1
 41 911 l 1
 113 939 l 1
 323 280 l 1
 113 -380 l 1
 41 -352 l 1
EndSplineSet
EndChar
StartChar: uni27E9.size10
Encoding: 1114315 -1 1654
Width: 578
Flags: W
IsExtendedShape: 1
VStem: 56 92<-1837.52 -1815.37 2374.39 2396.52>
LayerCount: 2
Fore
SplineSet
56 -1836 m 1
 404 280 l 1
 56 2395 l 1
 148 2415 l 1
 516 280 l 1
 148 -1856 l 1
 56 -1836 l 1
EndSplineSet
EndChar
StartChar: uni27E9.size13
Encoding: 1114318 -1 1758
Width: 648
Flags: W
IsExtendedShape: 1
VStem: 60 100<-2332.19 -2304.3 2863.32 2891.19>
LayerCount: 2
Fore
SplineSet
60 -2331 m 1
 460 280 l 1
 60 2890 l 1
 160 2907 l 1
 581 280 l 1
 160 -2348 l 1
 60 -2331 l 1
EndSplineSet
EndChar
StartChar: uni27EB.size13
Encoding: 1114348 -1 1687
Width: 898
Flags: W
IsExtendedShape: 1
VStem: 60 100<-2332.19 -2304.3 2863.32 2891.19> 310 99<-2332.2 -2304.3 2863.32 2891.2>
LayerCount: 2
Fore
SplineSet
60 -2331 m 1
 460 280 l 1
 60 2890 l 1
 160 2907 l 1
 581 280 l 1
 160 -2348 l 1
 60 -2331 l 1
310 -2331 m 1
 709 280 l 1
 310 2890 l 1
 409 2907 l 1
 830 280 l 1
 409 -2348 l 1
 310 -2331 l 1
EndSplineSet
EndChar
StartChar: uni27EB.size15
Encoding: 1114350 -1 1790
Width: 956
Flags: W
IsExtendedShape: 1
VStem: 64 104<-2661.08 -2630.62 3190.62 3221.08> 324 104<-2661.08 -2630.62 3190.62 3221.08>
LayerCount: 2
Fore
SplineSet
64 -2660 m 1
 498 280 l 1
 64 3220 l 1
 168 3236 l 1
 624 280 l 1
 168 -2676 l 1
 64 -2660 l 1
324 -2660 m 1
 758 280 l 1
 324 3220 l 1
 428 3236 l 1
 884 280 l 1
 428 -2676 l 1
 324 -2660 l 1
EndSplineSet
EndChar
StartChar: uni27EB.size2
Encoding: 1114337 -1 1676
Width: 579
Flags: W
IsExtendedShape: 1
LayerCount: 2
Fore
SplineSet
43 -517 m 1
 253 280 l 1
 43 1076 l 1
 117 1103 l 1
 344 280 l 1
 117 -544 l 1
 43 -517 l 1
233 -517 m 1
 444 280 l 1
 233 1076 l 1
 308 1103 l 1
 535 280 l 1
 308 -544 l 1
 233 -517 l 1
EndSplineSet
EndChar
StartChar: uni27EB.size3
Encoding: 1114338 -1 1677
Width: 608
Flags: W
IsExtendedShape: 1
LayerCount: 2
Fore
SplineSet
44 -682 m 1
 272 280 l 1
 44 1241 l 1
 121 1267 l 1
 366 280 l 1
 121 -708 l 1
 44 -682 l 1
240 -682 m 1
 468 280 l 1
 240 1241 l 1
 317 1267 l 1
 562 280 l 1
 317 -708 l 1
 240 -682 l 1
EndSplineSet
EndChar
StartChar: uni27EB.size8
Encoding: 1114343 -1 1783
Width: 753
Flags: W
IsExtendedShape: 1
VStem: 52 88<-1507.75 -1489.99 2049.02 2066.75> 275 88<-1507.75 -1489.99 2049.02 2066.75>
LayerCount: 2
Fore
SplineSet
52 -1506 m 1
 366 280 l 1
 52 2065 l 1
 140 2087 l 1
 473 280 l 1
 140 -1528 l 1
 52 -1506 l 1
275 -1506 m 1
 589 280 l 1
 275 2065 l 1
 363 2087 l 1
 696 280 l 1
 363 -1528 l 1
 275 -1506 l 1
EndSplineSet
EndChar
StartChar: uni27EE.ext
Encoding: 1114477 -1 1917
Width: 563
Flags: W
HStem: 0 21G<100 210>
VStem: 100 110<0 600>
LayerCount: 2
Fore
SplineSet
100 0 m 1
 100 600 l 25
 210 600 l 25
 210 0 l 1
 100 0 l 1
EndSplineSet
EndChar
StartChar: uni27EE.top
Encoding: 1114476 -1 1916
Width: 563
Flags: W
HStem: 0 21G<100 210>
VStem: 100 110<0 1442.01>
LayerCount: 2
Fore
SplineSet
100 0 m 25
 100 1212 l 2
 100 1962 175 2440 427 2956 c 1
 499 2925 l 1
 259 2389 210 1880 210 1192 c 2
 210 0 l 25
 100 0 l 25
EndSplineSet
EndChar
StartChar: uni27EF.size13
Encoding: 1114288 -1 1728
Width: 526
Flags: W
IsExtendedShape: 1
VStem: 325 107<-1009.18 1568.18>
LayerCount: 2
Fore
SplineSet
62 -2316 m 1
 281 -1829 325 -1373 325 -759 c 2
 325 1318 l 2
 325 1932 281 2388 62 2875 c 1
 132 2907 l 1
 363 2436 432 2009 432 1338 c 2
 432 -779 l 2
 432 -1450 363 -1877 132 -2348 c 1
 62 -2316 l 1
EndSplineSet
EndChar
StartChar: uni2980.ext
Encoding: 1114467 -1 1806
Width: 1027
Flags: W
HStem: 0 21G<200 307 460 567 720 827>
VStem: 200 107<0 600> 460 107<0 600> 720 107<0 600>
CounterMasks: 1 70
LayerCount: 2
Fore
SplineSet
200 0 m 1
 200 600 l 1
 307 600 l 1
 307 0 l 1
 200 0 l 1
460 0 m 1
 460 600 l 1
 567 600 l 1
 567 0 l 1
 460 0 l 1
720 0 m 1
 720 600 l 1
 827 600 l 1
 827 0 l 1
 720 0 l 1
EndSplineSet
EndChar
StartChar: uni2980.size12
Encoding: 1114392 -1 1832
Width: 971
Flags: W
IsExtendedShape: 1
VStem: 192 102<-2184 2743> 434 103<-2184 2743> 677 102<-2184 2743>
CounterMasks: 1 e0
LayerCount: 2
Fore
SplineSet
192 -2184 m 1
 192 2743 l 1
 294 2743 l 1
 294 -2184 l 1
 192 -2184 l 1
434 -2184 m 1
 434 2743 l 1
 537 2743 l 1
 537 -2184 l 1
 434 -2184 l 1
677 -2184 m 1
 677 2743 l 1
 779 2743 l 1
 779 -2184 l 1
 677 -2184 l 1
EndSplineSet
EndChar
StartChar: uni2980.size13
Encoding: 1114393 -1 1833
Width: 990
Flags: W
IsExtendedShape: 1
VStem: 194 104<-2348 2907> 443 104<-2348 2907> 691 104<-2348 2907>
LayerCount: 2
Fore
SplineSet
194 -2348 m 1
 194 2907 l 1
 298 2907 l 1
 298 -2348 l 1
 194 -2348 l 1
443 -2348 m 1
 443 2907 l 1
 547 2907 l 1
 547 -2348 l 1
 443 -2348 l 1
691 -2348 m 1
 691 2907 l 1
 795 2907 l 1
 795 -2348 l 1
 691 -2348 l 1
EndSplineSet
EndChar
StartChar: uni2980.size15
Encoding: 1114395 -1 1835
Width: 1027
Flags: W
IsExtendedShape: 1
VStem: 200 107<-2676 3236> 460 107<-2676 3236> 720 107<-2676 3236>
CounterMasks: 1 e0
LayerCount: 2
Fore
SplineSet
200 -2676 m 1
 200 3236 l 1
 307 3236 l 1
 307 -2676 l 1
 200 -2676 l 1
460 -2676 m 1
 460 3236 l 1
 567 3236 l 1
 567 -2676 l 1
 460 -2676 l 1
720 -2676 m 1
 720 3236 l 1
 827 3236 l 1
 827 -2676 l 1
 720 -2676 l 1
EndSplineSet
EndChar
StartChar: uni2980.size2
Encoding: 1114382 -1 1822
Width: 787
Flags: W
IsExtendedShape: 1
VStem: 165 86<-544 1103> 350 87<-544 1103> 536 86<-544 1103>
CounterMasks: 1 e0
LayerCount: 2
Fore
SplineSet
165 -544 m 1
 165 1103 l 1
 251 1103 l 1
 251 -544 l 1
 165 -544 l 1
350 -544 m 1
 350 1103 l 1
 437 1103 l 1
 437 -544 l 1
 350 -544 l 1
536 -544 m 1
 536 1103 l 1
 622 1103 l 1
 622 -544 l 1
 536 -544 l 1
EndSplineSet
EndChar
